<svg width="714" height="714" viewBox="0 0 714 714" fill="none" xmlns="http://www.w3.org/2000/svg">
<path d="M214.995 326.469C210.023 309.258 200.756 293.026 187.193 279.463C144.37 236.64 74.9401 236.64 32.1172 279.463C-10.7057 322.285 -10.7057 391.715 32.1172 434.538C45.6806 448.101 61.9133 457.369 79.1243 462.34C88.0753 465.192 98.3749 467.41 109.609 469.829C146.774 477.832 194.169 488.037 236.817 530.685C236.817 530.685 243.02 516.728 256.201 503.547C269.383 490.365 283.339 484.162 283.339 484.162C240.692 441.515 230.486 394.119 222.484 356.955C220.064 345.72 217.847 335.42 214.995 326.469Z" fill="#2A1351"/>
<path d="M499.005 387.531C503.977 404.742 513.244 420.975 526.807 434.538C569.63 477.361 639.06 477.361 681.883 434.538C724.706 391.715 724.706 322.285 681.883 279.463C668.319 265.899 652.087 256.632 634.876 251.66C625.925 248.808 615.625 246.591 604.391 244.172C567.226 236.169 519.831 225.963 477.183 183.316C477.183 183.316 470.98 197.273 457.799 210.454C444.617 223.635 430.661 229.838 430.661 229.838C473.308 272.486 483.514 319.881 491.516 357.046C493.935 368.28 496.153 378.58 499.005 387.531Z" fill="#2A1351"/>
<path d="M251.661 79.1235C256.632 61.9127 265.9 45.6802 279.463 32.1169C322.286 -10.706 391.715 -10.706 434.538 32.1169C477.361 74.9398 477.361 144.369 434.538 187.192C420.975 200.756 404.742 210.023 387.531 214.995C378.58 217.846 368.281 220.064 357.046 222.483C319.882 230.486 272.486 240.692 229.839 283.339C229.839 283.339 223.636 269.382 210.454 256.201C197.273 243.019 183.316 236.816 183.316 236.816C225.964 194.169 236.169 146.774 244.172 109.609C246.591 98.3744 248.809 88.0747 251.661 79.1235Z" fill="#2A1351"/>
<path d="M462.339 634.877C457.368 652.088 448.1 668.32 434.537 681.884C391.714 724.706 322.285 724.706 279.462 681.884C236.639 639.061 236.639 569.631 279.462 526.808C293.025 513.245 309.258 503.977 326.469 499.006C335.42 496.154 345.719 493.936 356.954 491.517C394.118 483.514 441.514 473.309 484.161 430.661C484.161 430.661 490.364 444.618 503.546 457.8C516.727 470.981 530.684 477.184 530.684 477.184C488.036 519.832 477.831 567.227 469.828 604.391C467.409 615.626 465.191 625.926 462.339 634.877Z" fill="#2A1351"/>
<path d="M213.705 326.842C213.709 326.853 213.712 326.865 213.716 326.877C216.544 335.754 218.749 345.985 221.172 357.237L221.184 357.296C229.104 394.075 239.25 441.194 281.063 483.772C280.84 483.885 280.596 484.01 280.333 484.147C278.792 484.948 276.605 486.152 274.004 487.772C268.804 491.009 261.933 495.917 255.252 502.598C248.571 509.278 243.664 516.15 240.427 521.349C238.807 523.951 237.603 526.138 236.801 527.679C236.665 527.941 236.54 528.185 236.427 528.409C193.848 486.595 146.73 476.449 109.95 468.53L109.892 468.517C98.6401 466.094 88.4087 463.89 79.5317 461.062C79.5201 461.058 79.5084 461.054 79.4967 461.051C62.498 456.141 46.4653 446.988 33.0662 433.589C-9.23259 391.29 -9.23259 322.71 33.0662 280.412C75.365 238.113 143.945 238.113 186.244 280.412C199.643 293.811 208.795 309.843 213.705 326.842ZM500.295 387.159C500.291 387.147 500.288 387.136 500.284 387.124C497.456 378.247 495.251 368.015 492.828 356.763L492.816 356.705C484.896 319.925 474.75 272.807 432.937 230.228C433.16 230.115 433.404 229.99 433.667 229.854C435.208 229.053 437.395 227.848 439.996 226.229C445.196 222.991 452.067 218.084 458.748 211.403C465.429 204.722 470.336 197.851 473.573 192.651C475.193 190.05 476.397 187.863 477.199 186.322C477.335 186.059 477.46 185.816 477.573 185.592C520.152 227.405 567.27 237.551 604.05 245.471L604.108 245.484C615.36 247.906 625.591 250.111 634.468 252.939L634.487 252.945L634.503 252.95C651.502 257.86 667.535 267.013 680.934 280.412C723.233 322.71 723.233 391.29 680.934 433.589C638.635 475.888 570.055 475.888 527.756 433.589C514.357 420.19 505.205 404.157 500.295 387.159ZM252.939 79.531C252.943 79.5193 252.947 79.5077 252.95 79.496C257.86 62.4975 267.013 46.4649 280.412 33.0659C322.711 -9.23283 391.29 -9.23283 433.589 33.0659C475.888 75.3647 475.888 143.945 433.589 186.243C420.19 199.642 404.157 208.795 387.159 213.705C387.147 213.709 387.135 213.712 387.124 213.716C378.247 216.544 368.015 218.749 356.764 221.171L356.705 221.184C319.926 229.104 272.807 239.25 230.229 281.063C230.115 280.839 229.991 280.596 229.854 280.333C229.053 278.792 227.848 276.605 226.229 274.004C222.991 268.804 218.084 261.933 211.403 255.252C204.723 248.571 197.851 243.664 192.652 240.426C190.05 238.807 187.863 237.602 186.322 236.801C186.06 236.664 185.816 236.54 185.592 236.426C227.406 193.848 237.552 146.729 245.471 109.95L245.484 109.892C247.907 98.6396 250.111 88.4081 252.939 79.531ZM461.061 634.47C461.057 634.481 461.053 634.493 461.05 634.505C456.14 651.503 446.987 667.536 433.588 680.935C391.289 723.233 322.71 723.233 280.411 680.935C238.112 638.636 238.112 570.056 280.411 527.757C293.81 514.358 309.843 505.205 326.841 500.295C326.853 500.292 326.865 500.288 326.876 500.285C335.753 497.456 345.985 495.252 357.236 492.829L357.295 492.816C394.075 484.897 441.193 474.751 483.771 432.937C483.885 433.161 484.009 433.405 484.146 433.667C484.947 435.209 486.151 437.396 487.771 439.997C491.009 445.196 495.916 452.068 502.597 458.749C509.277 465.429 516.149 470.337 521.348 473.574C523.95 475.194 526.137 476.398 527.678 477.2C527.94 477.336 528.184 477.461 528.408 477.574C486.594 520.152 476.448 567.271 468.529 604.05L468.516 604.109C466.093 615.361 463.889 625.592 461.061 634.47Z" stroke="black" stroke-opacity="0.1" strokeWidth="2.68421" stroke-linejoin="round"/>
</svg>
