<svg width="1265" height="266" viewBox="0 0 1265 266" fill="none" xmlns="http://www.w3.org/2000/svg">
<path d="M381.613 61.1925V178.199H441.977V205.9H350.604V61.1925H381.613ZM456.461 77.5238C456.461 55.4042 490.364 55.4042 490.364 77.5238C490.364 99.8502 456.461 99.8502 456.461 77.5238ZM487.883 107.499V205.9H458.941V107.499H487.883ZM553.097 75.4565V106.465H585.553V128.172H553.097V166.829C553.097 187.502 570.255 188.535 586.793 182.54L589.48 204.453C555.164 213.963 524.775 208.381 524.775 167.449V128.172L505.963 126.311V106.465H526.843L529.943 75.4565H553.097ZM695.158 177.372L696.191 199.699C684.821 206.107 673.245 207.347 660.634 207.968C625.698 209.001 602.338 192.05 602.338 155.666C602.338 121.763 626.731 104.191 652.986 103.571C675.519 102.951 699.912 112.047 699.292 137.888C698.258 158.354 680.067 167.863 661.875 168.483C650.505 169.103 638.721 167.036 629.832 162.075C630.452 179.233 644.303 185.641 662.495 185.021C674.072 184.814 687.095 181.3 695.158 177.372ZM631.486 143.676C635.621 146.363 646.99 149.464 656.086 148.844C664.355 148.637 671.177 145.33 671.384 137.888C671.384 128.792 661.255 125.898 653.399 125.898C643.269 126.518 634.587 131.272 631.486 143.676ZM751.582 120.109C755.717 108.739 767.293 103.158 779.49 103.158C787.139 102.951 794.995 105.225 800.783 109.566L794.375 133.753C788.379 129.825 782.178 128.172 775.769 128.378C763.159 128.378 752.409 136.647 752.409 151.945V205.9H724.088V135.614C724.088 127.345 723.261 121.97 714.165 123.417V105.638C728.636 102.331 749.929 102.331 751.582 120.109ZM908.109 113.287V173.858C908.109 182.334 907.696 186.882 917.619 186.261V204.867C904.181 207.761 884.749 208.795 884.749 188.329C879.168 200.732 866.351 207.554 853.12 207.554C822.318 206.934 808.054 183.161 808.054 154.839C809.088 121.143 832.034 103.364 865.73 103.985C880.408 104.191 894.879 107.706 908.109 113.287ZM879.994 155.873V130.032C874.413 127.758 868.418 127.138 863.456 127.138C847.745 127.138 837.616 135.82 836.996 154.839C836.996 170.55 844.438 182.127 859.322 181.92C873.173 181.92 879.374 170.964 879.994 155.873ZM937.172 54.5773H965.7V168.07C965.7 183.367 971.695 186.468 985.546 184.194L986.579 205.9C955.777 211.482 937.172 203.833 937.172 168.07V54.5773ZM1131.26 181.92H1071.11L1059.94 205.9H1027.69V201.766L1094.26 59.9521H1108.52L1174.68 201.766V205.9H1142.63L1131.26 181.92ZM1101.29 108.119L1081.24 155.873H1121.34L1101.29 108.119ZM1234.46 181.3H1254.93V205.9H1182.98V181.3H1203.45V85.1726H1184.64V61.1925H1253.27V85.1726H1234.46V181.3Z" fill="white"/>
<path d="M80.0961 121.626C78.244 115.214 74.7914 109.167 69.7384 104.114C53.7848 88.16 27.9188 88.16 11.9652 104.114C-3.98841 120.067 -3.98841 145.933 11.9652 161.887C17.0183 166.94 23.0657 170.392 29.4777 172.245C32.8124 173.307 36.6495 174.133 40.8349 175.034C54.6805 178.016 72.3375 181.818 88.2258 197.706C88.2258 197.706 90.5368 192.507 95.4475 187.596C100.358 182.685 105.558 180.374 105.558 180.374C89.6695 164.486 85.8674 146.829 82.8861 132.983C81.9848 128.798 81.1586 124.961 80.0961 121.626Z" fill="url(#paint0_linear_3594_32736)"/>
<path d="M185.904 144.375C187.756 150.786 191.209 156.834 196.262 161.887C212.215 177.84 238.081 177.84 254.035 161.887C269.988 145.933 269.988 120.067 254.035 104.114C248.982 99.0605 242.934 95.608 236.522 93.7559C233.188 92.6934 229.351 91.8672 225.165 90.966C211.32 87.9846 193.662 84.1825 177.774 68.2942C177.774 68.2942 175.463 73.4938 170.553 78.4045C165.642 83.3153 160.442 85.6262 160.442 85.6262C176.331 101.514 180.133 119.172 183.114 133.017C184.015 137.203 184.841 141.04 185.904 144.375Z" fill="url(#paint1_linear_3594_32736)"/>
<path d="M93.7559 29.4775C95.608 23.0656 99.0606 17.0182 104.114 11.9652C120.067 -3.98841 145.933 -3.98841 161.887 11.9652C177.84 27.9188 177.84 53.7848 161.887 69.7384C156.834 74.7915 150.786 78.244 144.374 80.0962C141.04 81.1586 137.203 81.9848 133.017 82.8861C119.172 85.8674 101.514 89.6695 85.6262 105.558C85.6262 105.558 83.3153 100.358 78.4045 95.4475C73.4938 90.5368 68.2942 88.2258 68.2942 88.2258C84.1825 72.3375 87.9846 54.6805 90.966 40.8349C91.8672 36.6494 92.6935 32.8122 93.7559 29.4775Z" fill="url(#paint2_linear_3594_32736)"/>
<path d="M172.244 236.523C170.392 242.935 166.939 248.982 161.886 254.035C145.933 269.989 120.067 269.989 104.113 254.035C88.1596 238.082 88.1596 212.216 104.113 196.262C109.166 191.209 115.214 187.756 121.626 185.904C124.96 184.842 128.797 184.016 132.983 183.114C146.828 180.133 164.486 176.331 180.374 160.443C180.374 160.443 182.685 165.642 187.595 170.553C192.506 175.464 197.706 177.775 197.706 177.775C181.817 193.663 178.015 211.32 175.034 225.165C174.133 229.351 173.307 233.188 172.244 236.523Z" fill="url(#paint3_linear_3594_32736)"/>
<path d="M79.6157 121.765L79.6156 121.765L79.6197 121.778C80.6734 125.085 81.4946 128.897 82.3973 133.089L82.4019 133.11C85.3524 146.812 89.1323 164.366 104.71 180.229C104.626 180.271 104.536 180.318 104.438 180.368C103.864 180.667 103.049 181.116 102.08 181.719C100.143 182.925 97.5829 184.753 95.0939 187.242C92.605 189.731 90.7768 192.291 89.5707 194.228C88.9673 195.197 88.5186 196.012 88.22 196.586C88.1692 196.684 88.1227 196.775 88.0806 196.858C72.218 181.281 54.664 177.501 40.9618 174.55L40.9401 174.546C36.7483 173.643 32.9366 172.822 29.6295 171.768L29.6295 171.768L29.6164 171.764C23.2836 169.935 17.3106 166.525 12.3188 161.533C-3.43959 145.775 -3.43959 120.226 12.3188 104.467C28.0771 88.7088 53.6265 88.7088 69.3849 104.467C74.3766 109.459 77.7865 115.432 79.6157 121.765ZM186.384 144.236L186.384 144.236L186.38 144.223C185.327 140.916 184.505 137.104 183.603 132.912L183.598 132.89C180.648 119.188 176.868 101.634 161.29 85.7715C161.374 85.7293 161.464 85.6828 161.562 85.632C162.136 85.3334 162.951 84.8847 163.92 84.2813C165.857 83.0752 168.417 81.247 170.906 78.7581C173.395 76.2692 175.223 73.7092 176.429 71.7721C177.033 70.803 177.481 69.9883 177.78 69.4141C177.831 69.3163 177.877 69.2255 177.919 69.1421C193.782 84.7197 211.336 88.4996 225.038 91.4501L225.06 91.4548C229.252 92.3574 233.063 93.1786 236.371 94.2323L236.37 94.2324L236.384 94.2362C242.716 96.0655 248.689 99.4753 253.681 104.467C269.44 120.226 269.44 145.775 253.681 161.533C237.923 177.292 212.374 177.292 196.615 161.533C191.623 156.541 188.214 150.569 186.384 144.236ZM94.2323 29.6293L94.2325 29.6293L94.2363 29.6162C96.0655 23.2835 99.4754 17.3105 104.467 12.3188C120.226 -3.43959 145.775 -3.43959 161.533 12.3188C177.292 28.0771 177.292 53.6265 161.533 69.3849C156.541 74.3767 150.568 77.7865 144.236 79.6158L144.236 79.6156L144.223 79.6198C140.915 80.6734 137.104 81.4946 132.912 82.3973L132.89 82.4019C119.188 85.3524 101.634 89.1323 85.7715 104.71C85.7293 104.626 85.6828 104.536 85.632 104.438C85.3334 103.864 84.8847 103.049 84.2813 102.08C83.0752 100.143 81.247 97.5829 78.7581 95.0939C76.2692 92.605 73.7092 90.7768 71.7721 89.5707C70.803 88.9673 69.9883 88.5186 69.4141 88.22C69.3163 88.1692 69.2255 88.1227 69.1421 88.0806C84.7197 72.218 88.4996 54.664 91.4501 40.9618L91.4548 40.9401C92.3574 36.7482 93.1786 32.9364 94.2323 29.6293ZM171.768 236.371L171.768 236.371L171.764 236.384C169.934 242.717 166.525 248.69 161.533 253.682C145.774 269.44 120.225 269.44 104.467 253.682C88.7084 237.923 88.7084 212.374 104.467 196.616C109.459 191.624 115.432 188.214 121.764 186.385L121.764 186.385L121.777 186.381C125.085 185.327 128.896 184.506 133.088 183.603L133.11 183.598C146.812 180.648 164.366 176.868 180.229 161.29C180.271 161.374 180.317 161.465 180.368 161.562C180.667 162.137 181.115 162.951 181.719 163.92C182.925 165.858 184.753 168.418 187.242 170.906C189.731 173.395 192.291 175.224 194.228 176.43C195.197 177.033 196.012 177.482 196.586 177.78C196.684 177.831 196.774 177.878 196.858 177.92C181.28 193.782 177.5 211.336 174.55 225.039L174.545 225.06C173.643 229.252 172.821 233.064 171.768 236.371Z" stroke="black" stroke-opacity="0.1" stroke-linejoin="round"/>
<defs>
<linearGradient id="paint0_linear_3594_32736" x1="119.251" y1="276.386" x2="112.859" y2="-28.0325" gradientUnits="userSpaceOnUse">
<stop stop-color="#FF004F"/>
<stop offset="1" stop-color="#FF0581"/>
</linearGradient>
<linearGradient id="paint1_linear_3594_32736" x1="119.251" y1="276.386" x2="112.859" y2="-28.0325" gradientUnits="userSpaceOnUse">
<stop stop-color="#FF004F"/>
<stop offset="1" stop-color="#FF0581"/>
</linearGradient>
<linearGradient id="paint2_linear_3594_32736" x1="119.251" y1="276.386" x2="112.859" y2="-28.0325" gradientUnits="userSpaceOnUse">
<stop stop-color="#FF004F"/>
<stop offset="1" stop-color="#FF0581"/>
</linearGradient>
<linearGradient id="paint3_linear_3594_32736" x1="119.251" y1="276.386" x2="112.859" y2="-28.0325" gradientUnits="userSpaceOnUse">
<stop stop-color="#FF004F"/>
<stop offset="1" stop-color="#FF0581"/>
</linearGradient>
</defs>
</svg>
