<svg width="495" height="116" viewBox="0 0 495 116" fill="none" xmlns="http://www.w3.org/2000/svg">
<path d="M148.63 58.5136C148.63 37.6964 164.176 26.2603 180.615 26.5284C193.213 26.5284 206.614 33.3185 209.473 48.7751H196.518C193.749 41.7169 188.12 38.5898 180.615 38.5898C169.536 38.5898 162.121 46.6308 162.121 58.5136C162.121 69.235 169.358 78.1694 180.526 78.1694C188.299 78.1694 194.642 74.5063 196.787 66.912H209.652C206.972 83.4407 193.659 90.3202 180.615 90.3202C164.176 90.3202 148.63 79.2415 148.63 58.5136ZM231.161 65.0358V89.7842H218.653V24.3841H231.161V52.4382C234.645 47.1669 239.827 45.5587 245.277 45.8267C254.927 46.2735 259.305 51.6341 260.645 59.7645C260.913 61.8194 261.002 63.785 261.002 65.9292V77.4546C261.002 81.2965 261.627 82.1899 265.827 81.9219V89.4268C255.463 91.5711 248.494 89.4268 248.494 78.0801V69.8604C248.494 67.0014 248.494 64.5891 248.226 62.5341C247.511 57.9776 245.635 55.5653 240.364 55.5653C235.539 55.5653 231.161 58.9604 231.161 65.0358ZM314.362 49.6685V75.8464C314.362 79.5096 314.183 81.4751 318.471 81.2071V89.2481C312.664 90.4989 304.266 90.9456 304.266 82.1006C301.853 87.4612 296.314 90.4096 290.596 90.4096C277.284 90.1415 271.119 79.8669 271.119 67.6268C271.566 53.0636 281.483 45.38 296.046 45.6481C302.389 45.7374 308.644 47.2563 314.362 49.6685ZM302.211 68.0735V56.9054C299.798 55.9227 297.207 55.6546 295.063 55.6546C288.273 55.6546 283.895 59.4071 283.627 67.6268C283.627 74.4169 286.844 79.4202 293.276 79.3309C299.262 79.3309 301.943 74.5956 302.211 68.0735ZM326.297 34.212C326.297 24.6521 340.949 24.6521 340.949 34.212C340.949 43.8612 326.297 43.8612 326.297 34.212ZM339.877 47.1669V89.6948H327.369V47.1669H339.877ZM348.495 53.7784V46.4522C354.839 45.2907 364.935 44.6653 364.935 52.9743C367.704 47.8817 372.797 45.6481 378.515 45.6481C390.666 45.6481 395.759 53.9571 395.49 64.6784V76.3825C395.49 80.403 395.669 82.3686 400.047 82.1006V89.4268C391.559 91.5711 383.072 90.4989 383.072 79.7776V64.6784C383.161 58.6923 379.319 55.5653 374.763 55.5653C370.117 55.2972 365.739 58.9604 365.739 64.9464V89.6948H353.231V59.9432C353.231 55.2079 353.32 53.5104 348.495 53.7784ZM407.716 24.2947H420.046V73.3448C420.046 79.9563 422.637 81.2965 428.623 80.3137L429.069 89.6948C415.757 92.1071 407.716 88.8014 407.716 73.3448V24.2947ZM434.662 34.212C434.662 24.6521 449.314 24.6521 449.314 34.212C449.314 43.8612 434.662 43.8612 434.662 34.212ZM448.242 47.1669V89.6948H435.734V47.1669H448.242ZM476.427 33.3185V46.7202H490.454V56.1013H476.427V72.8087C476.427 81.7432 483.842 82.1899 490.99 79.5989L492.151 89.0694C477.32 93.1793 464.187 90.767 464.187 73.0768V56.1013L456.056 55.2972V46.7202H465.08L466.42 33.3185H476.427Z" fill="white"/>
<path d="M35.204 53.2616C34.4035 50.4904 32.9114 47.8768 30.7275 45.693C23.8326 38.798 12.6536 38.798 5.75863 45.693C-1.13634 52.5879 -1.13634 63.7669 5.75863 70.6618C7.9425 72.8457 10.5561 74.3379 13.3273 75.1383C14.7685 75.5975 16.4269 75.9546 18.2357 76.3441C24.2197 77.6326 31.8508 79.2758 38.7176 86.1426C38.7176 86.1426 39.7163 83.8954 41.8387 81.773C43.961 79.6507 46.2082 78.6519 46.2082 78.6519C39.3415 71.7852 37.6983 64.154 36.4098 58.1701C36.0203 56.3612 35.6632 54.7028 35.204 53.2616Z" fill="#2AB673"/>
<path d="M80.9329 63.0933C81.7333 65.8644 83.2255 68.478 85.4093 70.6618C92.3043 77.5568 103.483 77.5568 110.378 70.6618C117.273 63.7669 117.273 52.5879 110.378 45.693C108.194 43.5091 105.581 42.0169 102.81 41.2165C101.368 40.7573 99.71 40.4002 97.9011 40.0107C91.9172 38.7222 84.286 37.079 77.4193 30.2122C77.4193 30.2122 76.4205 32.4594 74.2982 34.5818C72.1758 36.7042 69.9286 37.7029 69.9286 37.7029C76.7954 44.5697 78.4386 52.2008 79.7271 58.1847C80.1166 59.9936 80.4737 61.652 80.9329 63.0933Z" fill="#2AB673"/>
<path d="M41.1076 13.4361C41.9081 10.665 43.4002 8.05136 45.5841 5.86752C52.479 -1.02745 63.658 -1.02745 70.553 5.86752C77.4479 12.7625 77.4479 23.9414 70.553 30.8364C68.3691 33.0203 65.7555 34.5124 62.9843 35.3129C61.5431 35.7721 59.8847 36.1292 58.0758 36.5187C52.0919 37.8072 44.4608 39.4504 37.594 46.3171C37.594 46.3171 36.5953 44.0699 34.4729 41.9476C32.3506 39.8252 30.1034 38.8265 30.1034 38.8265C36.9701 31.9597 38.6133 24.3286 39.9018 18.3446C40.2913 16.5357 40.6484 14.8773 41.1076 13.4361Z" fill="#2AB673"/>
<path d="M75.0293 102.919C74.2288 105.69 72.7366 108.303 70.5528 110.487C63.6578 117.382 52.4789 117.382 45.5839 110.487C38.6889 103.592 38.6889 92.4134 45.5839 85.5184C47.7678 83.3345 50.3814 81.8424 53.1526 81.0419C54.5938 80.5827 56.2521 80.2256 58.061 79.8361C64.0449 78.5476 71.6761 76.9044 78.5428 70.0377C78.5428 70.0377 79.5416 72.2849 81.6639 74.4072C83.7863 76.5296 86.0335 77.5284 86.0335 77.5284C79.1667 84.3951 77.5235 92.0262 76.235 98.0102C75.8455 99.8191 75.4884 101.477 75.0293 102.919Z" fill="#2AB673"/>
<path d="M34.9964 53.3215L34.9963 53.3215L34.9981 53.3272C35.4535 54.7565 35.8084 56.4039 36.1985 58.2156L36.2006 58.225C37.4757 64.1469 39.1093 71.7335 45.8418 78.5891C45.8057 78.6073 45.7665 78.6274 45.7243 78.6494C45.4761 78.7784 45.124 78.9723 44.7051 79.2331C43.8679 79.7544 42.7616 80.5445 41.6859 81.6202C40.6102 82.6959 39.8201 83.8023 39.2988 84.6395C39.038 85.0583 38.8441 85.4104 38.7151 85.6586C38.6931 85.7008 38.673 85.7401 38.6548 85.7761C31.7992 79.0436 24.2125 77.41 18.2906 76.1349L18.2812 76.1329C16.4696 75.7428 14.8222 75.3878 13.3929 74.9324L13.3929 74.9324L13.3873 74.9307C10.6503 74.1402 8.06883 72.6665 5.91143 70.509C-0.899148 63.6985 -0.899148 52.6563 5.91143 45.8458C12.722 39.0352 23.7641 39.0352 30.5747 45.8458C32.7321 48.0031 34.2058 50.5846 34.9964 53.3215ZM81.1405 63.0333L81.1405 63.0333L81.1388 63.0276C80.6834 61.5983 80.3284 59.9509 79.9383 58.1392L79.9363 58.1299C78.6612 52.2079 77.0275 44.6213 70.2951 37.7657C70.3311 37.7475 70.3704 37.7274 70.4126 37.7054C70.6608 37.5764 71.0129 37.3825 71.4317 37.1217C72.2689 36.6004 73.3753 35.8103 74.451 34.7346C75.5267 33.6589 76.3168 32.5525 76.8381 31.7154C77.0988 31.2965 77.2928 30.9444 77.4218 30.6962C77.4438 30.654 77.4639 30.6147 77.4821 30.5787C84.3377 37.3112 91.9244 38.9448 97.8463 40.2199L97.8556 40.222C99.6673 40.6121 101.315 40.967 102.744 41.4224L102.744 41.4224L102.75 41.4241C105.487 42.2147 108.068 43.6884 110.225 45.8458C117.036 52.6563 117.036 63.6985 110.225 70.509C103.415 77.3196 92.3727 77.3196 85.5621 70.509C83.4048 68.3517 81.9311 65.7702 81.1405 63.0333ZM41.3135 13.5017L41.3136 13.5017L41.3152 13.4961C42.1058 10.7591 43.5795 8.1777 45.7369 6.02032C52.5475 -0.790262 63.5896 -0.790262 70.4002 6.02032C77.2107 12.8309 77.2107 23.873 70.4002 30.6836C68.2428 32.841 65.6613 34.3147 62.9243 35.1053L62.9243 35.1052L62.9187 35.107C61.4894 35.5624 59.842 35.9173 58.0304 36.3074L58.021 36.3094C52.0991 37.5846 44.5124 39.2182 37.6568 45.9507C37.6386 45.9146 37.6185 45.8754 37.5965 45.8331C37.4675 45.585 37.2736 45.2328 37.0128 44.814C36.4915 43.9768 35.7014 42.8704 34.6257 41.7948C33.55 40.7191 32.4437 39.9289 31.6065 39.4077C31.1876 39.1469 30.8355 38.953 30.5873 38.8239C30.5451 38.802 30.5059 38.7819 30.4698 38.7637C37.2023 31.908 38.8359 24.3214 40.111 18.3995L40.1131 18.3901C40.5032 16.5784 40.8581 14.931 41.3135 13.5017ZM74.8234 102.853L74.8233 102.853L74.8217 102.859C74.0311 105.596 72.5574 108.177 70.4 110.334C63.5894 117.145 52.5473 117.145 45.7367 110.334C38.9261 103.524 38.9261 92.4818 45.7367 85.6712C47.8941 83.5138 50.4756 82.0401 53.2125 81.2495L53.2126 81.2496L53.2182 81.2478C54.6475 80.7924 56.2948 80.4375 58.1065 80.0474L58.1159 80.0453C64.0378 78.7702 71.6244 77.1366 78.48 70.4041C78.4983 70.4402 78.5184 70.4794 78.5403 70.5217C78.6694 70.7698 78.8633 71.122 79.1241 71.5408C79.6453 72.378 80.4354 73.4844 81.5111 74.56C82.5868 75.6357 83.6932 76.4259 84.5304 76.9471C84.9492 77.2079 85.3013 77.4018 85.5495 77.5309C85.5918 77.5528 85.631 77.5729 85.667 77.5911C78.9346 84.4468 77.301 92.0334 76.0258 97.9553L76.0238 97.9647C75.6337 99.7764 75.2787 101.424 74.8234 102.853Z" stroke="black" stroke-opacity="0.1" stroke-width="0.432188" stroke-linejoin="round"/>
</svg>
