<svg width="294" height="247" viewBox="0 0 294 247" fill="none" xmlns="http://www.w3.org/2000/svg">
<rect x="0.5" y="0.5" width="293" height="246" rx="7.5" fill="url(#paint0_linear_3433_12507)"/>
<rect x="0.5" y="0.5" width="293" height="246" rx="7.5" stroke="url(#paint1_linear_3433_12507)"/>
<path d="M16.4773 18.598V17.2727H23.4403V18.598H20.7429V26H19.1747V18.598H16.4773ZM26.2571 22.1648V26H24.7145V17.2727H26.223V20.5668H26.2997C26.4531 20.1974 26.6903 19.9062 27.0114 19.6932C27.3352 19.4773 27.7472 19.3693 28.2472 19.3693C28.7017 19.3693 29.098 19.4645 29.4361 19.6548C29.7741 19.8452 30.0355 20.1236 30.2202 20.4901C30.4077 20.8565 30.5014 21.304 30.5014 21.8324V26H28.9588V22.071C28.9588 21.6307 28.8452 21.2884 28.6179 21.044C28.3935 20.7969 28.0781 20.6733 27.6719 20.6733C27.3991 20.6733 27.1548 20.733 26.9389 20.8523C26.7259 20.9687 26.5582 21.1378 26.4361 21.3594C26.3168 21.581 26.2571 21.8494 26.2571 22.1648ZM32.0739 26V19.4545H33.5696V20.5455H33.6378C33.7571 20.1676 33.9616 19.8764 34.2514 19.6719C34.544 19.4645 34.8778 19.3608 35.2528 19.3608C35.3381 19.3608 35.4332 19.3651 35.5384 19.3736C35.6463 19.3793 35.7358 19.3892 35.8068 19.4034V20.8224C35.7415 20.7997 35.6378 20.7798 35.4957 20.7628C35.3565 20.7429 35.2216 20.733 35.0909 20.733C34.8097 20.733 34.5568 20.794 34.3324 20.9162C34.1108 21.0355 33.9361 21.2017 33.8082 21.4148C33.6804 21.6278 33.6165 21.8736 33.6165 22.152V26H32.0739ZM39.4599 26.1278C38.8036 26.1278 38.2369 25.9915 37.7596 25.7188C37.2852 25.4432 36.9201 25.054 36.6644 24.5511C36.4087 24.0455 36.2809 23.4503 36.2809 22.7656C36.2809 22.0923 36.4087 21.5014 36.6644 20.9929C36.9229 20.4815 37.2837 20.0838 37.7468 19.7997C38.2099 19.5128 38.7539 19.3693 39.3789 19.3693C39.7823 19.3693 40.163 19.4347 40.521 19.5653C40.8817 19.6932 41.1999 19.892 41.4755 20.1619C41.7539 20.4318 41.9727 20.7756 42.1317 21.1932C42.2908 21.608 42.3704 22.1023 42.3704 22.6761V23.1491H37.0053V22.1094H40.8917C40.8888 21.8139 40.8249 21.5511 40.6999 21.321C40.5749 21.0881 40.4002 20.9048 40.1758 20.7713C39.9542 20.6378 39.6957 20.571 39.4002 20.571C39.0849 20.571 38.8079 20.6477 38.5692 20.8011C38.3306 20.9517 38.1445 21.1506 38.011 21.3977C37.8803 21.642 37.8136 21.9105 37.8107 22.2031V23.1108C37.8107 23.4915 37.8803 23.8182 38.0195 24.0909C38.1587 24.3608 38.3533 24.5682 38.6033 24.7131C38.8533 24.8551 39.146 24.9261 39.4812 24.9261C39.7056 24.9261 39.9087 24.8949 40.0906 24.8324C40.2724 24.767 40.43 24.6719 40.5636 24.5469C40.6971 24.4219 40.7979 24.267 40.8661 24.0824L42.3065 24.2443C42.2156 24.625 42.0423 24.9574 41.7866 25.2415C41.5337 25.5227 41.2099 25.7415 40.815 25.8977C40.4201 26.0511 39.9684 26.1278 39.4599 26.1278ZM45.5589 26.1321C45.1442 26.1321 44.7706 26.0582 44.4382 25.9105C44.1087 25.7599 43.8473 25.5384 43.6541 25.2457C43.4638 24.9531 43.3686 24.5923 43.3686 24.1634C43.3686 23.794 43.4368 23.4886 43.5732 23.2472C43.7095 23.0057 43.8956 22.8125 44.1314 22.6676C44.3672 22.5227 44.6328 22.4134 44.9283 22.3395C45.2266 22.2628 45.5348 22.2074 45.853 22.1733C46.2365 22.1335 46.5476 22.098 46.7862 22.0668C47.0249 22.0327 47.1982 21.9815 47.3061 21.9134C47.4169 21.8423 47.4723 21.733 47.4723 21.5852V21.5597C47.4723 21.2386 47.3771 20.9901 47.1868 20.8139C46.9964 20.6378 46.7223 20.5497 46.3643 20.5497C45.9865 20.5497 45.6868 20.6321 45.4652 20.7969C45.2464 20.9616 45.0987 21.1562 45.022 21.3807L43.5817 21.1761C43.6953 20.7784 43.8828 20.446 44.1442 20.179C44.4055 19.9091 44.7251 19.7074 45.103 19.5739C45.4808 19.4375 45.8984 19.3693 46.3558 19.3693C46.6712 19.3693 46.9851 19.4062 47.2976 19.4801C47.6101 19.554 47.8956 19.6761 48.1541 19.8466C48.4126 20.0142 48.62 20.2429 48.7763 20.5327C48.9354 20.8224 49.0149 21.1847 49.0149 21.6193V26H47.532V25.1009H47.4808C47.3871 25.2827 47.255 25.4531 47.0845 25.6122C46.9169 25.7685 46.7053 25.8949 46.4496 25.9915C46.1967 26.0852 45.8999 26.1321 45.5589 26.1321ZM45.9595 24.9986C46.2692 24.9986 46.5376 24.9375 46.7649 24.8153C46.9922 24.6903 47.1669 24.5256 47.2891 24.321C47.4141 24.1165 47.4766 23.8935 47.4766 23.652V22.8807C47.4283 22.9205 47.3459 22.9574 47.2294 22.9915C47.1158 23.0256 46.9879 23.0554 46.8459 23.081C46.7038 23.1065 46.5632 23.1293 46.424 23.1491C46.2848 23.169 46.1641 23.1861 46.0618 23.2003C45.8317 23.2315 45.6257 23.2827 45.4439 23.3537C45.2621 23.4247 45.1186 23.5241 45.0135 23.652C44.9084 23.777 44.8558 23.9389 44.8558 24.1378C44.8558 24.4219 44.9595 24.6364 45.1669 24.7812C45.3743 24.9261 45.6385 24.9986 45.9595 24.9986ZM52.995 26.1151C52.4808 26.1151 52.0206 25.983 51.6143 25.7188C51.2081 25.4545 50.8871 25.071 50.6513 24.5682C50.4155 24.0653 50.2976 23.4545 50.2976 22.7358C50.2976 22.0085 50.4169 21.3949 50.6555 20.8949C50.897 20.392 51.2223 20.0128 51.6314 19.7571C52.0405 19.4986 52.4964 19.3693 52.9993 19.3693C53.3828 19.3693 53.6982 19.4347 53.9453 19.5653C54.1925 19.6932 54.3885 19.848 54.5334 20.0298C54.6783 20.2088 54.7905 20.3778 54.87 20.5369H54.9339V17.2727H56.4808V26H54.9638V24.9688H54.87C54.7905 25.1278 54.6754 25.2969 54.5249 25.4759C54.3743 25.652 54.1754 25.8026 53.9283 25.9276C53.6811 26.0526 53.37 26.1151 52.995 26.1151ZM53.4254 24.8494C53.7521 24.8494 54.0305 24.7614 54.2607 24.5852C54.4908 24.4062 54.6655 24.1577 54.7848 23.8395C54.9041 23.5213 54.9638 23.1506 54.9638 22.7273C54.9638 22.304 54.9041 21.9361 54.7848 21.6236C54.6683 21.3111 54.495 21.0682 54.2649 20.8949C54.0376 20.7216 53.7578 20.6349 53.4254 20.6349C53.0817 20.6349 52.7947 20.7244 52.5646 20.9034C52.3345 21.0824 52.1612 21.3295 52.0447 21.6449C51.9283 21.9602 51.87 22.321 51.87 22.7273C51.87 23.1364 51.9283 23.5014 52.0447 23.8224C52.1641 24.1406 52.3388 24.392 52.5689 24.5767C52.8018 24.7585 53.0874 24.8494 53.4254 24.8494Z" fill="#F5F5F5"/>
<rect x="66" y="10" width="61" height="24" rx="4" fill="white" fill-opacity="0.06"/>
<g clip-path="url(#clip0_3433_12507)">
<path d="M77.25 22.5L77.6422 23.2845C77.775 23.5499 77.8413 23.6827 77.93 23.7977C78.0087 23.8998 78.1002 23.9913 78.2023 24.07C78.3173 24.1587 78.4501 24.225 78.7155 24.3578L79.5 24.75L78.7155 25.1422C78.4501 25.275 78.3173 25.3413 78.2023 25.43C78.1002 25.5087 78.0087 25.6002 77.93 25.7023C77.8413 25.8173 77.775 25.9501 77.6422 26.2155L77.25 27L76.8578 26.2155C76.725 25.9501 76.6587 25.8173 76.57 25.7023C76.4913 25.6002 76.3998 25.5087 76.2977 25.43C76.1827 25.3413 76.0499 25.275 75.7845 25.1422L75 24.75L75.7845 24.3578C76.0499 24.225 76.1827 24.1587 76.2977 24.07C76.3998 23.9913 76.4913 23.8998 76.57 23.7977C76.6587 23.6827 76.725 23.5499 76.8578 23.2845L77.25 22.5Z" fill="#D4D4D4"/>
<path d="M81.5 17L82.0893 18.5322C82.2303 18.8988 82.3008 19.0821 82.4105 19.2363C82.5076 19.373 82.627 19.4924 82.7637 19.5895C82.9179 19.6992 83.1012 19.7697 83.4678 19.9107L85 20.5L83.4678 21.0893C83.1012 21.2303 82.9179 21.3008 82.7637 21.4105C82.627 21.5076 82.5076 21.627 82.4105 21.7637C82.3008 21.9179 82.2303 22.1012 82.0893 22.4678L81.5 24L80.9107 22.4678C80.7697 22.1012 80.6992 21.9179 80.5895 21.7637C80.4924 21.627 80.373 21.5076 80.2363 21.4105C80.0821 21.3008 79.8988 21.2303 79.5322 21.0893L78 20.5L79.5322 19.9107C79.8988 19.7697 80.0821 19.6992 80.2363 19.5895C80.373 19.4924 80.4924 19.373 80.5895 19.2363C80.6992 19.0821 80.7697 18.8988 80.9107 18.5322L81.5 17Z" fill="#D4D4D4"/>
<path d="M77.25 22.5L77.6422 23.2845C77.775 23.5499 77.8413 23.6827 77.93 23.7977C78.0087 23.8998 78.1002 23.9913 78.2023 24.07C78.3173 24.1587 78.4501 24.225 78.7155 24.3578L79.5 24.75L78.7155 25.1422C78.4501 25.275 78.3173 25.3413 78.2023 25.43C78.1002 25.5087 78.0087 25.6002 77.93 25.7023C77.8413 25.8173 77.775 25.9501 77.6422 26.2155L77.25 27L76.8578 26.2155C76.725 25.9501 76.6587 25.8173 76.57 25.7023C76.4913 25.6002 76.3998 25.5087 76.2977 25.43C76.1827 25.3413 76.0499 25.275 75.7845 25.1422L75 24.75L75.7845 24.3578C76.0499 24.225 76.1827 24.1587 76.2977 24.07C76.3998 23.9913 76.4913 23.8998 76.57 23.7977C76.6587 23.6827 76.725 23.5499 76.8578 23.2845L77.25 22.5Z" stroke="#D4D4D4" stroke-width="0.4" stroke-linecap="round" stroke-linejoin="round"/>
<path d="M81.5 17L82.0893 18.5322C82.2303 18.8988 82.3008 19.0821 82.4105 19.2363C82.5076 19.373 82.627 19.4924 82.7637 19.5895C82.9179 19.6992 83.1012 19.7697 83.4678 19.9107L85 20.5L83.4678 21.0893C83.1012 21.2303 82.9179 21.3008 82.7637 21.4105C82.627 21.5076 82.5076 21.627 82.4105 21.7637C82.3008 21.9179 82.2303 22.1012 82.0893 22.4678L81.5 24L80.9107 22.4678C80.7697 22.1012 80.6992 21.9179 80.5895 21.7637C80.4924 21.627 80.373 21.5076 80.2363 21.4105C80.0821 21.3008 79.8988 21.2303 79.5322 21.0893L78 20.5L79.5322 19.9107C79.8988 19.7697 80.0821 19.6992 80.2363 19.5895C80.373 19.4924 80.4924 19.373 80.5895 19.2363C80.6992 19.0821 80.7697 18.8988 80.9107 18.5322L81.5 17Z" stroke="#D4D4D4" stroke-width="0.4" stroke-linecap="round" stroke-linejoin="round"/>
</g>
<path d="M90.799 26V18.7273H91.8608V21.4297H91.9247C91.9863 21.3161 92.075 21.1847 92.1911 21.0355C92.3071 20.8864 92.468 20.7562 92.674 20.6449C92.88 20.5312 93.1522 20.4744 93.4908 20.4744C93.9311 20.4744 94.3241 20.5857 94.6697 20.8082C95.0154 21.0308 95.2865 21.3516 95.483 21.7706C95.6818 22.1896 95.7812 22.6939 95.7812 23.2834C95.7812 23.8729 95.683 24.3783 95.4865 24.7997C95.29 25.2187 95.0201 25.5419 94.6768 25.7692C94.3336 25.9941 93.9418 26.1065 93.5014 26.1065C93.17 26.1065 92.8989 26.0509 92.6882 25.9396C92.4799 25.8284 92.3165 25.6982 92.1982 25.549C92.0798 25.3999 91.9886 25.2673 91.9247 25.1513H91.8359V26H90.799ZM91.8395 23.2727C91.8395 23.6562 91.8951 23.9924 92.0064 24.2812C92.1177 24.5701 92.2786 24.7962 92.4893 24.9595C92.7 25.1205 92.9581 25.201 93.2635 25.201C93.5807 25.201 93.8459 25.117 94.0589 24.9489C94.272 24.7784 94.433 24.5476 94.5419 24.2564C94.6532 23.9652 94.7088 23.6373 94.7088 23.2727C94.7088 22.9129 94.6544 22.5897 94.5455 22.3033C94.4389 22.0168 94.2779 21.7907 94.0625 21.625C93.8494 21.4593 93.5831 21.3764 93.2635 21.3764C92.9557 21.3764 92.6953 21.4557 92.4822 21.6143C92.2715 21.773 92.1117 21.9943 92.0028 22.2784C91.8939 22.5625 91.8395 22.8939 91.8395 23.2727ZM96.9735 26V20.5455H98.0353V26H96.9735ZM97.5098 19.7038C97.3251 19.7038 97.1665 19.6423 97.0339 19.5192C96.9037 19.3937 96.8386 19.2446 96.8386 19.0717C96.8386 18.8965 96.9037 18.7474 97.0339 18.6243C97.1665 18.4988 97.3251 18.4361 97.5098 18.4361C97.6944 18.4361 97.8519 18.4988 97.9821 18.6243C98.1146 18.7474 98.1809 18.8965 98.1809 19.0717C98.1809 19.2446 98.1146 19.3937 97.9821 19.5192C97.8519 19.6423 97.6944 19.7038 97.5098 19.7038ZM100.526 18.7273V26H99.4638V18.7273H100.526ZM103.016 18.7273V26H101.954V18.7273H103.016ZM104.444 26V20.5455H105.506V26H104.444ZM104.98 19.7038C104.796 19.7038 104.637 19.6423 104.505 19.5192C104.374 19.3937 104.309 19.2446 104.309 19.0717C104.309 18.8965 104.374 18.7474 104.505 18.6243C104.637 18.4988 104.796 18.4361 104.98 18.4361C105.165 18.4361 105.323 18.4988 105.453 18.6243C105.585 18.7474 105.652 18.8965 105.652 19.0717C105.652 19.2446 105.585 19.3937 105.453 19.5192C105.323 19.6423 105.165 19.7038 104.98 19.7038ZM107.996 22.7614V26H106.934V20.5455H107.954V21.4332H108.021C108.147 21.1444 108.343 20.9124 108.611 20.7372C108.881 20.562 109.22 20.4744 109.63 20.4744C110.001 20.4744 110.327 20.5526 110.606 20.7088C110.886 20.8627 111.102 21.0923 111.256 21.3977C111.41 21.7031 111.487 22.0807 111.487 22.5305V26H110.425V22.6584C110.425 22.263 110.322 21.9541 110.116 21.7315C109.91 21.5066 109.627 21.3942 109.268 21.3942C109.021 21.3942 108.802 21.4474 108.611 21.554C108.421 21.6605 108.271 21.8168 108.16 22.0227C108.051 22.2263 107.996 22.4725 107.996 22.7614ZM115.198 28.1591C114.765 28.1591 114.392 28.1023 114.079 27.9886C113.769 27.875 113.516 27.7247 113.319 27.5376C113.123 27.3506 112.976 27.1458 112.879 26.9233L113.792 26.5469C113.856 26.651 113.941 26.7611 114.047 26.8771C114.156 26.9955 114.303 27.0961 114.488 27.179C114.675 27.2618 114.915 27.3033 115.209 27.3033C115.611 27.3033 115.944 27.205 116.206 27.0085C116.469 26.8144 116.601 26.5043 116.601 26.0781V25.0057H116.533C116.469 25.1217 116.377 25.2507 116.256 25.3928C116.138 25.5348 115.974 25.6579 115.766 25.7621C115.558 25.8662 115.287 25.9183 114.953 25.9183C114.522 25.9183 114.134 25.8177 113.788 25.6165C113.445 25.4129 113.173 25.1134 112.971 24.718C112.773 24.3203 112.673 23.8314 112.673 23.2514C112.673 22.6714 112.771 22.1742 112.968 21.7599C113.167 21.3456 113.439 21.0284 113.785 20.8082C114.13 20.5857 114.522 20.4744 114.96 20.4744C115.299 20.4744 115.572 20.5312 115.78 20.6449C115.989 20.7562 116.151 20.8864 116.267 21.0355C116.385 21.1847 116.476 21.3161 116.54 21.4297H116.618V20.5455H117.659V26.1207C117.659 26.5895 117.55 26.9742 117.332 27.2749C117.114 27.5755 116.82 27.7981 116.448 27.9425C116.079 28.0869 115.662 28.1591 115.198 28.1591ZM115.187 25.0376C115.493 25.0376 115.751 24.9666 115.961 24.8246C116.175 24.6802 116.336 24.4742 116.444 24.2067C116.556 23.9368 116.611 23.6136 116.611 23.2372C116.611 22.8703 116.557 22.5471 116.448 22.2678C116.339 21.9884 116.179 21.7706 115.969 21.6143C115.758 21.4557 115.497 21.3764 115.187 21.3764C114.868 21.3764 114.601 21.4593 114.388 21.625C114.175 21.7884 114.014 22.0109 113.905 22.2926C113.799 22.5743 113.746 22.8892 113.746 23.2372C113.746 23.5947 113.8 23.9084 113.909 24.1783C114.018 24.4482 114.179 24.6589 114.392 24.8104C114.607 24.9619 114.872 25.0376 115.187 25.0376Z" fill="#D4D4D4"/>
<rect x="131" y="10" width="70" height="24" rx="4" fill="white" fill-opacity="0.06"/>
<g clip-path="url(#clip1_3433_12507)">
<path d="M142.25 22.5L142.642 23.2845C142.775 23.5499 142.841 23.6827 142.93 23.7977C143.009 23.8998 143.1 23.9913 143.202 24.07C143.317 24.1587 143.45 24.225 143.716 24.3578L144.5 24.75L143.716 25.1422C143.45 25.275 143.317 25.3413 143.202 25.43C143.1 25.5087 143.009 25.6002 142.93 25.7023C142.841 25.8173 142.775 25.9501 142.642 26.2155L142.25 27L141.858 26.2155C141.725 25.9501 141.659 25.8173 141.57 25.7023C141.491 25.6002 141.4 25.5087 141.298 25.43C141.183 25.3413 141.05 25.275 140.784 25.1422L140 24.75L140.784 24.3578C141.05 24.225 141.183 24.1587 141.298 24.07C141.4 23.9913 141.491 23.8998 141.57 23.7977C141.659 23.6827 141.725 23.5499 141.858 23.2845L142.25 22.5Z" fill="#D4D4D4"/>
<path d="M146.5 17L147.089 18.5322C147.23 18.8988 147.301 19.0821 147.41 19.2363C147.508 19.373 147.627 19.4924 147.764 19.5895C147.918 19.6992 148.101 19.7697 148.468 19.9107L150 20.5L148.468 21.0893C148.101 21.2303 147.918 21.3008 147.764 21.4105C147.627 21.5076 147.508 21.627 147.41 21.7637C147.301 21.9179 147.23 22.1012 147.089 22.4678L146.5 24L145.911 22.4678C145.77 22.1012 145.699 21.9179 145.59 21.7637C145.492 21.627 145.373 21.5076 145.236 21.4105C145.082 21.3008 144.899 21.2303 144.532 21.0893L143 20.5L144.532 19.9107C144.899 19.7697 145.082 19.6992 145.236 19.5895C145.373 19.4924 145.492 19.373 145.59 19.2363C145.699 19.0821 145.77 18.8988 145.911 18.5322L146.5 17Z" fill="#D4D4D4"/>
<path d="M142.25 22.5L142.642 23.2845C142.775 23.5499 142.841 23.6827 142.93 23.7977C143.009 23.8998 143.1 23.9913 143.202 24.07C143.317 24.1587 143.45 24.225 143.716 24.3578L144.5 24.75L143.716 25.1422C143.45 25.275 143.317 25.3413 143.202 25.43C143.1 25.5087 143.009 25.6002 142.93 25.7023C142.841 25.8173 142.775 25.9501 142.642 26.2155L142.25 27L141.858 26.2155C141.725 25.9501 141.659 25.8173 141.57 25.7023C141.491 25.6002 141.4 25.5087 141.298 25.43C141.183 25.3413 141.05 25.275 140.784 25.1422L140 24.75L140.784 24.3578C141.05 24.225 141.183 24.1587 141.298 24.07C141.4 23.9913 141.491 23.8998 141.57 23.7977C141.659 23.6827 141.725 23.5499 141.858 23.2845L142.25 22.5Z" stroke="#D4D4D4" stroke-width="0.4" stroke-linecap="round" stroke-linejoin="round"/>
<path d="M146.5 17L147.089 18.5322C147.23 18.8988 147.301 19.0821 147.41 19.2363C147.508 19.373 147.627 19.4924 147.764 19.5895C147.918 19.6992 148.101 19.7697 148.468 19.9107L150 20.5L148.468 21.0893C148.101 21.2303 147.918 21.3008 147.764 21.4105C147.627 21.5076 147.508 21.627 147.41 21.7637C147.301 21.9179 147.23 22.1012 147.089 22.4678L146.5 24L145.911 22.4678C145.77 22.1012 145.699 21.9179 145.59 21.7637C145.492 21.627 145.373 21.5076 145.236 21.4105C145.082 21.3008 144.899 21.2303 144.532 21.0893L143 20.5L144.532 19.9107C144.899 19.7697 145.082 19.6992 145.236 19.5895C145.373 19.4924 145.492 19.373 145.59 19.2363C145.699 19.0821 145.77 18.8988 145.911 18.5322L146.5 17Z" stroke="#D4D4D4" stroke-width="0.4" stroke-linecap="round" stroke-linejoin="round"/>
</g>
<path d="M155.714 28.0455V20.5455H156.751V21.4297H156.839C156.901 21.3161 156.99 21.1847 157.106 21.0355C157.222 20.8864 157.383 20.7562 157.589 20.6449C157.795 20.5312 158.067 20.4744 158.406 20.4744C158.846 20.4744 159.239 20.5857 159.585 20.8082C159.93 21.0308 160.201 21.3516 160.398 21.7706C160.597 22.1896 160.696 22.6939 160.696 23.2834C160.696 23.8729 160.598 24.3783 160.401 24.7997C160.205 25.2187 159.935 25.5419 159.592 25.7692C159.248 25.9941 158.857 26.1065 158.416 26.1065C158.085 26.1065 157.814 26.0509 157.603 25.9396C157.395 25.8284 157.231 25.6982 157.113 25.549C156.995 25.3999 156.903 25.2673 156.839 25.1513H156.776V28.0455H155.714ZM156.754 23.2727C156.754 23.6562 156.81 23.9924 156.921 24.2812C157.032 24.5701 157.193 24.7962 157.404 24.9595C157.615 25.1205 157.873 25.201 158.178 25.201C158.496 25.201 158.761 25.117 158.974 24.9489C159.187 24.7784 159.348 24.5476 159.457 24.2564C159.568 23.9652 159.624 23.6373 159.624 23.2727C159.624 22.9129 159.569 22.5897 159.46 22.3033C159.354 22.0168 159.193 21.7907 158.977 21.625C158.764 21.4593 158.498 21.3764 158.178 21.3764C157.871 21.3764 157.61 21.4557 157.397 21.6143C157.186 21.773 157.027 21.9943 156.918 22.2784C156.809 22.5625 156.754 22.8939 156.754 23.2727ZM164.183 26.1101C163.672 26.1101 163.226 25.9929 162.844 25.7585C162.463 25.5241 162.167 25.1963 161.957 24.7749C161.746 24.3535 161.641 23.861 161.641 23.2976C161.641 22.7318 161.746 22.237 161.957 21.8132C162.167 21.3894 162.463 21.0604 162.844 20.826C163.226 20.5916 163.672 20.4744 164.183 20.4744C164.695 20.4744 165.141 20.5916 165.522 20.826C165.903 21.0604 166.199 21.3894 166.41 21.8132C166.621 22.237 166.726 22.7318 166.726 23.2976C166.726 23.861 166.621 24.3535 166.41 24.7749C166.199 25.1963 165.903 25.5241 165.522 25.7585C165.141 25.9929 164.695 26.1101 164.183 26.1101ZM164.187 25.2188C164.518 25.2188 164.793 25.1312 165.011 24.956C165.228 24.7808 165.389 24.5476 165.494 24.2564C165.6 23.9652 165.653 23.6444 165.653 23.294C165.653 22.946 165.6 22.6264 165.494 22.3352C165.389 22.0417 165.228 21.8061 165.011 21.6286C164.793 21.451 164.518 21.3622 164.187 21.3622C163.853 21.3622 163.576 21.451 163.356 21.6286C163.138 21.8061 162.976 22.0417 162.869 22.3352C162.765 22.6264 162.713 22.946 162.713 23.294C162.713 23.6444 162.765 23.9652 162.869 24.2564C162.976 24.5476 163.138 24.7808 163.356 24.956C163.576 25.1312 163.853 25.2188 164.187 25.2188ZM171.998 21.8771L171.036 22.0476C170.996 21.9245 170.932 21.8073 170.844 21.696C170.759 21.5848 170.643 21.4936 170.496 21.4226C170.349 21.3516 170.166 21.3161 169.946 21.3161C169.645 21.3161 169.394 21.3835 169.193 21.5185C168.992 21.651 168.891 21.8227 168.891 22.0334C168.891 22.2157 168.959 22.3625 169.094 22.4737C169.229 22.585 169.446 22.6761 169.747 22.7472L170.613 22.946C171.115 23.062 171.489 23.2408 171.736 23.4822C171.982 23.7237 172.105 24.0374 172.105 24.4233C172.105 24.75 172.01 25.0412 171.821 25.2969C171.634 25.5502 171.372 25.7491 171.036 25.8935C170.702 26.0379 170.315 26.1101 169.875 26.1101C169.264 26.1101 168.766 25.9799 168.38 25.7195C167.994 25.4567 167.757 25.0838 167.67 24.6009L168.696 24.4446C168.76 24.7121 168.891 24.9145 169.09 25.0518C169.289 25.1868 169.548 25.2543 169.868 25.2543C170.216 25.2543 170.494 25.1821 170.702 25.0376C170.911 24.8909 171.015 24.7121 171.015 24.5014C171.015 24.331 170.951 24.1877 170.823 24.0717C170.698 23.9557 170.505 23.8681 170.244 23.8089L169.321 23.6065C168.812 23.4905 168.435 23.3059 168.192 23.0526C167.95 22.7992 167.829 22.4785 167.829 22.0902C167.829 21.7682 167.919 21.4865 168.099 21.245C168.279 21.0036 168.528 20.8153 168.845 20.6804C169.162 20.5431 169.526 20.4744 169.935 20.4744C170.525 20.4744 170.989 20.6023 171.327 20.858C171.666 21.1113 171.89 21.451 171.998 21.8771ZM173.272 26V20.5455H174.334V26H173.272ZM173.809 19.7038C173.624 19.7038 173.465 19.6423 173.333 19.5192C173.203 19.3937 173.137 19.2446 173.137 19.0717C173.137 18.8965 173.203 18.7474 173.333 18.6243C173.465 18.4988 173.624 18.4361 173.809 18.4361C173.993 18.4361 174.151 18.4988 174.281 18.6243C174.413 18.7474 174.48 18.8965 174.48 19.0717C174.48 19.2446 174.413 19.3937 174.281 19.5192C174.151 19.6423 173.993 19.7038 173.809 19.7038ZM178.309 20.5455V21.3977H175.329V20.5455H178.309ZM176.128 19.2386H177.19V24.3984C177.19 24.6044 177.221 24.7595 177.282 24.8636C177.344 24.9654 177.423 25.0353 177.52 25.0732C177.62 25.1087 177.728 25.1264 177.844 25.1264C177.929 25.1264 178.003 25.1205 178.067 25.1087C178.131 25.0968 178.181 25.0874 178.216 25.0803L178.408 25.9574C178.347 25.9811 178.259 26.0047 178.145 26.0284C178.032 26.0545 177.89 26.0687 177.719 26.071C177.44 26.0758 177.18 26.026 176.938 25.9219C176.697 25.8177 176.501 25.6567 176.352 25.4389C176.203 25.2211 176.128 24.9477 176.128 24.6186V19.2386ZM179.483 26V20.5455H180.545V26H179.483ZM180.02 19.7038C179.835 19.7038 179.676 19.6423 179.544 19.5192C179.413 19.3937 179.348 19.2446 179.348 19.0717C179.348 18.8965 179.413 18.7474 179.544 18.6243C179.676 18.4988 179.835 18.4361 180.02 18.4361C180.204 18.4361 180.362 18.4988 180.492 18.6243C180.624 18.7474 180.691 18.8965 180.691 19.0717C180.691 19.2446 180.624 19.3937 180.492 19.5192C180.362 19.6423 180.204 19.7038 180.02 19.7038ZM186.64 20.5455L184.662 26H183.525L181.544 20.5455H182.684L184.065 24.7429H184.122L185.5 20.5455H186.64ZM189.803 26.1101C189.266 26.1101 188.803 25.9953 188.414 25.7656C188.029 25.5336 187.73 25.2081 187.52 24.7891C187.311 24.3677 187.207 23.8741 187.207 23.3082C187.207 22.7495 187.311 22.2571 187.52 21.831C187.73 21.4048 188.024 21.0722 188.4 20.8331C188.779 20.594 189.222 20.4744 189.728 20.4744C190.036 20.4744 190.334 20.5253 190.623 20.6271C190.912 20.7289 191.171 20.8887 191.401 21.1065C191.631 21.3243 191.812 21.6072 191.944 21.9553C192.077 22.3009 192.143 22.7211 192.143 23.2159V23.5923H187.807V22.7969H191.103C191.103 22.5175 191.046 22.2701 190.932 22.0547C190.819 21.8369 190.659 21.6652 190.453 21.5398C190.249 21.4143 190.01 21.3516 189.735 21.3516C189.437 21.3516 189.177 21.425 188.954 21.5717C188.734 21.7161 188.564 21.9055 188.443 22.1399C188.324 22.3719 188.265 22.6241 188.265 22.8963V23.5178C188.265 23.8823 188.329 24.1925 188.457 24.4482C188.587 24.7038 188.768 24.8991 189 25.0341C189.232 25.1667 189.503 25.233 189.814 25.233C190.015 25.233 190.198 25.2045 190.364 25.1477C190.53 25.0885 190.673 25.0009 190.794 24.8849C190.914 24.7689 191.007 24.6257 191.071 24.4553L192.076 24.6364C191.995 24.9323 191.851 25.1915 191.642 25.4141C191.436 25.6342 191.177 25.8059 190.865 25.929C190.555 26.0497 190.201 26.1101 189.803 26.1101Z" fill="#D4D4D4"/>
<rect x="16.5" y="42.5" width="261" height="39" rx="5.5" stroke="#404040" stroke-opacity="0.5"/>
<path d="M30.4727 66L28.2148 58H29.7734L31.2148 63.8789H31.2891L32.8281 58H34.2461L35.7891 63.8828H35.8594L37.3008 58H38.8594L36.6016 66H35.1719L33.5703 60.3867H33.5078L31.9023 66H30.4727ZM41.2158 62.4844V66H39.8018V58H41.1846V61.0195H41.2549C41.3955 60.681 41.613 60.4141 41.9072 60.2187C42.2041 60.0208 42.5817 59.9219 43.04 59.9219C43.4567 59.9219 43.82 60.0091 44.1299 60.1836C44.4398 60.3581 44.6794 60.6133 44.8486 60.9492C45.0205 61.2852 45.1064 61.6953 45.1064 62.1797V66H43.6924V62.3984C43.6924 61.9948 43.5882 61.681 43.3799 61.457C43.1742 61.2305 42.8851 61.1172 42.5127 61.1172C42.2627 61.1172 42.0387 61.1719 41.8408 61.2812C41.6455 61.388 41.4919 61.543 41.3799 61.7461C41.2705 61.9492 41.2158 62.1953 41.2158 62.4844ZM48.2744 66.1211C47.8942 66.1211 47.5518 66.0534 47.2471 65.918C46.945 65.7799 46.7054 65.5768 46.5283 65.3086C46.3538 65.0404 46.2666 64.7096 46.2666 64.3164C46.2666 63.9779 46.3291 63.6979 46.4541 63.4766C46.5791 63.2552 46.7497 63.0781 46.9658 62.9453C47.182 62.8125 47.4255 62.7122 47.6963 62.6445C47.9697 62.5742 48.2523 62.5234 48.5439 62.4922C48.8955 62.4557 49.1807 62.4232 49.3994 62.3945C49.6182 62.3633 49.777 62.3164 49.876 62.2539C49.9775 62.1888 50.0283 62.0885 50.0283 61.9531V61.9297C50.0283 61.6354 49.9411 61.4076 49.7666 61.2461C49.5921 61.0846 49.3408 61.0039 49.0127 61.0039C48.6663 61.0039 48.3916 61.0794 48.1885 61.2305C47.988 61.3815 47.8525 61.5599 47.7822 61.7656L46.4619 61.5781C46.5661 61.2135 46.738 60.9089 46.9775 60.6641C47.2171 60.4167 47.5101 60.2318 47.8564 60.1094C48.2028 59.9844 48.5856 59.9219 49.0049 59.9219C49.2939 59.9219 49.5817 59.9557 49.8682 60.0234C50.1546 60.0911 50.4163 60.2031 50.6533 60.3594C50.8903 60.513 51.0804 60.7227 51.2236 60.9883C51.3695 61.2539 51.4424 61.5859 51.4424 61.9844V66H50.083V65.1758H50.0361C49.9502 65.3424 49.8291 65.4987 49.6729 65.6445C49.5192 65.7878 49.3252 65.9036 49.0908 65.9922C48.859 66.0781 48.5869 66.1211 48.2744 66.1211ZM48.6416 65.082C48.9255 65.082 49.1715 65.026 49.3799 64.9141C49.5882 64.7995 49.7484 64.6484 49.8604 64.4609C49.9749 64.2734 50.0322 64.069 50.0322 63.8477V63.1406C49.988 63.1771 49.9124 63.2109 49.8057 63.2422C49.7015 63.2734 49.5843 63.3008 49.4541 63.3242C49.3239 63.3477 49.195 63.3685 49.0674 63.3867C48.9398 63.4049 48.8291 63.4206 48.7354 63.4336C48.5244 63.4622 48.3356 63.5091 48.1689 63.5742C48.0023 63.6393 47.8708 63.7305 47.7744 63.8477C47.6781 63.9622 47.6299 64.1107 47.6299 64.293C47.6299 64.5534 47.7249 64.75 47.915 64.8828C48.1051 65.0156 48.3473 65.082 48.6416 65.082ZM55.8604 60V61.0937H52.4111V60H55.8604ZM53.2627 58.5625H54.6768V64.1953C54.6768 64.3854 54.7054 64.5313 54.7627 64.6328C54.8226 64.7318 54.9007 64.7995 54.9971 64.8359C55.0934 64.8724 55.2002 64.8906 55.3174 64.8906C55.4059 64.8906 55.4867 64.8841 55.5596 64.8711C55.6351 64.8581 55.6924 64.8464 55.7314 64.8359L55.9697 65.9414C55.8942 65.9674 55.7861 65.9961 55.6455 66.0273C55.5075 66.0586 55.3382 66.0768 55.1377 66.082C54.7835 66.0924 54.4645 66.0391 54.1807 65.9219C53.8968 65.8021 53.6715 65.6172 53.5049 65.3672C53.3408 65.1172 53.2601 64.8047 53.2627 64.4297V58.5625ZM59.7715 66V60H61.1855V66H59.7715ZM60.4824 59.1484C60.2585 59.1484 60.0658 59.0742 59.9043 58.9258C59.7428 58.7747 59.6621 58.5937 59.6621 58.3828C59.6621 58.1693 59.7428 57.9883 59.9043 57.8398C60.0658 57.6888 60.2585 57.6133 60.4824 57.6133C60.709 57.6133 60.9017 57.6888 61.0605 57.8398C61.222 57.9883 61.3027 58.1693 61.3027 58.3828C61.3027 58.5937 61.222 58.7747 61.0605 58.9258C60.9017 59.0742 60.709 59.1484 60.4824 59.1484ZM67.3818 61.5859L66.0928 61.7266C66.0563 61.5964 65.9925 61.474 65.9014 61.3594C65.8128 61.2448 65.693 61.1523 65.542 61.082C65.391 61.0117 65.2061 60.9766 64.9873 60.9766C64.693 60.9766 64.4456 61.0404 64.2451 61.168C64.0472 61.2956 63.9495 61.4609 63.9521 61.6641C63.9495 61.8385 64.0133 61.9805 64.1436 62.0898C64.2764 62.1992 64.4951 62.2891 64.7998 62.3594L65.8232 62.5781C66.391 62.7005 66.8128 62.8945 67.0889 63.1602C67.3675 63.4258 67.5081 63.7734 67.5107 64.2031C67.5081 64.5807 67.3975 64.9141 67.1787 65.2031C66.9626 65.4896 66.6618 65.7135 66.2764 65.875C65.891 66.0365 65.4482 66.1172 64.9482 66.1172C64.2139 66.1172 63.6227 65.9635 63.1748 65.6562C62.7269 65.3464 62.46 64.9154 62.374 64.3633L63.7529 64.2305C63.8154 64.5013 63.9482 64.7057 64.1514 64.8437C64.3545 64.9818 64.6188 65.0508 64.9443 65.0508C65.2803 65.0508 65.5498 64.9818 65.7529 64.8437C65.9587 64.7057 66.0615 64.5352 66.0615 64.332C66.0615 64.1602 65.9951 64.0182 65.8623 63.9062C65.7321 63.7943 65.529 63.7083 65.2529 63.6484L64.2295 63.4336C63.654 63.3138 63.2282 63.112 62.9521 62.8281C62.6761 62.5417 62.5394 62.1797 62.542 61.7422C62.5394 61.3724 62.6396 61.0521 62.8428 60.7812C63.0485 60.5078 63.3337 60.2969 63.6982 60.1484C64.0654 59.9974 64.4886 59.9219 64.9678 59.9219C65.6709 59.9219 66.2243 60.0716 66.6279 60.3711C67.0342 60.6706 67.2855 61.0755 67.3818 61.5859ZM74.4014 60V61.0937H70.9521V60H74.4014ZM71.8037 58.5625H73.2178V64.1953C73.2178 64.3854 73.2464 64.5313 73.3037 64.6328C73.3636 64.7318 73.4417 64.7995 73.5381 64.8359C73.6344 64.8724 73.7412 64.8906 73.8584 64.8906C73.9469 64.8906 74.0277 64.8841 74.1006 64.8711C74.1761 64.8581 74.2334 64.8464 74.2725 64.8359L74.5107 65.9414C74.4352 65.9674 74.3271 65.9961 74.1865 66.0273C74.0485 66.0586 73.8792 66.0768 73.6787 66.082C73.3245 66.0924 73.0055 66.0391 72.7217 65.9219C72.4378 65.8021 72.2126 65.6172 72.0459 65.3672C71.8818 65.1172 71.8011 64.8047 71.8037 64.4297V58.5625ZM77.127 62.4844V66H75.7129V58H77.0957V61.0195H77.166C77.3066 60.681 77.5241 60.4141 77.8184 60.2187C78.1152 60.0208 78.4928 59.9219 78.9512 59.9219C79.3678 59.9219 79.7311 60.0091 80.041 60.1836C80.3509 60.3581 80.5905 60.6133 80.7598 60.9492C80.9316 61.2852 81.0176 61.6953 81.0176 62.1797V66H79.6035V62.3984C79.6035 61.9948 79.4993 61.681 79.291 61.457C79.0853 61.2305 78.7962 61.1172 78.4238 61.1172C78.1738 61.1172 77.9499 61.1719 77.752 61.2812C77.5566 61.388 77.403 61.543 77.291 61.7461C77.1816 61.9492 77.127 62.1953 77.127 62.4844ZM85.1152 66.1172C84.5137 66.1172 83.9941 65.9922 83.5566 65.7422C83.1217 65.4896 82.7871 65.1328 82.5527 64.6719C82.3184 64.2083 82.2012 63.6628 82.2012 63.0352C82.2012 62.418 82.3184 61.8763 82.5527 61.4102C82.7897 60.9414 83.1204 60.5768 83.5449 60.3164C83.9694 60.0534 84.4681 59.9219 85.041 59.9219C85.4108 59.9219 85.7598 59.9818 86.0879 60.1016C86.4186 60.2187 86.7103 60.401 86.9629 60.6484C87.2181 60.8958 87.4186 61.2109 87.5645 61.5937C87.7103 61.974 87.7832 62.4271 87.7832 62.9531V63.3867H82.8652V62.4336H86.4277C86.4251 62.1628 86.3665 61.9219 86.252 61.7109C86.1374 61.4974 85.9772 61.3294 85.7715 61.207C85.5684 61.0846 85.3314 61.0234 85.0605 61.0234C84.7715 61.0234 84.5176 61.0937 84.2988 61.2344C84.0801 61.3724 83.9095 61.5547 83.7871 61.7812C83.6673 62.0052 83.6061 62.2513 83.6035 62.5195V63.3516C83.6035 63.7005 83.6673 64 83.7949 64.25C83.9225 64.4974 84.1009 64.6875 84.3301 64.8203C84.5592 64.9505 84.8275 65.0156 85.1348 65.0156C85.3405 65.0156 85.5267 64.987 85.6934 64.9297C85.86 64.8698 86.0046 64.7826 86.127 64.668C86.2493 64.5534 86.3418 64.4115 86.4043 64.2422L87.7246 64.3906C87.6413 64.7396 87.4824 65.0443 87.248 65.3047C87.0163 65.5625 86.7194 65.763 86.3574 65.9062C85.9954 66.0469 85.5814 66.1172 85.1152 66.1172ZM91.708 66V60H93.0791V61H93.1416C93.251 60.6536 93.4385 60.3867 93.7041 60.1992C93.9723 60.0091 94.2783 59.9141 94.6221 59.9141C94.7002 59.9141 94.7874 59.918 94.8838 59.9258C94.9827 59.931 95.0648 59.9401 95.1299 59.9531V61.2539C95.07 61.2331 94.9749 61.2148 94.8447 61.1992C94.7171 61.181 94.5934 61.1719 94.4736 61.1719C94.2158 61.1719 93.984 61.2279 93.7783 61.3398C93.5752 61.4492 93.415 61.6016 93.2979 61.7969C93.1807 61.9922 93.1221 62.2174 93.1221 62.4727V66H91.708ZM98.4785 66.1172C97.877 66.1172 97.3574 65.9922 96.9199 65.7422C96.485 65.4896 96.1504 65.1328 95.916 64.6719C95.6816 64.2083 95.5645 63.6628 95.5645 63.0352C95.5645 62.418 95.6816 61.8763 95.916 61.4102C96.153 60.9414 96.4837 60.5768 96.9082 60.3164C97.3327 60.0534 97.8314 59.9219 98.4043 59.9219C98.7741 59.9219 99.123 59.9818 99.4512 60.1016C99.7819 60.2187 100.074 60.401 100.326 60.6484C100.581 60.8958 100.782 61.2109 100.928 61.5937C101.074 61.974 101.146 62.4271 101.146 62.9531V63.3867H96.2285V62.4336H99.791C99.7884 62.1628 99.7298 61.9219 99.6152 61.7109C99.5007 61.4974 99.3405 61.3294 99.1348 61.207C98.9316 61.0846 98.6947 61.0234 98.4238 61.0234C98.1348 61.0234 97.8809 61.0937 97.6621 61.2344C97.4434 61.3724 97.2728 61.5547 97.1504 61.7812C97.0306 62.0052 96.9694 62.2513 96.9668 62.5195V63.3516C96.9668 63.7005 97.0306 64 97.1582 64.25C97.2858 64.4974 97.4642 64.6875 97.6934 64.8203C97.9225 64.9505 98.1908 65.0156 98.498 65.0156C98.7038 65.0156 98.89 64.987 99.0566 64.9297C99.2233 64.8698 99.3678 64.7826 99.4902 64.668C99.6126 64.5534 99.7051 64.4115 99.7676 64.2422L101.088 64.3906C101.005 64.7396 100.846 65.0443 100.611 65.3047C100.38 65.5625 100.083 65.763 99.7207 65.9062C99.3587 66.0469 98.9447 66.1172 98.4785 66.1172ZM105.382 60V61.0937H101.835V60H105.382ZM102.722 66V59.4336C102.722 59.0299 102.805 58.694 102.972 58.4258C103.141 58.1576 103.368 57.957 103.651 57.8242C103.935 57.6914 104.25 57.625 104.597 57.625C104.841 57.625 105.059 57.6445 105.249 57.6836C105.439 57.7227 105.58 57.7578 105.671 57.7891L105.39 58.8828C105.33 58.8646 105.254 58.8464 105.163 58.8281C105.072 58.8073 104.97 58.7969 104.858 58.7969C104.595 58.7969 104.409 58.8607 104.3 58.9883C104.193 59.1133 104.14 59.293 104.14 59.5273V66H102.722ZM110.313 63.4766V60H111.728V66H110.356V64.9336H110.294C110.159 65.2695 109.936 65.5443 109.626 65.7578C109.319 65.9714 108.94 66.0781 108.489 66.0781C108.096 66.0781 107.748 65.9909 107.446 65.8164C107.147 65.6393 106.912 65.3828 106.743 65.0469C106.574 64.7083 106.489 64.2995 106.489 63.8203V60H107.903V63.6016C107.903 63.9818 108.007 64.2839 108.216 64.5078C108.424 64.7318 108.698 64.8437 109.036 64.8437C109.244 64.8437 109.446 64.793 109.642 64.6914C109.837 64.5898 109.997 64.4388 110.122 64.2383C110.25 64.0352 110.313 63.7812 110.313 63.4766ZM114.596 62.4844V66H113.182V60H114.533V61.0195H114.604C114.742 60.6836 114.962 60.4167 115.264 60.2187C115.568 60.0208 115.945 59.9219 116.393 59.9219C116.807 59.9219 117.167 60.0104 117.475 60.1875C117.785 60.3646 118.024 60.6211 118.193 60.957C118.365 61.293 118.45 61.7005 118.447 62.1797V66H117.033V62.3984C117.033 61.9974 116.929 61.6836 116.721 61.457C116.515 61.2305 116.23 61.1172 115.865 61.1172C115.618 61.1172 115.398 61.1719 115.205 61.2812C115.015 61.388 114.865 61.543 114.756 61.7461C114.649 61.9492 114.596 62.1953 114.596 62.4844ZM122.111 66.1055C121.64 66.1055 121.218 65.9844 120.846 65.7422C120.473 65.5 120.179 65.1484 119.963 64.6875C119.747 64.2266 119.639 63.6667 119.639 63.0078C119.639 62.3411 119.748 61.7786 119.967 61.3203C120.188 60.8594 120.486 60.5117 120.861 60.2773C121.236 60.0404 121.654 59.9219 122.115 59.9219C122.467 59.9219 122.756 59.9818 122.982 60.1016C123.209 60.2187 123.389 60.3607 123.521 60.5273C123.654 60.6914 123.757 60.8464 123.83 60.9922H123.889V58H125.307V66H123.916V65.0547H123.83C123.757 65.2005 123.652 65.3555 123.514 65.5195C123.376 65.681 123.193 65.819 122.967 65.9336C122.74 66.0482 122.455 66.1055 122.111 66.1055ZM122.506 64.9453C122.805 64.9453 123.061 64.8646 123.271 64.7031C123.482 64.5391 123.643 64.3112 123.752 64.0195C123.861 63.7279 123.916 63.388 123.916 63C123.916 62.612 123.861 62.2747 123.752 61.9883C123.645 61.7018 123.486 61.4792 123.275 61.3203C123.067 61.1615 122.811 61.082 122.506 61.082C122.191 61.082 121.928 61.1641 121.717 61.3281C121.506 61.4922 121.347 61.7187 121.24 62.0078C121.133 62.2969 121.08 62.6276 121.08 63C121.08 63.375 121.133 63.7096 121.24 64.0039C121.35 64.2956 121.51 64.526 121.721 64.6953C121.934 64.862 122.196 64.9453 122.506 64.9453ZM129.542 68.25V60H130.933V60.9922H131.015C131.088 60.8464 131.19 60.6914 131.323 60.5273C131.456 60.3607 131.636 60.2187 131.862 60.1016C132.089 59.9818 132.378 59.9219 132.729 59.9219C133.193 59.9219 133.611 60.0404 133.983 60.2773C134.358 60.5117 134.655 60.8594 134.874 61.3203C135.095 61.7786 135.206 62.3411 135.206 63.0078C135.206 63.6667 135.098 64.2266 134.882 64.6875C134.666 65.1484 134.371 65.5 133.999 65.7422C133.627 65.9844 133.205 66.1055 132.733 66.1055C132.39 66.1055 132.104 66.0482 131.878 65.9336C131.651 65.819 131.469 65.681 131.331 65.5195C131.196 65.3555 131.09 65.2005 131.015 65.0547H130.956V68.25H129.542ZM130.929 63C130.929 63.388 130.983 63.7279 131.093 64.0195C131.205 64.3112 131.365 64.5391 131.573 64.7031C131.784 64.8646 132.039 64.9453 132.339 64.9453C132.651 64.9453 132.913 64.862 133.124 64.6953C133.335 64.526 133.494 64.2956 133.601 64.0039C133.71 63.7096 133.765 63.375 133.765 63C133.765 62.6276 133.711 62.2969 133.604 62.0078C133.498 61.7187 133.339 61.4922 133.128 61.3281C132.917 61.1641 132.654 61.082 132.339 61.082C132.037 61.082 131.78 61.1615 131.569 61.3203C131.358 61.4792 131.198 61.7018 131.089 61.9883C130.982 62.2747 130.929 62.612 130.929 63ZM139.034 66.1172C138.448 66.1172 137.94 65.9883 137.511 65.7305C137.081 65.4727 136.748 65.112 136.511 64.6484C136.276 64.1849 136.159 63.6432 136.159 63.0234C136.159 62.4036 136.276 61.8607 136.511 61.3945C136.748 60.9284 137.081 60.5664 137.511 60.3086C137.94 60.0508 138.448 59.9219 139.034 59.9219C139.62 59.9219 140.128 60.0508 140.558 60.3086C140.987 60.5664 141.319 60.9284 141.554 61.3945C141.791 61.8607 141.909 62.4036 141.909 63.0234C141.909 63.6432 141.791 64.1849 141.554 64.6484C141.319 65.112 140.987 65.4727 140.558 65.7305C140.128 65.9883 139.62 66.1172 139.034 66.1172ZM139.042 64.9844C139.36 64.9844 139.625 64.8971 139.839 64.7227C140.052 64.5456 140.211 64.3086 140.315 64.0117C140.422 63.7148 140.476 63.3841 140.476 63.0195C140.476 62.6523 140.422 62.3203 140.315 62.0234C140.211 61.724 140.052 61.4857 139.839 61.3086C139.625 61.1315 139.36 61.043 139.042 61.043C138.716 61.043 138.446 61.1315 138.229 61.3086C138.016 61.4857 137.856 61.724 137.749 62.0234C137.645 62.3203 137.593 62.6523 137.593 63.0195C137.593 63.3841 137.645 63.7148 137.749 64.0117C137.856 64.3086 138.016 64.5456 138.229 64.7227C138.446 64.8971 138.716 64.9844 139.042 64.9844ZM144.523 58V66H143.109V58H144.523ZM145.978 66V60H147.392V66H145.978ZM146.688 59.1484C146.465 59.1484 146.272 59.0742 146.11 58.9258C145.949 58.7747 145.868 58.5937 145.868 58.3828C145.868 58.1693 145.949 57.9883 146.11 57.8398C146.272 57.6888 146.465 57.6133 146.688 57.6133C146.915 57.6133 147.108 57.6888 147.267 57.8398C147.428 57.9883 147.509 58.1693 147.509 58.3828C147.509 58.5937 147.428 58.7747 147.267 58.9258C147.108 59.0742 146.915 59.1484 146.688 59.1484ZM151.463 66.1172C150.864 66.1172 150.35 65.9857 149.92 65.7227C149.493 65.4596 149.163 65.0964 148.932 64.6328C148.702 64.1667 148.588 63.6302 148.588 63.0234C148.588 62.4141 148.705 61.8763 148.939 61.4102C149.174 60.9414 149.505 60.5768 149.932 60.3164C150.361 60.0534 150.869 59.9219 151.455 59.9219C151.942 59.9219 152.373 60.0117 152.748 60.1914C153.126 60.3685 153.426 60.6198 153.65 60.9453C153.874 61.2682 154.002 61.6458 154.033 62.0781H152.682C152.627 61.7891 152.497 61.5482 152.291 61.3555C152.088 61.1602 151.816 61.0625 151.475 61.0625C151.186 61.0625 150.932 61.1406 150.713 61.2969C150.494 61.4505 150.324 61.6719 150.201 61.9609C150.081 62.25 150.021 62.5964 150.021 63C150.021 63.4089 150.081 63.7604 150.201 64.0547C150.321 64.3464 150.489 64.5716 150.705 64.7305C150.924 64.8867 151.18 64.9648 151.475 64.9648C151.683 64.9648 151.869 64.9258 152.033 64.8477C152.2 64.7669 152.339 64.651 152.451 64.5C152.563 64.349 152.64 64.1654 152.682 63.9492H154.033C153.999 64.3737 153.874 64.75 153.658 65.0781C153.442 65.4036 153.148 65.6589 152.775 65.8437C152.403 66.026 151.965 66.1172 151.463 66.1172ZM156.073 68.25C155.881 68.25 155.702 68.2344 155.538 68.2031C155.377 68.1745 155.248 68.1406 155.151 68.1016L155.479 67C155.685 67.0599 155.869 67.0885 156.03 67.0859C156.192 67.0833 156.334 67.0326 156.456 66.9336C156.581 66.8372 156.687 66.6758 156.772 66.4492L156.894 66.125L154.718 60H156.218L157.601 64.5312H157.663L159.05 60H160.554L158.151 66.7266C158.039 67.0443 157.891 67.3164 157.706 67.543C157.521 67.7721 157.295 67.9466 157.026 68.0664C156.761 68.1888 156.443 68.25 156.073 68.25ZM162.884 63.6484V63.5469C162.886 63.0755 162.931 62.7005 163.017 62.4219C163.105 62.1432 163.23 61.9193 163.392 61.75C163.553 61.5781 163.75 61.4206 163.981 61.2773C164.14 61.1784 164.282 61.0703 164.407 60.9531C164.535 60.8333 164.635 60.7005 164.708 60.5547C164.781 60.4062 164.817 60.2409 164.817 60.0586C164.817 59.8529 164.769 59.6745 164.673 59.5234C164.576 59.3724 164.446 59.2552 164.282 59.1719C164.121 59.0885 163.94 59.0469 163.739 59.0469C163.554 59.0469 163.379 59.0872 163.212 59.168C163.048 59.2461 162.911 59.3659 162.802 59.5273C162.695 59.6862 162.635 59.888 162.622 60.1328H161.231C161.244 59.638 161.364 59.224 161.591 58.8906C161.82 58.5573 162.122 58.3073 162.497 58.1406C162.875 57.974 163.291 57.8906 163.747 57.8906C164.244 57.8906 164.682 57.9779 165.06 58.1523C165.44 58.3268 165.735 58.5755 165.946 58.8984C166.16 59.2187 166.267 59.599 166.267 60.0391C166.267 60.3359 166.218 60.6016 166.122 60.8359C166.028 61.0703 165.894 61.2786 165.72 61.4609C165.545 61.6432 165.338 61.806 165.099 61.9492C164.888 62.0794 164.715 62.2148 164.579 62.3555C164.446 62.4961 164.347 62.6615 164.282 62.8516C164.22 63.0391 164.187 63.2708 164.185 63.5469V63.6484H162.884ZM163.563 66.0859C163.329 66.0859 163.127 66.0026 162.958 65.8359C162.789 65.6693 162.704 65.4661 162.704 65.2266C162.704 64.9922 162.789 64.7917 162.958 64.625C163.127 64.4583 163.329 64.375 163.563 64.375C163.795 64.375 163.996 64.4583 164.165 64.625C164.337 64.7917 164.423 64.9922 164.423 65.2266C164.423 65.3854 164.382 65.5299 164.302 65.6602C164.224 65.7904 164.119 65.8945 163.989 65.9727C163.862 66.0482 163.72 66.0859 163.563 66.0859Z" fill="#E5E5E5"/>
<rect x="16.5" y="86.5" width="261" height="150" rx="5.5" stroke="#404040" stroke-opacity="0.5"/>
<path d="M29.8164 110H28.2695L31.0859 102H32.875L35.6953 110H34.1484L32.0117 103.641H31.9492L29.8164 110ZM29.8672 106.863H34.0859V108.027H29.8672V106.863ZM39.1133 112.375C38.6055 112.375 38.1693 112.306 37.8047 112.168C37.4401 112.033 37.1471 111.85 36.9258 111.621C36.7044 111.392 36.5508 111.138 36.4648 110.859L37.7383 110.551C37.7956 110.668 37.8789 110.784 37.9883 110.898C38.0977 111.016 38.2448 111.112 38.4297 111.188C38.6172 111.266 38.8529 111.305 39.1367 111.305C39.5378 111.305 39.8698 111.207 40.1328 111.012C40.3958 110.819 40.5273 110.501 40.5273 110.059V108.922H40.457C40.3841 109.068 40.2773 109.217 40.1367 109.371C39.9987 109.525 39.8151 109.654 39.5859 109.758C39.3594 109.862 39.0742 109.914 38.7305 109.914C38.2695 109.914 37.8516 109.806 37.4766 109.59C37.1042 109.371 36.8073 109.046 36.5859 108.613C36.3672 108.178 36.2578 107.634 36.2578 106.98C36.2578 106.322 36.3672 105.766 36.5859 105.312C36.8073 104.857 37.1055 104.512 37.4805 104.277C37.8555 104.04 38.2734 103.922 38.7344 103.922C39.0859 103.922 39.375 103.982 39.6016 104.102C39.8307 104.219 40.013 104.361 40.1484 104.527C40.2839 104.691 40.3867 104.846 40.457 104.992H40.5352V104H41.9297V110.098C41.9297 110.611 41.8073 111.035 41.5625 111.371C41.3177 111.707 40.9831 111.958 40.5586 112.125C40.1341 112.292 39.6523 112.375 39.1133 112.375ZM39.125 108.805C39.4245 108.805 39.6797 108.732 39.8906 108.586C40.1016 108.44 40.2617 108.23 40.3711 107.957C40.4805 107.684 40.5352 107.355 40.5352 106.973C40.5352 106.595 40.4805 106.264 40.3711 105.98C40.2643 105.697 40.1055 105.477 39.8945 105.32C39.6862 105.161 39.4297 105.082 39.125 105.082C38.8099 105.082 38.5469 105.164 38.3359 105.328C38.125 105.492 37.9661 105.717 37.8594 106.004C37.7526 106.288 37.6992 106.611 37.6992 106.973C37.6992 107.34 37.7526 107.661 37.8594 107.938C37.9688 108.211 38.1289 108.424 38.3398 108.578C38.5534 108.729 38.8151 108.805 39.125 108.805ZM46.0352 110.117C45.4336 110.117 44.9141 109.992 44.4766 109.742C44.0417 109.49 43.707 109.133 43.4727 108.672C43.2383 108.208 43.1211 107.663 43.1211 107.035C43.1211 106.418 43.2383 105.876 43.4727 105.41C43.7096 104.941 44.0404 104.577 44.4648 104.316C44.8893 104.053 45.388 103.922 45.9609 103.922C46.3307 103.922 46.6797 103.982 47.0078 104.102C47.3385 104.219 47.6302 104.401 47.8828 104.648C48.138 104.896 48.3385 105.211 48.4844 105.594C48.6302 105.974 48.7031 106.427 48.7031 106.953V107.387H43.7852V106.434H47.3477C47.3451 106.163 47.2865 105.922 47.1719 105.711C47.0573 105.497 46.8971 105.329 46.6914 105.207C46.4883 105.085 46.2513 105.023 45.9805 105.023C45.6914 105.023 45.4375 105.094 45.2188 105.234C45 105.372 44.8294 105.555 44.707 105.781C44.5872 106.005 44.526 106.251 44.5234 106.52V107.352C44.5234 107.701 44.5872 108 44.7148 108.25C44.8424 108.497 45.0208 108.687 45.25 108.82C45.4792 108.951 45.7474 109.016 46.0547 109.016C46.2604 109.016 46.4466 108.987 46.6133 108.93C46.7799 108.87 46.9245 108.783 47.0469 108.668C47.1693 108.553 47.2617 108.411 47.3242 108.242L48.6445 108.391C48.5612 108.74 48.4023 109.044 48.168 109.305C47.9362 109.562 47.6393 109.763 47.2773 109.906C46.9154 110.047 46.5013 110.117 46.0352 110.117ZM51.3135 106.484V110H49.8994V104H51.251V105.02H51.3213C51.4593 104.684 51.6794 104.417 51.9814 104.219C52.2861 104.021 52.6624 103.922 53.1104 103.922C53.5244 103.922 53.8851 104.01 54.1924 104.187C54.5023 104.365 54.7419 104.621 54.9111 104.957C55.083 105.293 55.1676 105.701 55.165 106.18V110H53.751V106.398C53.751 105.997 53.6468 105.684 53.4385 105.457C53.2327 105.23 52.9476 105.117 52.583 105.117C52.3356 105.117 52.1156 105.172 51.9229 105.281C51.7327 105.388 51.583 105.543 51.4736 105.746C51.3669 105.949 51.3135 106.195 51.3135 106.484ZM59.5986 104V105.094H56.1494V104H59.5986ZM57.001 102.562H58.415V108.195C58.415 108.385 58.4437 108.531 58.501 108.633C58.5609 108.732 58.639 108.799 58.7354 108.836C58.8317 108.872 58.9385 108.891 59.0557 108.891C59.1442 108.891 59.2249 108.884 59.2979 108.871C59.3734 108.858 59.4307 108.846 59.4697 108.836L59.708 109.941C59.6325 109.967 59.5244 109.996 59.3838 110.027C59.2458 110.059 59.0765 110.077 58.876 110.082C58.5218 110.092 58.2028 110.039 57.9189 109.922C57.6351 109.802 57.4098 109.617 57.2432 109.367C57.0791 109.117 56.9984 108.805 57.001 108.43V102.562ZM63.5723 110V102H66.5723C67.1868 102 67.7025 102.107 68.1191 102.32C68.5384 102.534 68.8548 102.833 69.0684 103.219C69.2845 103.602 69.3926 104.048 69.3926 104.559C69.3926 105.072 69.2832 105.517 69.0645 105.895C68.8483 106.27 68.5293 106.56 68.1074 106.766C67.6855 106.969 67.1673 107.07 66.5527 107.07H64.416V105.867H66.3574C66.7168 105.867 67.0111 105.818 67.2402 105.719C67.4694 105.617 67.6387 105.47 67.748 105.277C67.86 105.082 67.916 104.842 67.916 104.559C67.916 104.275 67.86 104.033 67.748 103.832C67.6361 103.629 67.4655 103.475 67.2363 103.371C67.0072 103.264 66.7116 103.211 66.3496 103.211H65.0215V110H63.5723ZM67.7051 106.375L69.6855 110H68.0684L66.123 106.375H67.7051ZM74.4883 107.477V104H75.9023V110H74.5313V108.934H74.4688C74.3333 109.27 74.1107 109.544 73.8008 109.758C73.4935 109.971 73.1146 110.078 72.6641 110.078C72.2708 110.078 71.9232 109.991 71.6211 109.816C71.3216 109.639 71.0872 109.383 70.918 109.047C70.7487 108.708 70.6641 108.299 70.6641 107.82V104H72.0781V107.602C72.0781 107.982 72.1823 108.284 72.3906 108.508C72.599 108.732 72.8724 108.844 73.2109 108.844C73.4193 108.844 73.6211 108.793 73.8164 108.691C74.0117 108.59 74.1719 108.439 74.2969 108.238C74.4245 108.035 74.4883 107.781 74.4883 107.477ZM78.7705 106.484V110H77.3564V104H78.708V105.02H78.7783C78.9163 104.684 79.1364 104.417 79.4385 104.219C79.7432 104.021 80.1195 103.922 80.5674 103.922C80.9814 103.922 81.3421 104.01 81.6494 104.187C81.9593 104.365 82.1989 104.621 82.3682 104.957C82.54 105.293 82.6247 105.701 82.6221 106.18V110H81.208V106.398C81.208 105.997 81.1038 105.684 80.8955 105.457C80.6898 105.23 80.4046 105.117 80.04 105.117C79.7926 105.117 79.5726 105.172 79.3799 105.281C79.1898 105.388 79.04 105.543 78.9307 105.746C78.8239 105.949 78.7705 106.195 78.7705 106.484Z" fill="#E5E5E5"/>
<rect x="92" y="94" width="64" height="24" rx="4" fill="white" fill-opacity="0.06"/>
<g clip-path="url(#clip2_3433_12507)">
<path d="M103.25 106.5L103.642 107.284C103.775 107.55 103.841 107.683 103.93 107.798C104.009 107.9 104.1 107.991 104.202 108.07C104.317 108.159 104.45 108.225 104.716 108.358L105.5 108.75L104.716 109.142C104.45 109.275 104.317 109.341 104.202 109.43C104.1 109.509 104.009 109.6 103.93 109.702C103.841 109.817 103.775 109.95 103.642 110.216L103.25 111L102.858 110.216C102.725 109.95 102.659 109.817 102.57 109.702C102.491 109.6 102.4 109.509 102.298 109.43C102.183 109.341 102.05 109.275 101.784 109.142L101 108.75L101.784 108.358C102.05 108.225 102.183 108.159 102.298 108.07C102.4 107.991 102.491 107.9 102.57 107.798C102.659 107.683 102.725 107.55 102.858 107.284L103.25 106.5Z" fill="#D4D4D4"/>
<path d="M107.5 101L108.089 102.532C108.23 102.899 108.301 103.082 108.41 103.236C108.508 103.373 108.627 103.492 108.764 103.59C108.918 103.699 109.101 103.77 109.468 103.911L111 104.5L109.468 105.089C109.101 105.23 108.918 105.301 108.764 105.41C108.627 105.508 108.508 105.627 108.41 105.764C108.301 105.918 108.23 106.101 108.089 106.468L107.5 108L106.911 106.468C106.77 106.101 106.699 105.918 106.59 105.764C106.492 105.627 106.373 105.508 106.236 105.41C106.082 105.301 105.899 105.23 105.532 105.089L104 104.5L105.532 103.911C105.899 103.77 106.082 103.699 106.236 103.59C106.373 103.492 106.492 103.373 106.59 103.236C106.699 103.082 106.77 102.899 106.911 102.532L107.5 101Z" fill="#D4D4D4"/>
<path d="M103.25 106.5L103.642 107.284C103.775 107.55 103.841 107.683 103.93 107.798C104.009 107.9 104.1 107.991 104.202 108.07C104.317 108.159 104.45 108.225 104.716 108.358L105.5 108.75L104.716 109.142C104.45 109.275 104.317 109.341 104.202 109.43C104.1 109.509 104.009 109.6 103.93 109.702C103.841 109.817 103.775 109.95 103.642 110.216L103.25 111L102.858 110.216C102.725 109.95 102.659 109.817 102.57 109.702C102.491 109.6 102.4 109.509 102.298 109.43C102.183 109.341 102.05 109.275 101.784 109.142L101 108.75L101.784 108.358C102.05 108.225 102.183 108.159 102.298 108.07C102.4 107.991 102.491 107.9 102.57 107.798C102.659 107.683 102.725 107.55 102.858 107.284L103.25 106.5Z" stroke="#D4D4D4" stroke-width="0.4" stroke-linecap="round" stroke-linejoin="round"/>
<path d="M107.5 101L108.089 102.532C108.23 102.899 108.301 103.082 108.41 103.236C108.508 103.373 108.627 103.492 108.764 103.59C108.918 103.699 109.101 103.77 109.468 103.911L111 104.5L109.468 105.089C109.101 105.23 108.918 105.301 108.764 105.41C108.627 105.508 108.508 105.627 108.41 105.764C108.301 105.918 108.23 106.101 108.089 106.468L107.5 108L106.911 106.468C106.77 106.101 106.699 105.918 106.59 105.764C106.492 105.627 106.373 105.508 106.236 105.41C106.082 105.301 105.899 105.23 105.532 105.089L104 104.5L105.532 103.911C105.899 103.77 106.082 103.699 106.236 103.59C106.373 103.492 106.492 103.373 106.59 103.236C106.699 103.082 106.77 102.899 106.911 102.532L107.5 101Z" stroke="#D4D4D4" stroke-width="0.4" stroke-linecap="round" stroke-linejoin="round"/>
</g>
<path d="M116.714 110V104.545H117.74V105.412H117.797C117.896 105.118 118.071 104.888 118.322 104.719C118.576 104.549 118.862 104.464 119.182 104.464C119.248 104.464 119.326 104.466 119.416 104.471C119.509 104.476 119.581 104.482 119.633 104.489V105.504C119.59 105.492 119.514 105.479 119.406 105.465C119.297 105.449 119.188 105.44 119.079 105.44C118.828 105.44 118.604 105.494 118.408 105.6C118.214 105.704 118.06 105.85 117.946 106.037C117.832 106.222 117.776 106.432 117.776 106.669V110H116.714ZM122.707 110.11C122.17 110.11 121.707 109.995 121.319 109.766C120.933 109.534 120.635 109.208 120.424 108.789C120.215 108.368 120.111 107.874 120.111 107.308C120.111 106.75 120.215 106.257 120.424 105.831C120.635 105.405 120.928 105.072 121.305 104.833C121.683 104.594 122.126 104.474 122.633 104.474C122.94 104.474 123.239 104.525 123.528 104.627C123.816 104.729 124.076 104.889 124.305 105.107C124.535 105.324 124.716 105.607 124.849 105.955C124.981 106.301 125.047 106.721 125.047 107.216V107.592H120.711V106.797H124.007C124.007 106.518 123.95 106.27 123.836 106.055C123.723 105.837 123.563 105.665 123.357 105.54C123.153 105.414 122.914 105.352 122.64 105.352C122.341 105.352 122.081 105.425 121.858 105.572C121.638 105.716 121.468 105.906 121.347 106.14C121.229 106.372 121.17 106.624 121.17 106.896V107.518C121.17 107.882 121.233 108.192 121.361 108.448C121.492 108.704 121.673 108.899 121.905 109.034C122.137 109.167 122.408 109.233 122.718 109.233C122.919 109.233 123.103 109.205 123.268 109.148C123.434 109.089 123.577 109.001 123.698 108.885C123.819 108.769 123.911 108.626 123.975 108.455L124.98 108.636C124.899 108.932 124.755 109.192 124.547 109.414C124.341 109.634 124.081 109.806 123.769 109.929C123.459 110.05 123.105 110.11 122.707 110.11ZM128.821 104.545V105.398H125.739V104.545H128.821ZM126.584 110V103.913C126.584 103.572 126.659 103.29 126.808 103.065C126.957 102.837 127.155 102.668 127.401 102.557C127.647 102.443 127.915 102.386 128.203 102.386C128.417 102.386 128.599 102.404 128.75 102.44C128.902 102.473 129.014 102.504 129.088 102.532L128.839 103.391C128.789 103.377 128.725 103.361 128.647 103.342C128.569 103.32 128.475 103.31 128.363 103.31C128.105 103.31 127.921 103.374 127.809 103.501C127.7 103.629 127.646 103.814 127.646 104.055V110H126.584ZM133.372 107.738V104.545H134.438V110H133.393V109.055H133.337C133.211 109.347 133.01 109.589 132.733 109.783C132.458 109.975 132.116 110.071 131.707 110.071C131.356 110.071 131.046 109.994 130.776 109.84C130.509 109.684 130.298 109.453 130.144 109.148C129.993 108.842 129.917 108.465 129.917 108.015V104.545H130.979V107.887C130.979 108.259 131.082 108.555 131.288 108.775C131.494 108.995 131.761 109.105 132.09 109.105C132.289 109.105 132.487 109.055 132.683 108.956C132.882 108.857 133.047 108.706 133.177 108.505C133.309 108.304 133.375 108.048 133.372 107.738ZM136.926 106.761V110H135.864V104.545H136.883V105.433H136.951C137.076 105.144 137.273 104.912 137.54 104.737C137.81 104.562 138.15 104.474 138.559 104.474C138.931 104.474 139.257 104.553 139.536 104.709C139.815 104.863 140.032 105.092 140.186 105.398C140.34 105.703 140.417 106.081 140.417 106.531V110H139.355V106.658C139.355 106.263 139.252 105.954 139.046 105.732C138.84 105.507 138.557 105.394 138.197 105.394C137.951 105.394 137.732 105.447 137.54 105.554C137.351 105.661 137.201 105.817 137.089 106.023C136.98 106.226 136.926 106.473 136.926 106.761ZM143.883 110.107C143.442 110.107 143.049 109.994 142.704 109.769C142.36 109.542 142.09 109.219 141.894 108.8C141.7 108.378 141.603 107.873 141.603 107.283C141.603 106.694 141.701 106.19 141.898 105.771C142.096 105.352 142.369 105.031 142.714 104.808C143.06 104.586 143.452 104.474 143.89 104.474C144.228 104.474 144.501 104.531 144.706 104.645C144.915 104.756 145.076 104.886 145.189 105.036C145.305 105.185 145.395 105.316 145.459 105.43H145.523V102.727H146.585V110H145.548V109.151H145.459C145.395 109.267 145.303 109.4 145.182 109.549C145.064 109.698 144.901 109.828 144.692 109.94C144.484 110.051 144.214 110.107 143.883 110.107ZM144.117 109.201C144.422 109.201 144.68 109.121 144.891 108.96C145.104 108.796 145.265 108.57 145.374 108.281C145.485 107.992 145.541 107.656 145.541 107.273C145.541 106.894 145.487 106.562 145.378 106.278C145.269 105.994 145.109 105.773 144.898 105.614C144.688 105.456 144.427 105.376 144.117 105.376C143.797 105.376 143.531 105.459 143.318 105.625C143.105 105.791 142.944 106.017 142.835 106.303C142.729 106.59 142.675 106.913 142.675 107.273C142.675 107.637 142.73 107.965 142.839 108.256C142.948 108.548 143.108 108.778 143.322 108.949C143.537 109.117 143.802 109.201 144.117 109.201Z" fill="#D4D4D4"/>
<rect x="28" y="125" width="238" height="32" rx="4" fill="#CDCDCD" fill-opacity="0.06"/>
<rect x="28" y="125" width="238" height="32" rx="4" stroke="#424242"/>
<path d="M40.8789 145V137H45.8945V138.039H42.0859V140.477H45.6328V141.512H42.0859V143.961H45.9414V145H40.8789ZM47.4131 145V139H48.5342V139.977H48.6084C48.7334 139.646 48.9378 139.388 49.2217 139.203C49.5055 139.016 49.8454 138.922 50.2412 138.922C50.6423 138.922 50.9782 139.016 51.249 139.203C51.5225 139.391 51.7243 139.648 51.8545 139.977H51.917C52.0602 139.656 52.2881 139.401 52.6006 139.211C52.9131 139.018 53.2855 138.922 53.7178 138.922C54.262 138.922 54.7061 139.092 55.0498 139.434C55.3962 139.775 55.5693 140.289 55.5693 140.977V145H54.4014V141.086C54.4014 140.68 54.2907 140.385 54.0693 140.203C53.848 140.021 53.5837 139.93 53.2764 139.93C52.8962 139.93 52.6006 140.047 52.3896 140.281C52.1787 140.513 52.0732 140.811 52.0732 141.176V145H50.9092V141.012C50.9092 140.686 50.8076 140.424 50.6045 140.227C50.4014 140.029 50.137 139.93 49.8115 139.93C49.5902 139.93 49.3857 139.988 49.1982 140.105C49.0133 140.22 48.8636 140.38 48.749 140.586C48.637 140.792 48.5811 141.03 48.5811 141.301V145H47.4131ZM57.2285 145V137H58.3965V139.973H58.4668C58.5345 139.848 58.6322 139.703 58.7598 139.539C58.8874 139.375 59.0645 139.232 59.291 139.109C59.5176 138.984 59.8171 138.922 60.1895 138.922C60.6738 138.922 61.1061 139.044 61.4863 139.289C61.8665 139.534 62.1647 139.887 62.3809 140.348C62.5996 140.809 62.709 141.363 62.709 142.012C62.709 142.66 62.6009 143.216 62.3848 143.68C62.1686 144.141 61.8717 144.496 61.4941 144.746C61.1165 144.993 60.6855 145.117 60.2012 145.117C59.8366 145.117 59.5384 145.056 59.3066 144.934C59.0775 144.811 58.8978 144.668 58.7676 144.504C58.6374 144.34 58.5371 144.194 58.4668 144.066H58.3691V145H57.2285ZM58.373 142C58.373 142.422 58.4342 142.792 58.5566 143.109C58.679 143.427 58.8561 143.676 59.0879 143.855C59.3197 144.033 59.6035 144.121 59.9395 144.121C60.2884 144.121 60.5801 144.029 60.8145 143.844C61.0488 143.656 61.2259 143.402 61.3457 143.082C61.4681 142.762 61.5293 142.401 61.5293 142C61.5293 141.604 61.4694 141.249 61.3496 140.934C61.2324 140.618 61.0553 140.37 60.8184 140.188C60.584 140.005 60.291 139.914 59.9395 139.914C59.6009 139.914 59.3145 140.001 59.0801 140.176C58.8483 140.35 58.6725 140.594 58.5527 140.906C58.4329 141.219 58.373 141.583 58.373 142ZM66.6064 145.121C66.0153 145.121 65.5062 144.995 65.0791 144.742C64.6546 144.487 64.3265 144.129 64.0947 143.668C63.8656 143.204 63.751 142.661 63.751 142.039C63.751 141.424 63.8656 140.883 64.0947 140.414C64.3265 139.945 64.6494 139.579 65.0635 139.316C65.4801 139.053 65.9671 138.922 66.5244 138.922C66.863 138.922 67.1911 138.978 67.5088 139.09C67.8265 139.202 68.1117 139.378 68.3643 139.617C68.6169 139.857 68.8161 140.168 68.9619 140.551C69.1077 140.931 69.1807 141.393 69.1807 141.937V142.352H64.4111V141.477H68.0361C68.0361 141.169 67.9736 140.897 67.8486 140.66C67.7236 140.421 67.5479 140.232 67.3213 140.094C67.0973 139.956 66.8343 139.887 66.5322 139.887C66.2041 139.887 65.9176 139.967 65.6729 140.129C65.4307 140.288 65.2432 140.496 65.1104 140.754C64.9801 141.009 64.915 141.286 64.915 141.586V142.27C64.915 142.671 64.9854 143.012 65.126 143.293C65.2692 143.574 65.4684 143.789 65.7236 143.937C65.9788 144.083 66.277 144.156 66.6182 144.156C66.8395 144.156 67.0413 144.125 67.2236 144.062C67.4059 143.997 67.5635 143.901 67.6963 143.773C67.8291 143.646 67.9307 143.488 68.001 143.301L69.1064 143.5C69.0179 143.826 68.859 144.111 68.6299 144.355C68.4033 144.598 68.1182 144.786 67.7744 144.922C67.4333 145.055 67.0439 145.121 66.6064 145.121ZM72.7227 145.117C72.2383 145.117 71.806 144.993 71.4258 144.746C71.0482 144.496 70.7513 144.141 70.5352 143.68C70.3216 143.216 70.2148 142.66 70.2148 142.012C70.2148 141.363 70.3229 140.809 70.5391 140.348C70.7578 139.887 71.0573 139.534 71.4375 139.289C71.8177 139.044 72.2487 138.922 72.7305 138.922C73.1029 138.922 73.4023 138.984 73.6289 139.109C73.8581 139.232 74.0352 139.375 74.1602 139.539C74.2878 139.703 74.3867 139.848 74.457 139.973H74.5273V137H75.6953V145H74.5547V144.066H74.457C74.3867 144.194 74.2852 144.34 74.1523 144.504C74.0221 144.668 73.8424 144.811 73.6133 144.934C73.3841 145.056 73.0872 145.117 72.7227 145.117ZM72.9805 144.121C73.3164 144.121 73.6003 144.033 73.832 143.855C74.0664 143.676 74.2435 143.427 74.3633 143.109C74.4857 142.792 74.5469 142.422 74.5469 142C74.5469 141.583 74.487 141.219 74.3672 140.906C74.2474 140.594 74.0716 140.35 73.8398 140.176C73.6081 140.001 73.3216 139.914 72.9805 139.914C72.6289 139.914 72.3359 140.005 72.1016 140.188C71.8672 140.37 71.6901 140.618 71.5703 140.934C71.4531 141.249 71.3945 141.604 71.3945 142C71.3945 142.401 71.4544 142.762 71.5742 143.082C71.694 143.402 71.8711 143.656 72.1055 143.844C72.3424 144.029 72.6341 144.121 72.9805 144.121Z" fill="#E0E0E0"/>
<rect x="28" y="159" width="238" height="32" rx="4" fill="#CDCDCD" fill-opacity="0.06"/>
<path d="M45.2422 173.102C45.2005 172.732 45.0286 172.445 44.7266 172.242C44.4245 172.036 44.0443 171.934 43.5859 171.934C43.2578 171.934 42.974 171.986 42.7344 172.09C42.4948 172.191 42.3086 172.332 42.1758 172.512C42.0456 172.689 41.9805 172.891 41.9805 173.117C41.9805 173.307 42.0247 173.471 42.1133 173.609C42.2044 173.747 42.3229 173.863 42.4688 173.957C42.6172 174.048 42.776 174.125 42.9453 174.188C43.1146 174.247 43.2773 174.297 43.4336 174.336L44.2148 174.539C44.4701 174.602 44.7318 174.686 45 174.793C45.2682 174.9 45.5169 175.04 45.7461 175.215C45.9753 175.389 46.1602 175.605 46.3008 175.863C46.444 176.121 46.5156 176.43 46.5156 176.789C46.5156 177.242 46.3984 177.645 46.1641 177.996C45.9323 178.348 45.5951 178.625 45.1523 178.828C44.7122 179.031 44.1797 179.133 43.5547 179.133C42.9557 179.133 42.4375 179.038 42 178.848C41.5625 178.658 41.2201 178.388 40.9727 178.039C40.7253 177.687 40.5885 177.271 40.5625 176.789H41.7734C41.7969 177.078 41.8906 177.319 42.0547 177.512C42.2214 177.702 42.4336 177.844 42.6914 177.937C42.9518 178.029 43.237 178.074 43.5469 178.074C43.888 178.074 44.1914 178.021 44.457 177.914C44.7253 177.805 44.9362 177.654 45.0898 177.461C45.2435 177.266 45.3203 177.038 45.3203 176.777C45.3203 176.54 45.2526 176.346 45.1172 176.195C44.9844 176.044 44.8034 175.919 44.5742 175.82C44.3477 175.721 44.0911 175.634 43.8047 175.559L42.8594 175.301C42.2188 175.126 41.7109 174.87 41.3359 174.531C40.9635 174.193 40.7773 173.745 40.7773 173.187C40.7773 172.727 40.9023 172.324 41.1523 171.98C41.4023 171.637 41.7409 171.37 42.168 171.18C42.5951 170.987 43.0768 170.891 43.6133 170.891C44.1549 170.891 44.6328 170.986 45.0469 171.176C45.4635 171.366 45.7917 171.628 46.0313 171.961C46.2708 172.292 46.3958 172.672 46.4063 173.102H45.2422ZM50.4502 179.121C49.859 179.121 49.3499 178.995 48.9229 178.742C48.4984 178.487 48.1702 178.129 47.9385 177.668C47.7093 177.204 47.5947 176.661 47.5947 176.039C47.5947 175.424 47.7093 174.883 47.9385 174.414C48.1702 173.945 48.4932 173.579 48.9072 173.316C49.3239 173.053 49.8109 172.922 50.3682 172.922C50.7067 172.922 51.0348 172.978 51.3525 173.09C51.6702 173.202 51.9554 173.378 52.208 173.617C52.4606 173.857 52.6598 174.168 52.8057 174.551C52.9515 174.931 53.0244 175.393 53.0244 175.937V176.352H48.2549V175.477H51.8799C51.8799 175.169 51.8174 174.897 51.6924 174.66C51.5674 174.421 51.3916 174.232 51.165 174.094C50.9411 173.956 50.6781 173.887 50.376 173.887C50.0479 173.887 49.7614 173.967 49.5166 174.129C49.2744 174.288 49.0869 174.496 48.9541 174.754C48.8239 175.009 48.7588 175.286 48.7588 175.586V176.27C48.7588 176.671 48.8291 177.012 48.9697 177.293C49.113 177.574 49.3122 177.789 49.5674 177.937C49.8226 178.083 50.1208 178.156 50.4619 178.156C50.6833 178.156 50.8851 178.125 51.0674 178.062C51.2497 177.997 51.4072 177.901 51.54 177.773C51.6729 177.646 51.7744 177.488 51.8447 177.301L52.9502 177.5C52.8617 177.826 52.7028 178.111 52.4736 178.355C52.2471 178.598 51.9619 178.786 51.6182 178.922C51.277 179.055 50.8877 179.121 50.4502 179.121ZM56.0664 179.133C55.6862 179.133 55.3424 179.063 55.0352 178.922C54.7279 178.779 54.4844 178.572 54.3047 178.301C54.1276 178.03 54.0391 177.698 54.0391 177.305C54.0391 176.966 54.1042 176.687 54.2344 176.469C54.3646 176.25 54.5404 176.077 54.7617 175.949C54.9831 175.822 55.2305 175.725 55.5039 175.66C55.7773 175.595 56.056 175.546 56.3398 175.512C56.6992 175.47 56.9909 175.436 57.2148 175.41C57.4388 175.382 57.6016 175.336 57.7031 175.273C57.8047 175.211 57.8555 175.109 57.8555 174.969V174.941C57.8555 174.6 57.7591 174.336 57.5664 174.148C57.3763 173.961 57.0924 173.867 56.7148 173.867C56.3216 173.867 56.0117 173.954 55.7852 174.129C55.5612 174.301 55.4063 174.492 55.3203 174.703L54.2227 174.453C54.3529 174.089 54.543 173.794 54.793 173.57C55.0456 173.344 55.3359 173.18 55.6641 173.078C55.9922 172.974 56.3372 172.922 56.6992 172.922C56.9388 172.922 57.1927 172.951 57.4609 173.008C57.7318 173.062 57.9844 173.164 58.2188 173.312C58.4557 173.461 58.6497 173.673 58.8008 173.949C58.9518 174.223 59.0273 174.578 59.0273 175.016V179H57.8867V178.18H57.8398C57.7643 178.331 57.651 178.479 57.5 178.625C57.349 178.771 57.1549 178.892 56.918 178.988C56.681 179.085 56.3971 179.133 56.0664 179.133ZM56.3203 178.195C56.6432 178.195 56.9193 178.132 57.1484 178.004C57.3802 177.876 57.556 177.71 57.6758 177.504C57.7982 177.296 57.8594 177.073 57.8594 176.836V176.062C57.8177 176.104 57.737 176.143 57.6172 176.18C57.5 176.214 57.3659 176.243 57.2148 176.27C57.0638 176.293 56.9167 176.315 56.7734 176.336C56.6302 176.354 56.5104 176.37 56.4141 176.383C56.1875 176.411 55.9805 176.46 55.793 176.527C55.6081 176.595 55.4596 176.693 55.3477 176.82C55.2383 176.945 55.1836 177.112 55.1836 177.32C55.1836 177.609 55.2904 177.828 55.5039 177.977C55.7174 178.122 55.9896 178.195 56.3203 178.195ZM60.583 179V173H61.7119V173.953H61.7744C61.8838 173.63 62.0765 173.376 62.3525 173.191C62.6312 173.004 62.9463 172.91 63.2979 172.91C63.3708 172.91 63.4567 172.913 63.5557 172.918C63.6572 172.923 63.7367 172.93 63.7939 172.937V174.055C63.7471 174.042 63.6637 174.027 63.5439 174.012C63.4242 173.993 63.3044 173.984 63.1846 173.984C62.9085 173.984 62.6624 174.043 62.4463 174.16C62.2327 174.275 62.0635 174.435 61.9385 174.641C61.8135 174.844 61.751 175.076 61.751 175.336V179H60.583ZM67.1172 179.121C66.5365 179.121 66.0365 178.99 65.6172 178.727C65.2005 178.461 64.8802 178.095 64.6563 177.629C64.4323 177.163 64.3203 176.629 64.3203 176.027C64.3203 175.418 64.4349 174.88 64.6641 174.414C64.8932 173.945 65.2161 173.579 65.6328 173.316C66.0495 173.053 66.5404 172.922 67.1055 172.922C67.5612 172.922 67.9674 173.007 68.3242 173.176C68.681 173.342 68.9688 173.577 69.1875 173.879C69.4089 174.181 69.5404 174.534 69.582 174.937H68.4453C68.3828 174.656 68.2396 174.414 68.0156 174.211C67.7943 174.008 67.4974 173.906 67.125 173.906C66.7995 173.906 66.5143 173.992 66.2695 174.164C66.0273 174.333 65.8385 174.576 65.7031 174.891C65.5677 175.203 65.5 175.573 65.5 176C65.5 176.437 65.5664 176.815 65.6992 177.133C65.832 177.451 66.0195 177.697 66.2617 177.871C66.5065 178.046 66.7943 178.133 67.125 178.133C67.3464 178.133 67.5469 178.092 67.7266 178.012C67.9089 177.928 68.0612 177.81 68.1836 177.656C68.3086 177.503 68.3958 177.318 68.4453 177.102H69.582C69.5404 177.49 69.4141 177.836 69.2031 178.141C68.9922 178.445 68.7096 178.685 68.3555 178.859C68.0039 179.034 67.5911 179.121 67.1172 179.121ZM71.999 175.437V179H70.8311V171H71.9834V173.977H72.0576C72.1982 173.654 72.4131 173.397 72.7021 173.207C72.9912 173.017 73.3688 172.922 73.835 172.922C74.2464 172.922 74.6058 173.007 74.9131 173.176C75.223 173.345 75.4626 173.598 75.6318 173.934C75.8037 174.267 75.8896 174.684 75.8896 175.184V179H74.7217V175.324C74.7217 174.884 74.6084 174.543 74.3818 174.301C74.1553 174.056 73.8402 173.934 73.4365 173.934C73.1605 173.934 72.9131 173.992 72.6943 174.109C72.4782 174.227 72.3076 174.398 72.1826 174.625C72.0602 174.849 71.999 175.12 71.999 175.437Z" fill="#E0E0E0"/>
<rect x="28" y="193" width="238" height="32" rx="4" fill="#CDCDCD" fill-opacity="0.06"/>
<path d="M40.8789 213V205H42.0859V211.961H45.7109V213H40.8789ZM47.0879 213V205H48.2949V211.961H51.9199V213H47.0879ZM53.2969 205H54.7617L57.3086 211.219H57.4023L59.9492 205H61.4141V213H60.2656V207.211H60.1914L57.832 212.988H56.8789L54.5195 207.207H54.4453V213H53.2969V205ZM71.4941 207.527C71.4186 207.29 71.3171 207.078 71.1895 206.891C71.0645 206.701 70.9147 206.539 70.7402 206.406C70.5658 206.271 70.3665 206.168 70.1426 206.098C69.9212 206.027 69.6777 205.992 69.4121 205.992C68.9616 205.992 68.5553 206.108 68.1934 206.34C67.8314 206.572 67.5449 206.911 67.334 207.359C67.1257 207.805 67.0215 208.35 67.0215 208.996C67.0215 209.645 67.127 210.193 67.3379 210.641C67.5488 211.089 67.8379 211.428 68.2051 211.66C68.5723 211.892 68.9902 212.008 69.459 212.008C69.8939 212.008 70.2728 211.919 70.5957 211.742C70.9212 211.565 71.1725 211.315 71.3496 210.992C71.5293 210.667 71.6191 210.284 71.6191 209.844L71.9316 209.902H69.6426V208.906H72.7871V209.816C72.7871 210.488 72.6439 211.072 72.3574 211.566C72.0736 212.059 71.6803 212.439 71.1777 212.707C70.6777 212.975 70.1048 213.109 69.459 213.109C68.735 213.109 68.0996 212.943 67.5527 212.609C67.0085 212.276 66.584 211.803 66.2793 211.191C65.9746 210.577 65.8223 209.848 65.8223 209.004C65.8223 208.366 65.9108 207.793 66.0879 207.285C66.265 206.777 66.5137 206.346 66.834 205.992C67.1569 205.635 67.5358 205.363 67.9707 205.176C68.4082 204.986 68.8861 204.891 69.4043 204.891C69.8366 204.891 70.2389 204.954 70.6113 205.082C70.9863 205.21 71.3197 205.391 71.6113 205.625C71.9056 205.859 72.1491 206.138 72.3418 206.461C72.5345 206.781 72.6647 207.137 72.7324 207.527H71.4941ZM76.8115 213.121C76.2204 213.121 75.7113 212.995 75.2842 212.742C74.8597 212.487 74.5316 212.129 74.2998 211.668C74.0706 211.204 73.9561 210.661 73.9561 210.039C73.9561 209.424 74.0706 208.883 74.2998 208.414C74.5316 207.945 74.8545 207.579 75.2686 207.316C75.6852 207.053 76.1722 206.922 76.7295 206.922C77.068 206.922 77.3962 206.978 77.7139 207.09C78.0316 207.202 78.3167 207.378 78.5693 207.617C78.8219 207.857 79.0212 208.168 79.167 208.551C79.3128 208.931 79.3857 209.393 79.3857 209.937V210.352H74.6162V209.477H78.2412C78.2412 209.169 78.1787 208.897 78.0537 208.66C77.9287 208.421 77.7529 208.232 77.5264 208.094C77.3024 207.956 77.0394 207.887 76.7373 207.887C76.4092 207.887 76.1227 207.967 75.8779 208.129C75.6357 208.288 75.4482 208.496 75.3154 208.754C75.1852 209.009 75.1201 209.286 75.1201 209.586V210.27C75.1201 210.671 75.1904 211.012 75.3311 211.293C75.4743 211.574 75.6735 211.789 75.9287 211.937C76.1839 212.083 76.4821 212.156 76.8232 212.156C77.0446 212.156 77.2464 212.125 77.4287 212.062C77.611 211.997 77.7686 211.901 77.9014 211.773C78.0342 211.646 78.1357 211.488 78.2061 211.301L79.3115 211.5C79.223 211.826 79.0641 212.111 78.835 212.355C78.6084 212.598 78.3232 212.786 77.9795 212.922C77.6383 213.055 77.249 213.121 76.8115 213.121ZM81.8496 209.437V213H80.6816V207H81.8027V207.977H81.877C82.015 207.659 82.2311 207.404 82.5254 207.211C82.8223 207.018 83.196 206.922 83.6465 206.922C84.0553 206.922 84.4134 207.008 84.7207 207.18C85.028 207.349 85.2663 207.602 85.4355 207.937C85.6048 208.273 85.6895 208.689 85.6895 209.184V213H84.5215V209.324C84.5215 208.889 84.4082 208.549 84.1816 208.305C83.9551 208.057 83.6439 207.934 83.248 207.934C82.9772 207.934 82.7363 207.992 82.5254 208.109C82.3171 208.227 82.1517 208.398 82.0293 208.625C81.9095 208.849 81.8496 209.12 81.8496 209.437ZM89.8418 213.121C89.2507 213.121 88.7415 212.995 88.3145 212.742C87.89 212.487 87.5618 212.129 87.3301 211.668C87.1009 211.204 86.9863 210.661 86.9863 210.039C86.9863 209.424 87.1009 208.883 87.3301 208.414C87.5618 207.945 87.8848 207.579 88.2988 207.316C88.7155 207.053 89.2025 206.922 89.7598 206.922C90.0983 206.922 90.4264 206.978 90.7441 207.09C91.0618 207.202 91.347 207.378 91.5996 207.617C91.8522 207.857 92.0514 208.168 92.1973 208.551C92.3431 208.931 92.416 209.393 92.416 209.937V210.352H87.6465V209.477H91.2715C91.2715 209.169 91.209 208.897 91.084 208.66C90.959 208.421 90.7832 208.232 90.5566 208.094C90.3327 207.956 90.0697 207.887 89.7676 207.887C89.4395 207.887 89.153 207.967 88.9082 208.129C88.666 208.288 88.4785 208.496 88.3457 208.754C88.2155 209.009 88.1504 209.286 88.1504 209.586V210.27C88.1504 210.671 88.2207 211.012 88.3613 211.293C88.5046 211.574 88.7038 211.789 88.959 211.937C89.2142 212.083 89.5124 212.156 89.8535 212.156C90.0749 212.156 90.2767 212.125 90.459 212.062C90.6413 211.997 90.7988 211.901 90.9316 211.773C91.0645 211.646 91.166 211.488 91.2363 211.301L92.3418 211.5C92.2533 211.826 92.0944 212.111 91.8652 212.355C91.6387 212.598 91.3535 212.786 91.0098 212.922C90.6686 213.055 90.2793 213.121 89.8418 213.121ZM93.7119 213V207H94.8408V207.953H94.9033C95.0127 207.63 95.2054 207.376 95.4814 207.191C95.7601 207.004 96.0752 206.91 96.4268 206.91C96.4997 206.91 96.5856 206.913 96.6846 206.918C96.7861 206.923 96.8656 206.93 96.9229 206.937V208.055C96.876 208.042 96.7926 208.027 96.6729 208.012C96.5531 207.993 96.4333 207.984 96.3135 207.984C96.0374 207.984 95.7913 208.043 95.5752 208.16C95.3617 208.275 95.1924 208.435 95.0674 208.641C94.9424 208.844 94.8799 209.076 94.8799 209.336V213H93.7119ZM99.626 213.133C99.2458 213.133 98.902 213.063 98.5947 212.922C98.2874 212.779 98.0439 212.572 97.8643 212.301C97.6872 212.03 97.5986 211.698 97.5986 211.305C97.5986 210.966 97.6637 210.687 97.7939 210.469C97.9242 210.25 98.0999 210.077 98.3213 209.949C98.5426 209.822 98.79 209.725 99.0635 209.66C99.3369 209.595 99.6156 209.546 99.8994 209.512C100.259 209.47 100.55 209.436 100.774 209.41C100.998 209.382 101.161 209.336 101.263 209.273C101.364 209.211 101.415 209.109 101.415 208.969V208.941C101.415 208.6 101.319 208.336 101.126 208.148C100.936 207.961 100.652 207.867 100.274 207.867C99.8812 207.867 99.5713 207.954 99.3447 208.129C99.1208 208.301 98.9658 208.492 98.8799 208.703L97.7822 208.453C97.9124 208.089 98.1025 207.794 98.3525 207.57C98.6051 207.344 98.8955 207.18 99.2236 207.078C99.5518 206.974 99.8968 206.922 100.259 206.922C100.498 206.922 100.752 206.951 101.021 207.008C101.291 207.062 101.544 207.164 101.778 207.312C102.015 207.461 102.209 207.673 102.36 207.949C102.511 208.223 102.587 208.578 102.587 209.016V213H101.446V212.18H101.399C101.324 212.331 101.211 212.479 101.06 212.625C100.909 212.771 100.715 212.892 100.478 212.988C100.241 213.085 99.9567 213.133 99.626 213.133ZM99.8799 212.195C100.203 212.195 100.479 212.132 100.708 212.004C100.94 211.876 101.116 211.71 101.235 211.504C101.358 211.296 101.419 211.073 101.419 210.836V210.062C101.377 210.104 101.297 210.143 101.177 210.18C101.06 210.214 100.925 210.243 100.774 210.27C100.623 210.293 100.476 210.315 100.333 210.336C100.19 210.354 100.07 210.37 99.9736 210.383C99.7471 210.411 99.54 210.46 99.3525 210.527C99.1676 210.595 99.0192 210.693 98.9072 210.82C98.7979 210.945 98.7432 211.112 98.7432 211.32C98.7432 211.609 98.8499 211.828 99.0635 211.977C99.277 212.122 99.5492 212.195 99.8799 212.195ZM106.943 207V207.937H103.666V207H106.943ZM104.545 205.562H105.713V211.238C105.713 211.465 105.747 211.635 105.814 211.75C105.882 211.862 105.969 211.939 106.076 211.98C106.186 212.02 106.304 212.039 106.432 212.039C106.525 212.039 106.607 212.033 106.678 212.02C106.748 212.007 106.803 211.996 106.842 211.988L107.053 212.953C106.985 212.979 106.889 213.005 106.764 213.031C106.639 213.06 106.482 213.076 106.295 213.078C105.988 213.083 105.701 213.029 105.436 212.914C105.17 212.799 104.955 212.622 104.791 212.383C104.627 212.143 104.545 211.842 104.545 211.48V205.562ZM110.757 213.121C110.166 213.121 109.657 212.995 109.229 212.742C108.805 212.487 108.477 212.129 108.245 211.668C108.016 211.204 107.901 210.661 107.901 210.039C107.901 209.424 108.016 208.883 108.245 208.414C108.477 207.945 108.8 207.579 109.214 207.316C109.631 207.053 110.118 206.922 110.675 206.922C111.013 206.922 111.341 206.978 111.659 207.09C111.977 207.202 112.262 207.378 112.515 207.617C112.767 207.857 112.966 208.168 113.112 208.551C113.258 208.931 113.331 209.393 113.331 209.937V210.352H108.562V209.477H112.187C112.187 209.169 112.124 208.897 111.999 208.66C111.874 208.421 111.698 208.232 111.472 208.094C111.248 207.956 110.985 207.887 110.683 207.887C110.354 207.887 110.068 207.967 109.823 208.129C109.581 208.288 109.394 208.496 109.261 208.754C109.131 209.009 109.065 209.286 109.065 209.586V210.27C109.065 210.671 109.136 211.012 109.276 211.293C109.42 211.574 109.619 211.789 109.874 211.937C110.129 212.083 110.427 212.156 110.769 212.156C110.99 212.156 111.192 212.125 111.374 212.062C111.556 211.997 111.714 211.901 111.847 211.773C111.979 211.646 112.081 211.488 112.151 211.301L113.257 211.5C113.168 211.826 113.009 212.111 112.78 212.355C112.554 212.598 112.269 212.786 111.925 212.922C111.584 213.055 111.194 213.121 110.757 213.121Z" fill="#E0E0E0"/>
<rect x="122" y="197" width="93" height="24" rx="4" fill="white" fill-opacity="0.06"/>
<g clip-path="url(#clip3_3433_12507)">
<path d="M133.25 209.5L133.642 210.284C133.775 210.55 133.841 210.683 133.93 210.798C134.009 210.9 134.1 210.991 134.202 211.07C134.317 211.159 134.45 211.225 134.716 211.358L135.5 211.75L134.716 212.142C134.45 212.275 134.317 212.341 134.202 212.43C134.1 212.509 134.009 212.6 133.93 212.702C133.841 212.817 133.775 212.95 133.642 213.216L133.25 214L132.858 213.216C132.725 212.95 132.659 212.817 132.57 212.702C132.491 212.6 132.4 212.509 132.298 212.43C132.183 212.341 132.05 212.275 131.784 212.142L131 211.75L131.784 211.358C132.05 211.225 132.183 211.159 132.298 211.07C132.4 210.991 132.491 210.9 132.57 210.798C132.659 210.683 132.725 210.55 132.858 210.284L133.25 209.5Z" fill="#D4D4D4"/>
<path d="M137.5 204L138.089 205.532C138.23 205.899 138.301 206.082 138.41 206.236C138.508 206.373 138.627 206.492 138.764 206.59C138.918 206.699 139.101 206.77 139.468 206.911L141 207.5L139.468 208.089C139.101 208.23 138.918 208.301 138.764 208.41C138.627 208.508 138.508 208.627 138.41 208.764C138.301 208.918 138.23 209.101 138.089 209.468L137.5 211L136.911 209.468C136.77 209.101 136.699 208.918 136.59 208.764C136.492 208.627 136.373 208.508 136.236 208.41C136.082 208.301 135.899 208.23 135.532 208.089L134 207.5L135.532 206.911C135.899 206.77 136.082 206.699 136.236 206.59C136.373 206.492 136.492 206.373 136.59 206.236C136.699 206.082 136.77 205.899 136.911 205.532L137.5 204Z" fill="#D4D4D4"/>
<path d="M133.25 209.5L133.642 210.284C133.775 210.55 133.841 210.683 133.93 210.798C134.009 210.9 134.1 210.991 134.202 211.07C134.317 211.159 134.45 211.225 134.716 211.358L135.5 211.75L134.716 212.142C134.45 212.275 134.317 212.341 134.202 212.43C134.1 212.509 134.009 212.6 133.93 212.702C133.841 212.817 133.775 212.95 133.642 213.216L133.25 214L132.858 213.216C132.725 212.95 132.659 212.817 132.57 212.702C132.491 212.6 132.4 212.509 132.298 212.43C132.183 212.341 132.05 212.275 131.784 212.142L131 211.75L131.784 211.358C132.05 211.225 132.183 211.159 132.298 211.07C132.4 210.991 132.491 210.9 132.57 210.798C132.659 210.683 132.725 210.55 132.858 210.284L133.25 209.5Z" stroke="#D4D4D4" stroke-width="0.4" stroke-linecap="round" stroke-linejoin="round"/>
<path d="M137.5 204L138.089 205.532C138.23 205.899 138.301 206.082 138.41 206.236C138.508 206.373 138.627 206.492 138.764 206.59C138.918 206.699 139.101 206.77 139.468 206.911L141 207.5L139.468 208.089C139.101 208.23 138.918 208.301 138.764 208.41C138.627 208.508 138.508 208.627 138.41 208.764C138.301 208.918 138.23 209.101 138.089 209.468L137.5 211L136.911 209.468C136.77 209.101 136.699 208.918 136.59 208.764C136.492 208.627 136.373 208.508 136.236 208.41C136.082 208.301 135.899 208.23 135.532 208.089L134 207.5L135.532 206.911C135.899 206.77 136.082 206.699 136.236 206.59C136.373 206.492 136.492 206.373 136.59 206.236C136.699 206.082 136.77 205.899 136.911 205.532L137.5 204Z" stroke="#D4D4D4" stroke-width="0.4" stroke-linecap="round" stroke-linejoin="round"/>
</g>
<path d="M147.776 209.761V213H146.714V205.727H147.761V208.433H147.829C147.957 208.14 148.152 207.906 148.415 207.734C148.678 207.561 149.021 207.474 149.445 207.474C149.819 207.474 150.145 207.551 150.425 207.705C150.706 207.859 150.924 208.089 151.078 208.394C151.234 208.697 151.312 209.076 151.312 209.531V213H150.251V209.658C150.251 209.258 150.148 208.948 149.942 208.728C149.736 208.505 149.449 208.394 149.082 208.394C148.831 208.394 148.607 208.447 148.408 208.554C148.211 208.661 148.056 208.817 147.942 209.023C147.831 209.226 147.776 209.473 147.776 209.761ZM154.317 213.121C153.971 213.121 153.659 213.057 153.379 212.929C153.1 212.799 152.879 212.611 152.715 212.364C152.554 212.118 152.474 211.816 152.474 211.459C152.474 211.151 152.533 210.898 152.651 210.699C152.77 210.5 152.929 210.343 153.131 210.227C153.332 210.111 153.557 210.023 153.805 209.964C154.054 209.905 154.307 209.86 154.565 209.829C154.892 209.791 155.157 209.76 155.361 209.737C155.564 209.71 155.712 209.669 155.805 209.612C155.897 209.555 155.943 209.463 155.943 209.335V209.31C155.943 209 155.856 208.76 155.68 208.589C155.508 208.419 155.25 208.334 154.906 208.334C154.549 208.334 154.267 208.413 154.061 208.572C153.857 208.728 153.717 208.902 153.638 209.094L152.641 208.866C152.759 208.535 152.932 208.268 153.159 208.064C153.389 207.858 153.653 207.709 153.951 207.616C154.249 207.522 154.563 207.474 154.892 207.474C155.11 207.474 155.341 207.5 155.585 207.553C155.831 207.602 156.06 207.695 156.273 207.83C156.489 207.964 156.665 208.157 156.803 208.408C156.94 208.657 157.009 208.98 157.009 209.378V213H155.972V212.254H155.929C155.86 212.392 155.757 212.527 155.62 212.659C155.483 212.792 155.306 212.902 155.091 212.989C154.875 213.077 154.617 213.121 154.317 213.121ZM154.548 212.268C154.841 212.268 155.092 212.21 155.3 212.094C155.511 211.978 155.671 211.827 155.78 211.64C155.891 211.451 155.947 211.248 155.947 211.033V210.33C155.909 210.367 155.835 210.403 155.727 210.436C155.62 210.467 155.498 210.494 155.361 210.518C155.223 210.539 155.09 210.559 154.96 210.578C154.829 210.595 154.72 210.609 154.633 210.621C154.427 210.647 154.239 210.691 154.068 210.752C153.9 210.814 153.765 210.902 153.663 211.018C153.564 211.132 153.514 211.284 153.514 211.473C153.514 211.736 153.611 211.935 153.805 212.07C154 212.202 154.247 212.268 154.548 212.268ZM159.485 205.727V213H158.423V205.727H159.485ZM161.975 205.727V213H160.913V205.727H161.975ZM166.858 210.738V207.545H167.924V213H166.88V212.055H166.823C166.698 212.347 166.496 212.589 166.219 212.783C165.945 212.975 165.603 213.071 165.193 213.071C164.843 213.071 164.532 212.994 164.263 212.84C163.995 212.684 163.784 212.453 163.631 212.148C163.479 211.842 163.403 211.465 163.403 211.015V207.545H164.465V210.887C164.465 211.259 164.568 211.555 164.774 211.775C164.98 211.995 165.247 212.105 165.577 212.105C165.775 212.105 165.973 212.055 166.17 211.956C166.368 211.857 166.533 211.706 166.663 211.505C166.796 211.304 166.861 211.048 166.858 210.738ZM171.648 213.11C171.12 213.11 170.666 212.991 170.284 212.751C169.906 212.51 169.614 212.177 169.411 211.754C169.207 211.33 169.105 210.844 169.105 210.298C169.105 209.744 169.21 209.255 169.418 208.831C169.626 208.405 169.92 208.072 170.299 207.833C170.677 207.594 171.124 207.474 171.637 207.474C172.052 207.474 172.421 207.551 172.745 207.705C173.07 207.857 173.331 208.07 173.53 208.344C173.731 208.619 173.851 208.94 173.889 209.307H172.855C172.799 209.051 172.668 208.831 172.465 208.646C172.264 208.462 171.994 208.369 171.655 208.369C171.359 208.369 171.1 208.447 170.877 208.604C170.657 208.758 170.486 208.978 170.363 209.264C170.239 209.548 170.178 209.884 170.178 210.273C170.178 210.67 170.238 211.014 170.359 211.303C170.48 211.591 170.65 211.815 170.87 211.974C171.093 212.132 171.355 212.212 171.655 212.212C171.856 212.212 172.039 212.175 172.202 212.102C172.368 212.026 172.506 211.918 172.618 211.778C172.731 211.639 172.81 211.471 172.855 211.274H173.889C173.851 211.627 173.736 211.942 173.544 212.219C173.353 212.496 173.096 212.714 172.774 212.872C172.454 213.031 172.079 213.11 171.648 213.11ZM175.024 213V207.545H176.086V213H175.024ZM175.561 206.704C175.376 206.704 175.217 206.642 175.085 206.519C174.954 206.394 174.889 206.245 174.889 206.072C174.889 205.897 174.954 205.747 175.085 205.624C175.217 205.499 175.376 205.436 175.561 205.436C175.745 205.436 175.903 205.499 176.033 205.624C176.165 205.747 176.232 205.897 176.232 206.072C176.232 206.245 176.165 206.394 176.033 206.519C175.903 206.642 175.745 206.704 175.561 206.704ZM178.576 209.761V213H177.515V207.545H178.534V208.433H178.601C178.727 208.144 178.923 207.912 179.191 207.737C179.461 207.562 179.8 207.474 180.21 207.474C180.582 207.474 180.907 207.553 181.186 207.709C181.466 207.863 181.682 208.092 181.836 208.398C181.99 208.703 182.067 209.081 182.067 209.531V213H181.005V209.658C181.005 209.263 180.902 208.954 180.696 208.732C180.49 208.507 180.208 208.394 179.848 208.394C179.601 208.394 179.382 208.447 179.191 208.554C179.001 208.661 178.851 208.817 178.74 209.023C178.631 209.226 178.576 209.473 178.576 209.761ZM185.078 213.121C184.733 213.121 184.42 213.057 184.141 212.929C183.862 212.799 183.64 212.611 183.477 212.364C183.316 212.118 183.235 211.816 183.235 211.459C183.235 211.151 183.295 210.898 183.413 210.699C183.531 210.5 183.691 210.343 183.892 210.227C184.094 210.111 184.319 210.023 184.567 209.964C184.816 209.905 185.069 209.86 185.327 209.829C185.654 209.791 185.919 209.76 186.123 209.737C186.326 209.71 186.474 209.669 186.566 209.612C186.659 209.555 186.705 209.463 186.705 209.335V209.31C186.705 209 186.617 208.76 186.442 208.589C186.269 208.419 186.011 208.334 185.668 208.334C185.31 208.334 185.029 208.413 184.823 208.572C184.619 208.728 184.478 208.902 184.4 209.094L183.402 208.866C183.521 208.535 183.694 208.268 183.921 208.064C184.15 207.858 184.414 207.709 184.713 207.616C185.011 207.522 185.325 207.474 185.654 207.474C185.872 207.474 186.102 207.5 186.346 207.553C186.592 207.602 186.822 207.695 187.035 207.83C187.251 207.964 187.427 208.157 187.564 208.408C187.702 208.657 187.77 208.98 187.77 209.378V213H186.733V212.254H186.691C186.622 212.392 186.519 212.527 186.382 212.659C186.244 212.792 186.068 212.902 185.853 212.989C185.637 213.077 185.379 213.121 185.078 213.121ZM185.309 212.268C185.603 212.268 185.854 212.21 186.062 212.094C186.273 211.978 186.433 211.827 186.542 211.64C186.653 211.451 186.708 211.248 186.708 211.033V210.33C186.671 210.367 186.597 210.403 186.488 210.436C186.382 210.467 186.26 210.494 186.123 210.518C185.985 210.539 185.851 210.559 185.721 210.578C185.591 210.595 185.482 210.609 185.395 210.621C185.189 210.647 185 210.691 184.83 210.752C184.662 210.814 184.527 210.902 184.425 211.018C184.326 211.132 184.276 211.284 184.276 211.473C184.276 211.736 184.373 211.935 184.567 212.07C184.761 212.202 185.009 212.268 185.309 212.268ZM191.731 207.545V208.398H188.751V207.545H191.731ZM189.55 206.239H190.612V211.398C190.612 211.604 190.643 211.759 190.704 211.864C190.766 211.965 190.845 212.035 190.942 212.073C191.042 212.109 191.149 212.126 191.265 212.126C191.351 212.126 191.425 212.121 191.489 212.109C191.553 212.097 191.603 212.087 191.638 212.08L191.83 212.957C191.769 212.981 191.681 213.005 191.567 213.028C191.454 213.054 191.312 213.069 191.141 213.071C190.862 213.076 190.601 213.026 190.36 212.922C190.118 212.818 189.923 212.657 189.774 212.439C189.625 212.221 189.55 211.948 189.55 211.619V206.239ZM192.905 213V207.545H193.967V213H192.905ZM193.441 206.704C193.257 206.704 193.098 206.642 192.966 206.519C192.835 206.394 192.77 206.245 192.77 206.072C192.77 205.897 192.835 205.747 192.966 205.624C193.098 205.499 193.257 205.436 193.441 205.436C193.626 205.436 193.783 205.499 193.914 205.624C194.046 205.747 194.113 205.897 194.113 206.072C194.113 206.245 194.046 206.394 193.914 206.519C193.783 206.642 193.626 206.704 193.441 206.704ZM197.693 213.11C197.182 213.11 196.735 212.993 196.354 212.759C195.973 212.524 195.677 212.196 195.466 211.775C195.256 211.353 195.15 210.861 195.15 210.298C195.15 209.732 195.256 209.237 195.466 208.813C195.677 208.389 195.973 208.06 196.354 207.826C196.735 207.592 197.182 207.474 197.693 207.474C198.204 207.474 198.651 207.592 199.032 207.826C199.413 208.06 199.709 208.389 199.92 208.813C200.13 209.237 200.236 209.732 200.236 210.298C200.236 210.861 200.13 211.353 199.92 211.775C199.709 212.196 199.413 212.524 199.032 212.759C198.651 212.993 198.204 213.11 197.693 213.11ZM197.697 212.219C198.028 212.219 198.303 212.131 198.52 211.956C198.738 211.781 198.899 211.548 199.003 211.256C199.11 210.965 199.163 210.644 199.163 210.294C199.163 209.946 199.11 209.626 199.003 209.335C198.899 209.042 198.738 208.806 198.52 208.629C198.303 208.451 198.028 208.362 197.697 208.362C197.363 208.362 197.086 208.451 196.866 208.629C196.648 208.806 196.486 209.042 196.379 209.335C196.275 209.626 196.223 209.946 196.223 210.294C196.223 210.644 196.275 210.965 196.379 211.256C196.486 211.548 196.648 211.781 196.866 211.956C197.086 212.131 197.363 212.219 197.697 212.219ZM202.483 209.761V213H201.421V207.545H202.44V208.433H202.507C202.633 208.144 202.829 207.912 203.097 207.737C203.367 207.562 203.707 207.474 204.116 207.474C204.488 207.474 204.813 207.553 205.093 207.709C205.372 207.863 205.589 208.092 205.743 208.398C205.896 208.703 205.973 209.081 205.973 209.531V213H204.912V209.658C204.912 209.263 204.809 208.954 204.603 208.732C204.397 208.507 204.114 208.394 203.754 208.394C203.508 208.394 203.289 208.447 203.097 208.554C202.908 208.661 202.757 208.817 202.646 209.023C202.537 209.226 202.483 209.473 202.483 209.761Z" fill="#D4D4D4"/>
<defs>
<linearGradient id="paint0_linear_3433_12507" x1="147" y1="0" x2="147" y2="247" gradientUnits="userSpaceOnUse">
<stop stop-color="#262626"/>
<stop offset="1" stop-color="#1C1C1C"/>
</linearGradient>
<linearGradient id="paint1_linear_3433_12507" x1="147" y1="0" x2="147" y2="247" gradientUnits="userSpaceOnUse">
<stop stop-color="#9A1951"/>
<stop offset="1" stop-color="#1C1C1C" stop-opacity="0"/>
</linearGradient>
<clipPath id="clip0_3433_12507">
<rect width="12" height="12" fill="white" transform="translate(74 16)"/>
</clipPath>
<clipPath id="clip1_3433_12507">
<rect width="12" height="12" fill="white" transform="translate(139 16)"/>
</clipPath>
<clipPath id="clip2_3433_12507">
<rect width="12" height="12" fill="white" transform="translate(100 100)"/>
</clipPath>
<clipPath id="clip3_3433_12507">
<rect width="12" height="12" fill="white" transform="translate(130 203)"/>
</clipPath>
</defs>
</svg>
