<svg width="529" height="546" viewBox="0 0 529 546" fill="none" xmlns="http://www.w3.org/2000/svg">
<rect x="0.89966" y="0.89966" width="527.201" height="543.395" rx="13.4949" fill="url(#paint0_linear_1_32)"/>
<rect x="0.89966" y="0.89966" width="527.201" height="543.395" rx="13.4949" stroke="#9F9F9F" stroke-width="1.79932"/>
<path d="M29.6478 44.4705V42.0859H42.1766V44.4705H37.3231V57.7891H34.5014V44.4705H29.6478ZM47.2449 50.8883V57.7891H44.4692V42.0859H47.1835V48.0129H47.3215C47.5976 47.3484 48.0244 46.8245 48.602 46.4411C49.1848 46.0526 49.926 45.8583 50.8256 45.8583C51.6435 45.8583 52.3566 46.0296 52.9649 46.3721C53.5732 46.7146 54.0434 47.2155 54.3757 47.8749C54.7131 48.5343 54.8818 49.3394 54.8818 50.2902V57.7891H52.1061V50.7196C52.1061 49.9273 51.9016 49.3113 51.4927 48.8717C51.0889 48.427 50.5215 48.2046 49.7905 48.2046C49.2998 48.2046 48.8602 48.312 48.4717 48.5267C48.0883 48.7362 47.7867 49.0404 47.5669 49.4391C47.3522 49.8378 47.2449 50.3209 47.2449 50.8883ZM57.7111 57.7891V46.0117H60.4024V47.9746H60.5251C60.7398 47.2947 61.1078 46.7708 61.6292 46.4027C62.1557 46.0296 62.7563 45.843 63.4311 45.843C63.5844 45.843 63.7557 45.8507 63.9448 45.866C64.139 45.8762 64.3001 45.8941 64.4279 45.9197V48.473C64.3103 48.4321 64.1237 48.3963 63.8681 48.3656C63.6177 48.3299 63.3748 48.312 63.1397 48.312C62.6337 48.312 62.1787 48.4219 61.7749 48.6417C61.3762 48.8564 61.0618 49.1554 60.8318 49.5388C60.6017 49.9222 60.4867 50.3643 60.4867 50.8653V57.7891H57.7111ZM71.0009 58.0191C69.8201 58.0191 68.8003 57.7737 67.9415 57.283C67.0879 56.7872 66.431 56.0869 65.971 55.1821C65.5109 54.2722 65.2809 53.2013 65.2809 51.9694C65.2809 50.7579 65.5109 49.6947 65.971 48.7797C66.4361 47.8596 67.0853 47.1439 67.9185 46.6328C68.7517 46.1165 69.7306 45.8583 70.8552 45.8583C71.581 45.8583 72.266 45.9759 72.9101 46.2111C73.5593 46.4411 74.1318 46.7989 74.6276 47.2845C75.1286 47.7701 75.5222 48.3886 75.8084 49.1401C76.0947 49.8864 76.2378 50.7758 76.2378 51.8084V52.6595H66.5844V50.7886H73.5772C73.5721 50.257 73.457 49.7841 73.2321 49.3701C73.0072 48.9509 72.6928 48.6212 72.289 48.381C71.8903 48.1407 71.4251 48.0206 70.8935 48.0206C70.3261 48.0206 69.8277 48.1586 69.3984 48.4346C68.969 48.7056 68.6342 49.0634 68.3939 49.5081C68.1588 49.9477 68.0386 50.4308 68.0335 50.9573V52.5905C68.0335 53.2754 68.1588 53.8633 68.4092 54.354C68.6597 54.8396 69.0099 55.2128 69.4597 55.4735C69.9095 55.729 70.436 55.8568 71.0392 55.8568C71.443 55.8568 71.8085 55.8006 72.1357 55.6882C72.4628 55.5706 72.7465 55.3993 72.9868 55.1744C73.227 54.9495 73.4085 54.6709 73.5312 54.3387L76.1228 54.63C75.9592 55.315 75.6474 55.9131 75.1874 56.4242C74.7324 56.9303 74.1497 57.3239 73.4392 57.605C72.7286 57.8811 71.9159 58.0191 71.0009 58.0191ZM81.9751 58.0268C81.2288 58.0268 80.5566 57.8939 79.9585 57.628C79.3655 57.3571 78.8953 56.9584 78.5477 56.4319C78.2052 55.9054 78.0339 55.2562 78.0339 54.4843C78.0339 53.8198 78.1566 53.2703 78.402 52.8358C78.6473 52.4013 78.9822 52.0537 79.4064 51.793C79.8307 51.5323 80.3086 51.3355 80.8403 51.2026C81.377 51.0646 81.9316 50.9649 82.5041 50.9036C83.1942 50.832 83.7539 50.7681 84.1833 50.7119C84.6127 50.6506 84.9245 50.5586 85.1188 50.4359C85.3181 50.3081 85.4178 50.1113 85.4178 49.8455V49.7995C85.4178 49.2218 85.2466 48.7746 84.9041 48.4576C84.5616 48.1407 84.0683 47.9823 83.4242 47.9823C82.7444 47.9823 82.2051 48.1305 81.8064 48.427C81.4128 48.7235 81.147 49.0736 81.0089 49.4774L78.4173 49.1094C78.6218 48.3938 78.9592 47.7957 79.4294 47.3152C79.8997 46.8296 80.4748 46.4666 81.1546 46.2264C81.8345 45.981 82.5859 45.8583 83.4089 45.8583C83.9763 45.8583 84.5411 45.9248 85.1034 46.0577C85.6657 46.1906 86.1794 46.4104 86.6446 46.7171C87.1098 47.0187 87.4829 47.4302 87.7641 47.9516C88.0503 48.473 88.1934 49.1247 88.1934 49.9068V57.7891H85.5251V56.1712H85.4331C85.2644 56.4984 85.0267 56.8051 84.72 57.0913C84.4185 57.3725 84.0376 57.5999 83.5776 57.7737C83.1226 57.9424 82.5885 58.0268 81.9751 58.0268ZM82.6958 55.9872C83.253 55.9872 83.736 55.8773 84.145 55.6575C84.5539 55.4326 84.8683 55.1361 85.0881 54.768C85.313 54.4 85.4255 53.9987 85.4255 53.5642V52.1764C85.3386 52.248 85.1903 52.3144 84.9807 52.3758C84.7763 52.4371 84.5462 52.4908 84.2907 52.5368C84.0351 52.5828 83.782 52.6237 83.5316 52.6595C83.2811 52.6952 83.0639 52.7259 82.8798 52.7515C82.4658 52.8077 82.0952 52.8997 81.768 53.0275C81.4409 53.1553 81.1827 53.3342 80.9936 53.5642C80.8045 53.7892 80.7099 54.0805 80.7099 54.4383C80.7099 54.9495 80.8965 55.3354 81.2696 55.5961C81.6428 55.8568 82.1182 55.9872 82.6958 55.9872ZM95.3549 57.9961C94.4297 57.9961 93.6016 57.7584 92.8707 57.283C92.1397 56.8076 91.5621 56.1175 91.1378 55.2128C90.7135 54.308 90.5014 53.209 90.5014 51.9157C90.5014 50.6071 90.7161 49.503 91.1455 48.6033C91.5799 47.6986 92.1652 47.0161 92.9013 46.5561C93.6374 46.0909 94.4578 45.8583 95.3626 45.8583C96.0527 45.8583 96.6201 45.9759 97.0648 46.2111C97.5095 46.4411 97.8622 46.7197 98.1229 47.0468C98.3836 47.3689 98.5855 47.673 98.7287 47.9593H98.8437V42.0859H101.627V57.7891H98.8974V55.9335H98.7287C98.5855 56.2198 98.3785 56.5239 98.1076 56.846C97.8367 57.1629 97.4789 57.4338 97.0341 57.6587C96.5894 57.8836 96.0297 57.9961 95.3549 57.9961ZM96.1294 55.7188C96.7172 55.7188 97.2182 55.5604 97.6322 55.2434C98.0463 54.9214 98.3606 54.4741 98.5753 53.9016C98.79 53.3291 98.8974 52.662 98.8974 51.9004C98.8974 51.1387 98.79 50.4768 98.5753 49.9145C98.3657 49.3522 98.0539 48.9151 97.6399 48.6033C97.2309 48.2915 96.7274 48.1356 96.1294 48.1356C95.5108 48.1356 94.9946 48.2966 94.5805 48.6187C94.1665 48.9407 93.8547 49.3854 93.6451 49.9528C93.4355 50.5202 93.3307 51.1694 93.3307 51.9004C93.3307 52.6365 93.4355 53.2933 93.6451 53.8709C93.8598 54.4435 94.1741 54.8958 94.5882 55.2281C95.0073 55.5552 95.5211 55.7188 96.1294 55.7188Z" fill="#404040"/>
<rect x="118.184" y="28.7891" width="109.578" height="43.3946" rx="7.19728" fill="#9F9F9F" fill-opacity="0.22"/>
<path d="M138.426 51.386L139.132 52.7975C139.371 53.2752 139.49 53.514 139.65 53.721C139.791 53.9047 139.956 54.0693 140.139 54.2109C140.346 54.3705 140.585 54.4899 141.063 54.7287L142.474 55.4345L141.063 56.1402C140.585 56.3791 140.346 56.4985 140.139 56.658C139.956 56.7996 139.791 56.9643 139.65 57.1479C139.49 57.3549 139.371 57.5938 139.132 58.0715L138.426 59.4829L137.72 58.0715C137.481 57.5938 137.362 57.3549 137.202 57.1479C137.061 56.9643 136.896 56.7996 136.713 56.658C136.506 56.4985 136.267 56.3791 135.789 56.1402L134.378 55.4345L135.789 54.7287C136.267 54.4899 136.506 54.3705 136.713 54.2109C136.896 54.0693 137.061 53.9047 137.202 53.721C137.362 53.514 137.481 53.2752 137.72 52.7975L138.426 51.386Z" fill="#424242"/>
<path d="M146.073 41.4897L147.133 44.2467C147.387 44.9063 147.514 45.2362 147.711 45.5136C147.886 45.7595 148.101 45.9743 148.347 46.1492C148.624 46.3464 148.954 46.4733 149.614 46.727L152.371 47.7874L149.614 48.8477C148.954 49.1014 148.624 49.2283 148.347 49.4256C148.101 49.6004 147.886 49.8152 147.711 50.0611C147.514 50.3386 147.387 50.6684 147.133 51.328L146.073 54.085L145.013 51.328C144.759 50.6684 144.632 50.3386 144.435 50.0611C144.26 49.8152 144.045 49.6004 143.799 49.4256C143.522 49.2283 143.192 49.1014 142.532 48.8477L139.775 47.7874L142.532 46.727C143.192 46.4733 143.522 46.3464 143.799 46.1492C144.045 45.9743 144.26 45.7595 144.435 45.5136C144.632 45.2362 144.759 44.9063 145.013 44.2467L146.073 41.4897Z" fill="#424242"/>
<path d="M138.426 51.386L139.132 52.7975C139.371 53.2752 139.49 53.514 139.65 53.721C139.791 53.9047 139.956 54.0693 140.139 54.2109C140.346 54.3705 140.585 54.4899 141.063 54.7287L142.474 55.4345L141.063 56.1402C140.585 56.3791 140.346 56.4985 140.139 56.658C139.956 56.7996 139.791 56.9643 139.65 57.1479C139.49 57.3549 139.371 57.5938 139.132 58.0715L138.426 59.4829L137.72 58.0715C137.481 57.5938 137.362 57.3549 137.202 57.1479C137.061 56.9643 136.896 56.7996 136.713 56.658C136.506 56.4985 136.267 56.3791 135.789 56.1402L134.378 55.4345L135.789 54.7287C136.267 54.4899 136.506 54.3705 136.713 54.2109C136.896 54.0693 137.061 53.9047 137.202 53.721C137.362 53.514 137.481 53.2752 137.72 52.7975L138.426 51.386Z" stroke="#424242" stroke-width="0.719728" stroke-linecap="round" stroke-linejoin="round"/>
<path d="M146.073 41.4897L147.133 44.2467C147.387 44.9063 147.514 45.2362 147.711 45.5136C147.886 45.7595 148.101 45.9743 148.347 46.1492C148.624 46.3464 148.954 46.4733 149.614 46.727L152.371 47.7874L149.614 48.8477C148.954 49.1014 148.624 49.2283 148.347 49.4256C148.101 49.6004 147.886 49.8152 147.711 50.0611C147.514 50.3386 147.387 50.6684 147.133 51.328L146.073 54.085L145.013 51.328C144.759 50.6684 144.632 50.3386 144.435 50.0611C144.26 49.8152 144.045 49.6004 143.799 49.4256C143.522 49.2283 143.192 49.1014 142.532 48.8477L139.775 47.7874L142.532 46.727C143.192 46.4733 143.522 46.3464 143.799 46.1492C144.045 45.9743 144.26 45.7595 144.435 45.5136C144.632 45.2362 144.759 44.9063 145.013 44.2467L146.073 41.4897Z" stroke="#424242" stroke-width="0.719728" stroke-linecap="round" stroke-linejoin="round"/>
<path d="M162.805 56.9863V43.9004H164.715V48.7629H164.83C164.941 48.5584 165.101 48.322 165.31 48.0536C165.518 47.7853 165.808 47.551 166.179 47.3508C166.549 47.1463 167.039 47.0441 167.648 47.0441C168.441 47.0441 169.148 47.2443 169.77 47.6447C170.392 48.0451 170.879 48.6223 171.233 49.3763C171.591 50.1303 171.77 51.0376 171.77 52.0983C171.77 53.159 171.593 54.0684 171.239 54.8266C170.886 55.5806 170.4 56.1621 169.782 56.571C169.165 56.9757 168.46 57.178 167.667 57.178C167.071 57.178 166.583 57.0779 166.204 56.8777C165.829 56.6775 165.535 56.4432 165.322 56.1749C165.109 55.9065 164.945 55.6679 164.83 55.4592H164.671V56.9863H162.805ZM164.677 52.0791C164.677 52.7692 164.777 53.3741 164.977 53.8938C165.178 54.4135 165.467 54.8203 165.846 55.1142C166.226 55.4038 166.69 55.5487 167.239 55.5487C167.81 55.5487 168.287 55.3975 168.671 55.095C169.054 54.7883 169.344 54.373 169.54 53.849C169.74 53.3251 169.84 52.7351 169.84 52.0791C169.84 51.4316 169.742 50.8502 169.546 50.3347C169.354 49.8193 169.065 49.4125 168.677 49.1143C168.294 48.8161 167.814 48.667 167.239 48.667C166.686 48.667 166.217 48.8097 165.834 49.0952C165.455 49.3806 165.167 49.7788 164.971 50.29C164.775 50.8012 164.677 51.3975 164.677 52.0791ZM173.915 56.9863V47.1719H175.825V56.9863H173.915ZM174.88 45.6575C174.548 45.6575 174.262 45.5468 174.024 45.3253C173.789 45.0995 173.672 44.8311 173.672 44.5202C173.672 44.205 173.789 43.9366 174.024 43.7151C174.262 43.4893 174.548 43.3764 174.88 43.3764C175.212 43.3764 175.495 43.4893 175.73 43.7151C175.968 43.9366 176.087 44.205 176.087 44.5202C176.087 44.8311 175.968 45.0995 175.73 45.3253C175.495 45.5468 175.212 45.6575 174.88 45.6575ZM180.306 43.9004V56.9863H178.396V43.9004H180.306ZM184.787 43.9004V56.9863H182.876V43.9004H184.787ZM187.357 56.9863V47.1719H189.268V56.9863H187.357ZM188.322 45.6575C187.99 45.6575 187.704 45.5468 187.466 45.3253C187.231 45.0995 187.114 44.8311 187.114 44.5202C187.114 44.205 187.231 43.9366 187.466 43.7151C187.704 43.4893 187.99 43.3764 188.322 43.3764C188.654 43.3764 188.937 43.4893 189.172 43.7151C189.41 43.9366 189.53 44.205 189.53 44.5202C189.53 44.8311 189.41 45.0995 189.172 45.3253C188.937 45.5468 188.654 45.6575 188.322 45.6575ZM193.748 51.159V56.9863H191.838V47.1719H193.672V48.7693H193.793C194.019 48.2496 194.372 47.8321 194.854 47.5169C195.339 47.2017 195.951 47.0441 196.688 47.0441C197.356 47.0441 197.942 47.1847 198.445 47.4658C198.947 47.7427 199.337 48.1559 199.614 48.7054C199.891 49.2549 200.029 49.9343 200.029 50.7437V56.9863H198.119V50.9737C198.119 50.2623 197.934 49.7064 197.563 49.306C197.192 48.9013 196.683 48.699 196.036 48.699C195.593 48.699 195.199 48.7948 194.854 48.9865C194.513 49.1782 194.242 49.4594 194.042 49.83C193.846 50.1963 193.748 50.6393 193.748 51.159ZM206.707 60.8712C205.927 60.8712 205.256 60.769 204.694 60.5645C204.136 60.3601 203.68 60.0896 203.326 59.7531C202.973 59.4165 202.709 59.0481 202.534 58.6476L204.176 57.9703C204.291 58.1578 204.445 58.3559 204.636 58.5646C204.832 58.7776 205.096 58.9586 205.429 59.1077C205.765 59.2568 206.197 59.3313 206.726 59.3313C207.45 59.3313 208.048 59.1546 208.521 58.801C208.994 58.4517 209.23 57.8937 209.23 57.1269V55.1972H209.109C208.994 55.406 208.828 55.6381 208.611 55.8937C208.398 56.1493 208.104 56.3708 207.729 56.5582C207.354 56.7457 206.866 56.8394 206.266 56.8394C205.49 56.8394 204.792 56.6583 204.17 56.2963C203.552 55.9299 203.062 55.3911 202.7 54.6797C202.342 53.964 202.163 53.0844 202.163 52.0408C202.163 50.9971 202.34 50.1026 202.694 49.3571C203.052 48.6117 203.542 48.0409 204.163 47.6447C204.785 47.2443 205.49 47.0441 206.278 47.0441C206.888 47.0441 207.38 47.1463 207.754 47.3508C208.129 47.551 208.421 47.7853 208.63 48.0536C208.843 48.322 209.007 48.5584 209.122 48.7629H209.262V47.1719H211.135V57.2036C211.135 58.047 210.939 58.7392 210.547 59.2802C210.155 59.8212 209.624 60.2216 208.956 60.4815C208.291 60.7413 207.541 60.8712 206.707 60.8712ZM206.687 55.2548C207.237 55.2548 207.701 55.127 208.08 54.8714C208.464 54.6115 208.753 54.2409 208.949 53.7596C209.149 53.274 209.25 52.6925 209.25 52.0152C209.25 51.3549 209.152 50.7735 208.956 50.2708C208.76 49.7682 208.472 49.3763 208.093 49.0952C207.714 48.8097 207.245 48.667 206.687 48.667C206.112 48.667 205.633 48.8161 205.25 49.1143C204.866 49.4082 204.577 49.8087 204.381 50.3156C204.189 50.8225 204.093 51.389 204.093 52.0152C204.093 52.6584 204.191 53.2229 204.387 53.7085C204.583 54.1941 204.873 54.5732 205.256 54.8458C205.644 55.1184 206.121 55.2548 206.687 55.2548Z" fill="#424242"/>
<rect x="234.959" y="28.7891" width="125.578" height="43.3946" rx="7.19728" fill="#9F9F9F" fill-opacity="0.22"/>
<path d="M255.201 51.386L255.907 52.7975C256.146 53.2752 256.265 53.514 256.425 53.721C256.567 53.9047 256.731 54.0693 256.915 54.2109C257.122 54.3705 257.361 54.4899 257.838 54.7287L259.25 55.4345L257.838 56.1402C257.361 56.3791 257.122 56.4985 256.915 56.658C256.731 56.7996 256.567 56.9643 256.425 57.1479C256.265 57.3549 256.146 57.5938 255.907 58.0715L255.201 59.4829L254.496 58.0715C254.257 57.5938 254.137 57.3549 253.978 57.1479C253.836 56.9643 253.672 56.7996 253.488 56.658C253.281 56.4985 253.042 56.3791 252.564 56.1402L251.153 55.4345L252.564 54.7287C253.042 54.4899 253.281 54.3705 253.488 54.2109C253.672 54.0693 253.836 53.9047 253.978 53.721C254.137 53.514 254.257 53.2752 254.496 52.7975L255.201 51.386Z" fill="#424242"/>
<path d="M262.849 41.4897L263.909 44.2467C264.163 44.9063 264.29 45.2362 264.487 45.5136C264.662 45.7595 264.876 45.9743 265.122 46.1492C265.4 46.3464 265.73 46.4733 266.389 46.727L269.146 47.7874L266.389 48.8477C265.73 49.1014 265.4 49.2283 265.122 49.4256C264.876 49.6004 264.662 49.8152 264.487 50.0611C264.29 50.3386 264.163 50.6684 263.909 51.328L262.849 54.085L261.788 51.328C261.535 50.6684 261.408 50.3386 261.21 50.0611C261.036 49.8152 260.821 49.6004 260.575 49.4256C260.297 49.2283 259.968 49.1014 259.308 48.8477L256.551 47.7874L259.308 46.727C259.968 46.4733 260.297 46.3464 260.575 46.1492C260.821 45.9743 261.036 45.7595 261.21 45.5136C261.408 45.2362 261.535 44.9063 261.788 44.2467L262.849 41.4897Z" fill="#424242"/>
<path d="M255.201 51.386L255.907 52.7975C256.146 53.2752 256.265 53.514 256.425 53.721C256.567 53.9047 256.731 54.0693 256.915 54.2109C257.122 54.3705 257.361 54.4899 257.838 54.7287L259.25 55.4345L257.838 56.1402C257.361 56.3791 257.122 56.4985 256.915 56.658C256.731 56.7996 256.567 56.9643 256.425 57.1479C256.265 57.3549 256.146 57.5938 255.907 58.0715L255.201 59.4829L254.496 58.0715C254.257 57.5938 254.137 57.3549 253.978 57.1479C253.836 56.9643 253.672 56.7996 253.488 56.658C253.281 56.4985 253.042 56.3791 252.564 56.1402L251.153 55.4345L252.564 54.7287C253.042 54.4899 253.281 54.3705 253.488 54.2109C253.672 54.0693 253.836 53.9047 253.978 53.721C254.137 53.514 254.257 53.2752 254.496 52.7975L255.201 51.386Z" stroke="#424242" stroke-width="0.719728" stroke-linecap="round" stroke-linejoin="round"/>
<path d="M262.849 41.4897L263.909 44.2467C264.163 44.9063 264.29 45.2362 264.487 45.5136C264.662 45.7595 264.876 45.9743 265.122 46.1492C265.4 46.3464 265.73 46.4733 266.389 46.727L269.146 47.7874L266.389 48.8477C265.73 49.1014 265.4 49.2283 265.122 49.4256C264.876 49.6004 264.662 49.8152 264.487 50.0611C264.29 50.3386 264.163 50.6684 263.909 51.328L262.849 54.085L261.788 51.328C261.535 50.6684 261.408 50.3386 261.21 50.0611C261.036 49.8152 260.821 49.6004 260.575 49.4256C260.297 49.2283 259.968 49.1014 259.308 48.8477L256.551 47.7874L259.308 46.727C259.968 46.4733 260.297 46.3464 260.575 46.1492C260.821 45.9743 261.036 45.7595 261.21 45.5136C261.408 45.2362 261.535 44.9063 261.788 44.2467L262.849 41.4897Z" stroke="#424242" stroke-width="0.719728" stroke-linecap="round" stroke-linejoin="round"/>
<path d="M279.427 60.6668V47.1719H281.293V48.7629H281.453C281.563 48.5584 281.723 48.322 281.932 48.0536C282.141 47.7853 282.43 47.551 282.801 47.3508C283.171 47.1463 283.661 47.0441 284.27 47.0441C285.063 47.0441 285.77 47.2443 286.392 47.6447C287.014 48.0451 287.501 48.6223 287.855 49.3763C288.213 50.1303 288.392 51.0376 288.392 52.0983C288.392 53.159 288.215 54.0684 287.861 54.8266C287.508 55.5806 287.022 56.1621 286.405 56.571C285.787 56.9757 285.082 57.178 284.29 57.178C283.693 57.178 283.206 57.0779 282.826 56.8777C282.452 56.6775 282.158 56.4432 281.945 56.1749C281.732 55.9065 281.568 55.6679 281.453 55.4592H281.338V60.6668H279.427ZM281.299 52.0791C281.299 52.7692 281.399 53.3741 281.6 53.8938C281.8 54.4135 282.089 54.8203 282.469 55.1142C282.848 55.4038 283.312 55.5487 283.862 55.5487C284.432 55.5487 284.909 55.3975 285.293 55.095C285.676 54.7883 285.966 54.373 286.162 53.849C286.362 53.3251 286.462 52.7351 286.462 52.0791C286.462 51.4316 286.364 50.8502 286.168 50.3347C285.976 49.8193 285.687 49.4125 285.299 49.1143C284.916 48.8161 284.437 48.667 283.862 48.667C283.308 48.667 282.839 48.8097 282.456 49.0952C282.077 49.3806 281.789 49.7788 281.593 50.29C281.397 50.8012 281.299 51.3975 281.299 52.0791ZM294.666 57.1844C293.746 57.1844 292.943 56.9736 292.257 56.5518C291.572 56.1301 291.039 55.5402 290.66 54.7819C290.281 54.0237 290.091 53.1377 290.091 52.1238C290.091 51.1058 290.281 50.2155 290.66 49.453C291.039 48.6905 291.572 48.0984 292.257 47.6767C292.943 47.2549 293.746 47.0441 294.666 47.0441C295.586 47.0441 296.389 47.2549 297.075 47.6767C297.761 48.0984 298.294 48.6905 298.673 49.453C299.052 50.2155 299.241 51.1058 299.241 52.1238C299.241 53.1377 299.052 54.0237 298.673 54.7819C298.294 55.5402 297.761 56.1301 297.075 56.5518C296.389 56.9736 295.586 57.1844 294.666 57.1844ZM294.673 55.5806C295.269 55.5806 295.763 55.423 296.155 55.1078C296.547 54.7926 296.837 54.373 297.024 53.849C297.216 53.3251 297.312 52.7479 297.312 52.1174C297.312 51.4913 297.216 50.9162 297.024 50.3922C296.837 49.864 296.547 49.4402 296.155 49.1207C295.763 48.8012 295.269 48.6415 294.673 48.6415C294.072 48.6415 293.574 48.8012 293.178 49.1207C292.786 49.4402 292.494 49.864 292.302 50.3922C292.115 50.9162 292.021 51.4913 292.021 52.1174C292.021 52.7479 292.115 53.3251 292.302 53.849C292.494 54.373 292.786 54.7926 293.178 55.1078C293.574 55.423 294.072 55.5806 294.673 55.5806ZM308.728 49.568L306.997 49.8747C306.924 49.6532 306.809 49.4423 306.652 49.2421C306.498 49.0419 306.29 48.8779 306.026 48.7501C305.761 48.6223 305.431 48.5584 305.035 48.5584C304.494 48.5584 304.043 48.6798 303.681 48.9226C303.318 49.1612 303.137 49.47 303.137 49.8491C303.137 50.1771 303.259 50.4412 303.502 50.6414C303.744 50.8416 304.136 51.0057 304.677 51.1334L306.236 51.4913C307.139 51.7 307.813 52.0216 308.256 52.4561C308.699 52.8906 308.92 53.455 308.92 54.1493C308.92 54.7372 308.75 55.2611 308.409 55.7212C308.072 56.177 307.602 56.5348 306.997 56.7947C306.396 57.0545 305.7 57.1844 304.907 57.1844C303.808 57.1844 302.912 56.9501 302.217 56.4816C301.523 56.0087 301.097 55.3378 300.939 54.4688L302.786 54.1877C302.901 54.669 303.137 55.0332 303.495 55.2803C303.853 55.5231 304.32 55.6445 304.895 55.6445C305.521 55.6445 306.021 55.5146 306.396 55.2548C306.771 54.9906 306.958 54.669 306.958 54.2899C306.958 53.9832 306.843 53.7255 306.613 53.5168C306.388 53.308 306.04 53.1504 305.572 53.0439L303.911 52.6797C302.995 52.471 302.317 52.1387 301.879 51.683C301.444 51.2272 301.227 50.65 301.227 49.9514C301.227 49.372 301.389 48.8651 301.713 48.4306C302.036 47.9961 302.484 47.6575 303.054 47.4147C303.625 47.1676 304.279 47.0441 305.016 47.0441C306.077 47.0441 306.912 47.2741 307.521 47.7342C308.13 48.19 308.532 48.8012 308.728 49.568ZM311.021 56.9863V47.1719H312.931V56.9863H311.021ZM311.985 45.6575C311.653 45.6575 311.368 45.5468 311.129 45.3253C310.895 45.0995 310.778 44.8311 310.778 44.5202C310.778 44.205 310.895 43.9366 311.129 43.7151C311.368 43.4893 311.653 43.3764 311.985 43.3764C312.318 43.3764 312.601 43.4893 312.835 43.7151C313.074 43.9366 313.193 44.205 313.193 44.5202C313.193 44.8311 313.074 45.0995 312.835 45.3253C312.601 45.5468 312.318 45.6575 311.985 45.6575ZM320.083 47.1719V48.7054H314.722V47.1719H320.083ZM316.159 44.8205H318.07V54.1046C318.07 54.4752 318.125 54.7542 318.236 54.9417C318.347 55.1248 318.49 55.2505 318.664 55.3187C318.843 55.3825 319.037 55.4145 319.246 55.4145C319.399 55.4145 319.533 55.4038 319.648 55.3825C319.763 55.3612 319.853 55.3442 319.917 55.3314L320.262 56.9097C320.151 56.9523 319.993 56.9949 319.789 57.0375C319.584 57.0843 319.329 57.1099 319.022 57.1141C318.519 57.1227 318.051 57.0332 317.616 56.8458C317.182 56.6583 316.83 56.3687 316.562 55.9768C316.294 55.5849 316.159 55.0929 316.159 54.5008V44.8205ZM322.196 56.9863V47.1719H324.107V56.9863H322.196ZM323.161 45.6575C322.829 45.6575 322.543 45.5468 322.305 45.3253C322.07 45.0995 321.953 44.8311 321.953 44.5202C321.953 44.205 322.07 43.9366 322.305 43.7151C322.543 43.4893 322.829 43.3764 323.161 43.3764C323.493 43.3764 323.776 43.4893 324.011 43.7151C324.249 43.9366 324.369 44.205 324.369 44.5202C324.369 44.8311 324.249 45.0995 324.011 45.3253C323.776 45.5468 323.493 45.6575 323.161 45.6575ZM335.073 47.1719L331.514 56.9863H329.469L325.904 47.1719H327.955L330.44 54.7244H330.543L333.022 47.1719H335.073ZM340.764 57.1844C339.797 57.1844 338.965 56.9778 338.266 56.5646C337.572 56.1472 337.035 55.5615 336.656 54.8075C336.281 54.0492 336.094 53.1611 336.094 52.143C336.094 51.1377 336.281 50.2517 336.656 49.4849C337.035 48.7182 337.563 48.1197 338.24 47.6894C338.922 47.2592 339.719 47.0441 340.63 47.0441C341.184 47.0441 341.721 47.1357 342.24 47.3188C342.76 47.502 343.226 47.7895 343.64 48.1814C344.053 48.5733 344.379 49.0824 344.617 49.7086C344.856 50.3305 344.975 51.0866 344.975 51.9769V52.6542H337.173V51.2229H343.103C343.103 50.7202 343.001 50.2751 342.796 49.8875C342.592 49.4956 342.304 49.1867 341.934 48.961C341.567 48.7352 341.137 48.6223 340.643 48.6223C340.106 48.6223 339.638 48.7544 339.237 49.0185C338.841 49.2783 338.534 49.6191 338.317 50.0408C338.104 50.4583 337.998 50.9119 337.998 51.4018V52.52C337.998 53.176 338.113 53.734 338.343 54.1941C338.577 54.6541 338.903 55.0056 339.32 55.2484C339.738 55.4869 340.225 55.6062 340.784 55.6062C341.146 55.6062 341.476 55.5551 341.774 55.4528C342.072 55.3463 342.33 55.1887 342.547 54.98C342.764 54.7713 342.93 54.5136 343.045 54.2069L344.854 54.5327C344.709 55.0652 344.449 55.5316 344.074 55.9321C343.704 56.3282 343.237 56.637 342.675 56.8586C342.117 57.0758 341.48 57.1844 340.764 57.1844Z" fill="#424242"/>
<rect x="29.6887" y="87.2668" width="469.622" height="70.9898" rx="9.89626" stroke="#8B5CF6" stroke-opacity="0.5" stroke-width="1.79932"/>
<path d="M51.8007 115.367H54.9916L59.265 125.798H59.4337L63.7071 115.367H66.8981V129.762H64.3959V119.873H64.2624L60.2842 129.72H58.4146L54.4364 119.851H54.3028V129.762H51.8007V115.367ZM74.4046 129.973C73.3222 129.973 72.3874 129.748 71.6002 129.298C70.8177 128.843 70.2156 128.201 69.7939 127.372C69.3721 126.538 69.1613 125.556 69.1613 124.427C69.1613 123.317 69.3721 122.342 69.7939 121.503C70.2203 120.66 70.8154 120.004 71.5791 119.535C72.3429 119.062 73.2402 118.825 74.2711 118.825C74.9364 118.825 75.5643 118.933 76.1547 119.149C76.7498 119.359 77.2746 119.687 77.7291 120.133C78.1883 120.578 78.5491 121.145 78.8115 121.833C79.0739 122.518 79.2051 123.333 79.2051 124.279V125.06H70.3561V123.345H76.7662C76.7615 122.857 76.6561 122.424 76.4499 122.044C76.2438 121.66 75.9556 121.358 75.5854 121.138C75.2199 120.917 74.7935 120.807 74.3062 120.807C73.7861 120.807 73.3292 120.934 72.9356 121.187C72.542 121.435 72.2351 121.763 72.0149 122.171C71.7994 122.574 71.6892 123.017 71.6846 123.499V124.996C71.6846 125.624 71.7994 126.163 72.029 126.613C72.2586 127.058 72.5795 127.4 72.9919 127.639C73.4042 127.873 73.8868 127.991 74.4398 127.991C74.8099 127.991 75.145 127.939 75.4449 127.836C75.7447 127.728 76.0048 127.571 76.225 127.365C76.4453 127.159 76.6116 126.903 76.7241 126.599L79.0997 126.866C78.9498 127.494 78.6639 128.042 78.2422 128.511C77.8252 128.975 77.291 129.335 76.6397 129.593C75.9884 129.846 75.2434 129.973 74.4046 129.973ZM89.8904 121.819L87.5709 122.072C87.5053 121.838 87.3905 121.618 87.2265 121.412C87.0672 121.206 86.8517 121.039 86.5799 120.913C86.3081 120.786 85.9754 120.723 85.5818 120.723C85.0524 120.723 84.6072 120.838 84.2464 121.067C83.8903 121.297 83.7146 121.595 83.7193 121.96C83.7146 122.274 83.8294 122.529 84.0637 122.726C84.3026 122.923 84.6962 123.085 85.2445 123.211L87.086 123.605C88.1074 123.825 88.8665 124.174 89.3632 124.652C89.8646 125.13 90.1176 125.755 90.1223 126.529C90.1176 127.208 89.9185 127.808 89.5249 128.328C89.136 128.843 88.5948 129.246 87.9013 129.537C87.2078 129.827 86.4112 129.973 85.5116 129.973C84.1902 129.973 83.1265 129.696 82.3206 129.143C81.5146 128.586 81.0343 127.81 80.8797 126.817L83.3608 126.578C83.4733 127.065 83.7122 127.433 84.0777 127.681C84.4432 127.93 84.9188 128.054 85.5045 128.054C86.109 128.054 86.594 127.93 86.9594 127.681C87.3296 127.433 87.5147 127.126 87.5147 126.761C87.5147 126.451 87.3952 126.196 87.1562 125.994C86.922 125.793 86.5565 125.638 86.0598 125.531L84.2183 125.144C83.1827 124.928 82.4166 124.565 81.9199 124.055C81.4233 123.539 81.1773 122.888 81.1819 122.101C81.1773 121.435 81.3577 120.859 81.7231 120.372C82.0933 119.88 82.6064 119.5 83.2624 119.233C83.9231 118.961 84.6845 118.825 85.5467 118.825C86.8118 118.825 87.8076 119.095 88.5338 119.634C89.2648 120.172 89.717 120.901 89.8904 121.819ZM100.753 121.819L98.4336 122.072C98.368 121.838 98.2532 121.618 98.0892 121.412C97.9299 121.206 97.7144 121.039 97.4426 120.913C97.1708 120.786 96.8381 120.723 96.4445 120.723C95.915 120.723 95.4699 120.838 95.1091 121.067C94.753 121.297 94.5773 121.595 94.582 121.96C94.5773 122.274 94.6921 122.529 94.9264 122.726C95.1653 122.923 95.5589 123.085 96.1072 123.211L97.9486 123.605C98.9701 123.825 99.7292 124.174 100.226 124.652C100.727 125.13 100.98 125.755 100.985 126.529C100.98 127.208 100.781 127.808 100.388 128.328C99.9987 128.843 99.4575 129.246 98.764 129.537C98.0705 129.827 97.2739 129.973 96.3742 129.973C95.0529 129.973 93.9892 129.696 93.1833 129.143C92.3773 128.586 91.897 127.81 91.7424 126.817L94.2235 126.578C94.3359 127.065 94.5749 127.433 94.9404 127.681C95.3059 127.93 95.7815 128.054 96.3672 128.054C96.9717 128.054 97.4566 127.93 97.8221 127.681C98.1923 127.433 98.3774 127.126 98.3774 126.761C98.3774 126.451 98.2579 126.196 98.0189 125.994C97.7846 125.793 97.4192 125.638 96.9225 125.531L95.081 125.144C94.0454 124.928 93.2793 124.565 92.7826 124.055C92.2859 123.539 92.0399 122.888 92.0446 122.101C92.0399 121.435 92.2203 120.859 92.5858 120.372C92.956 119.88 93.4691 119.5 94.1251 119.233C94.7858 118.961 95.5472 118.825 96.4094 118.825C97.6745 118.825 98.6702 119.095 99.3965 119.634C100.128 120.172 100.58 120.901 100.753 121.819ZM106.19 129.98C105.506 129.98 104.889 129.858 104.341 129.614C103.798 129.366 103.367 129 103.048 128.518C102.734 128.035 102.577 127.44 102.577 126.732C102.577 126.123 102.689 125.62 102.914 125.221C103.139 124.823 103.446 124.504 103.835 124.265C104.224 124.026 104.662 123.846 105.149 123.724C105.641 123.598 106.15 123.506 106.675 123.45C107.307 123.384 107.82 123.326 108.214 123.274C108.608 123.218 108.893 123.134 109.071 123.021C109.254 122.904 109.346 122.724 109.346 122.48V122.438C109.346 121.908 109.189 121.498 108.875 121.208C108.561 120.917 108.108 120.772 107.518 120.772C106.895 120.772 106.401 120.908 106.035 121.18C105.674 121.452 105.431 121.773 105.304 122.143L102.928 121.805C103.116 121.149 103.425 120.601 103.856 120.161C104.287 119.716 104.814 119.383 105.438 119.163C106.061 118.938 106.75 118.825 107.504 118.825C108.024 118.825 108.542 118.886 109.057 119.008C109.573 119.13 110.044 119.331 110.47 119.612C110.896 119.889 111.239 120.266 111.496 120.744C111.759 121.222 111.89 121.819 111.89 122.536V129.762H109.444V128.279H109.36C109.205 128.579 108.987 128.86 108.706 129.122C108.429 129.38 108.08 129.588 107.659 129.748C107.242 129.902 106.752 129.98 106.19 129.98ZM106.85 128.11C107.361 128.11 107.804 128.009 108.179 127.808C108.554 127.602 108.842 127.33 109.043 126.992C109.249 126.655 109.353 126.287 109.353 125.889V124.617C109.273 124.682 109.137 124.743 108.945 124.8C108.757 124.856 108.547 124.905 108.312 124.947C108.078 124.989 107.846 125.027 107.616 125.06C107.387 125.092 107.188 125.121 107.019 125.144C106.64 125.196 106.3 125.28 106 125.397C105.7 125.514 105.463 125.678 105.29 125.889C105.117 126.095 105.03 126.362 105.03 126.69C105.03 127.159 105.201 127.513 105.543 127.752C105.885 127.991 106.321 128.11 106.85 128.11ZM119.143 134.035C118.23 134.035 117.445 133.911 116.789 133.663C116.133 133.419 115.606 133.091 115.207 132.679C114.809 132.266 114.533 131.809 114.378 131.308L116.669 130.753C116.772 130.964 116.922 131.172 117.119 131.378C117.316 131.589 117.581 131.763 117.913 131.898C118.251 132.039 118.675 132.109 119.186 132.109C119.907 132.109 120.505 131.934 120.978 131.582C121.451 131.235 121.688 130.664 121.688 129.867V127.822H121.561C121.43 128.084 121.238 128.354 120.985 128.63C120.737 128.907 120.406 129.139 119.994 129.326C119.586 129.513 119.073 129.607 118.455 129.607C117.625 129.607 116.873 129.413 116.198 129.024C115.528 128.63 114.994 128.044 114.596 127.267C114.202 126.484 114.005 125.505 114.005 124.329C114.005 123.143 114.202 122.143 114.596 121.327C114.994 120.507 115.531 119.887 116.205 119.465C116.88 119.038 117.632 118.825 118.462 118.825C119.094 118.825 119.614 118.933 120.022 119.149C120.434 119.359 120.762 119.615 121.006 119.915C121.25 120.21 121.435 120.489 121.561 120.751H121.702V118.966H124.211V129.937C124.211 130.861 123.991 131.624 123.55 132.229C123.11 132.833 122.508 133.285 121.744 133.585C120.98 133.885 120.113 134.035 119.143 134.035ZM119.164 127.611C119.703 127.611 120.163 127.48 120.542 127.217C120.922 126.955 121.21 126.578 121.407 126.086C121.603 125.594 121.702 125.003 121.702 124.315C121.702 123.635 121.603 123.04 121.407 122.529C121.214 122.019 120.929 121.623 120.549 121.341C120.174 121.056 119.713 120.913 119.164 120.913C118.597 120.913 118.124 121.06 117.745 121.356C117.365 121.651 117.079 122.056 116.887 122.571C116.695 123.082 116.599 123.663 116.599 124.315C116.599 124.975 116.695 125.554 116.887 126.051C117.084 126.543 117.372 126.927 117.752 127.203C118.136 127.475 118.607 127.611 119.164 127.611ZM131.598 129.973C130.516 129.973 129.581 129.748 128.794 129.298C128.011 128.843 127.409 128.201 126.987 127.372C126.566 126.538 126.355 125.556 126.355 124.427C126.355 123.317 126.566 122.342 126.987 121.503C127.414 120.66 128.009 120.004 128.773 119.535C129.536 119.062 130.434 118.825 131.464 118.825C132.13 118.825 132.758 118.933 133.348 119.149C133.943 119.359 134.468 119.687 134.923 120.133C135.382 120.578 135.743 121.145 136.005 121.833C136.267 122.518 136.399 123.333 136.399 124.279V125.06H127.55V123.345H133.96C133.955 122.857 133.85 122.424 133.643 122.044C133.437 121.66 133.149 121.358 132.779 121.138C132.413 120.917 131.987 120.807 131.5 120.807C130.98 120.807 130.523 120.934 130.129 121.187C129.735 121.435 129.429 121.763 129.208 122.171C128.993 122.574 128.883 123.017 128.878 123.499V124.996C128.878 125.624 128.993 126.163 129.222 126.613C129.452 127.058 129.773 127.4 130.185 127.639C130.598 127.873 131.08 127.991 131.633 127.991C132.003 127.991 132.338 127.939 132.638 127.836C132.938 127.728 133.198 127.571 133.418 127.365C133.639 127.159 133.805 126.903 133.917 126.599L136.293 126.866C136.143 127.494 135.857 128.042 135.436 128.511C135.019 128.975 134.484 129.335 133.833 129.593C133.182 129.846 132.437 129.973 131.598 129.973Z" fill="#8B5CF6"/>
<rect x="29.6887" y="167.253" width="469.622" height="269.898" rx="9.89626" stroke="#3B82F6" stroke-opacity="0.5" stroke-width="1.79932"/>
<path d="M53.6492 209.748H50.8659L55.9335 195.354H59.1526L64.2272 209.748H61.4439L57.5993 198.306H57.4868L53.6492 209.748ZM53.7406 204.104H61.3315V206.199H53.7406V204.104ZM70.3773 214.022C69.4635 214.022 68.6787 213.897 68.0227 213.649C67.3667 213.405 66.8395 213.077 66.4412 212.665C66.043 212.253 65.7665 211.796 65.6119 211.294L67.9032 210.739C68.0063 210.95 68.1562 211.159 68.353 211.365C68.5498 211.576 68.8146 211.749 69.1472 211.885C69.4846 212.025 69.9087 212.096 70.4194 212.096C71.141 212.096 71.7385 211.92 72.2117 211.569C72.685 211.222 72.9216 210.65 72.9216 209.854V207.808H72.7951C72.6639 208.071 72.4718 208.34 72.2187 208.617C71.9704 208.893 71.6401 209.125 71.2277 209.312C70.8201 209.5 70.307 209.594 69.6884 209.594C68.8591 209.594 68.107 209.399 67.4323 209.01C66.7622 208.617 66.228 208.031 65.8298 207.253C65.4362 206.47 65.2394 205.491 65.2394 204.315C65.2394 203.13 65.4362 202.129 65.8298 201.314C66.228 200.494 66.7646 199.873 67.4393 199.451C68.114 199.025 68.8661 198.812 69.6955 198.812C70.3281 198.812 70.8482 198.919 71.2558 199.135C71.6682 199.346 71.9962 199.601 72.2398 199.901C72.4835 200.196 72.6686 200.475 72.7951 200.737H72.9357V198.952H75.4449V209.924C75.4449 210.847 75.2246 211.611 74.7842 212.215C74.3437 212.82 73.7416 213.272 72.9778 213.572C72.2141 213.872 71.3472 214.022 70.3773 214.022ZM70.3983 207.597C70.9372 207.597 71.3964 207.466 71.7759 207.204C72.1555 206.941 72.4437 206.564 72.6405 206.072C72.8373 205.58 72.9357 204.99 72.9357 204.301C72.9357 203.622 72.8373 203.026 72.6405 202.516C72.4483 202.005 72.1625 201.609 71.783 201.328C71.4081 201.042 70.9466 200.899 70.3983 200.899C69.8314 200.899 69.3581 201.047 68.9786 201.342C68.599 201.637 68.3132 202.042 68.1211 202.558C67.929 203.069 67.8329 203.65 67.8329 204.301C67.8329 204.962 67.929 205.54 68.1211 206.037C68.3179 206.529 68.606 206.913 68.9856 207.19C69.3698 207.462 69.8407 207.597 70.3983 207.597ZM82.8319 209.959C81.7495 209.959 80.8147 209.734 80.0275 209.284C79.245 208.83 78.6429 208.188 78.2212 207.358C77.7994 206.524 77.5886 205.543 77.5886 204.413C77.5886 203.303 77.7994 202.328 78.2212 201.49C78.6476 200.646 79.2426 199.99 80.0064 199.522C80.7702 199.048 81.6675 198.812 82.6984 198.812C83.3637 198.812 83.9916 198.919 84.582 199.135C85.1771 199.346 85.7019 199.674 86.1564 200.119C86.6156 200.564 86.9764 201.131 87.2388 201.82C87.5012 202.504 87.6324 203.319 87.6324 204.266V205.046H78.7834V203.331H85.1935C85.1888 202.844 85.0834 202.41 84.8772 202.031C84.6711 201.647 84.3829 201.344 84.0127 201.124C83.6472 200.904 83.2208 200.794 82.7335 200.794C82.2134 200.794 81.7565 200.92 81.3629 201.173C80.9693 201.422 80.6624 201.75 80.4422 202.157C80.2267 202.56 80.1165 203.003 80.1119 203.486V204.983C80.1119 205.611 80.2267 206.149 80.4563 206.599C80.6859 207.044 81.0068 207.387 81.4192 207.626C81.8315 207.86 82.3141 207.977 82.8671 207.977C83.2372 207.977 83.5723 207.925 83.8721 207.822C84.172 207.715 84.4321 207.558 84.6523 207.351C84.8726 207.145 85.0389 206.89 85.1514 206.585L87.527 206.852C87.3771 207.48 87.0912 208.028 86.6695 208.497C86.2525 208.961 85.7183 209.322 85.067 209.579C84.4157 209.832 83.6707 209.959 82.8319 209.959ZM92.3293 203.422V209.748H89.785V198.952H92.2168V200.787H92.3434C92.5917 200.182 92.9876 199.702 93.5312 199.346C94.0794 198.99 94.7565 198.812 95.5625 198.812C96.3075 198.812 96.9565 198.971 97.5094 199.29C98.067 199.608 98.4981 200.07 98.8026 200.674C99.1119 201.279 99.2642 202.012 99.2595 202.874V209.748H96.7151V203.268C96.7151 202.546 96.5277 201.982 96.1529 201.574C95.7827 201.166 95.2696 200.962 94.6136 200.962C94.1685 200.962 93.7725 201.061 93.4258 201.258C93.0837 201.45 92.8143 201.729 92.6175 202.094C92.4254 202.459 92.3293 202.902 92.3293 203.422ZM107.237 198.952V200.92H101.031V198.952H107.237ZM102.563 196.366H105.107V206.501C105.107 206.843 105.159 207.105 105.262 207.288C105.37 207.466 105.51 207.588 105.684 207.654C105.857 207.719 106.049 207.752 106.26 207.752C106.419 207.752 106.565 207.74 106.696 207.717C106.832 207.693 106.935 207.672 107.005 207.654L107.434 209.643C107.298 209.69 107.103 209.741 106.85 209.797C106.602 209.854 106.297 209.886 105.937 209.896C105.299 209.914 104.725 209.818 104.215 209.608C103.704 209.392 103.299 209.059 102.999 208.61C102.704 208.16 102.558 207.597 102.563 206.923V196.366ZM114.387 209.748V195.354H119.785C120.891 195.354 121.818 195.546 122.568 195.93C123.322 196.314 123.892 196.853 124.276 197.547C124.665 198.235 124.859 199.039 124.859 199.957C124.859 200.88 124.663 201.682 124.269 202.361C123.88 203.036 123.306 203.558 122.547 203.928C121.788 204.294 120.855 204.477 119.75 204.477H115.905V202.312H119.398C120.045 202.312 120.574 202.223 120.987 202.045C121.399 201.862 121.704 201.597 121.9 201.251C122.102 200.899 122.203 200.468 122.203 199.957C122.203 199.447 122.102 199.011 121.9 198.65C121.699 198.285 121.392 198.008 120.98 197.821C120.567 197.629 120.035 197.532 119.384 197.532H116.994V209.748H114.387ZM121.823 203.226L125.387 209.748H122.477L118.976 203.226H121.823ZM134.028 205.208V198.952H136.573V209.748H134.105V207.829H133.993C133.749 208.434 133.349 208.928 132.791 209.312C132.238 209.697 131.556 209.889 130.746 209.889C130.038 209.889 129.413 209.732 128.869 209.418C128.33 209.099 127.909 208.638 127.604 208.033C127.299 207.424 127.147 206.688 127.147 205.826V198.952H129.692V205.433C129.692 206.117 129.879 206.66 130.254 207.063C130.629 207.466 131.121 207.668 131.73 207.668C132.105 207.668 132.468 207.576 132.819 207.394C133.171 207.211 133.459 206.939 133.684 206.578C133.913 206.213 134.028 205.756 134.028 205.208ZM141.733 203.422V209.748H139.189V198.952H141.621V200.787H141.747C141.996 200.182 142.392 199.702 142.935 199.346C143.483 198.99 144.16 198.812 144.966 198.812C145.711 198.812 146.36 198.971 146.913 199.29C147.471 199.608 147.902 200.07 148.207 200.674C148.516 201.279 148.668 202.012 148.663 202.874V209.748H146.119V203.268C146.119 202.546 145.932 201.982 145.557 201.574C145.187 201.166 144.674 200.962 144.018 200.962C143.572 200.962 143.176 201.061 142.83 201.258C142.488 201.45 142.218 201.729 142.021 202.094C141.829 202.459 141.733 202.902 141.733 203.422Z" fill="#3B82F6"/>
<rect x="164.775" y="180.748" width="185.578" height="43.3946" rx="7.19728" fill="#9F9F9F" fill-opacity="0.22"/>
<path d="M185.018 203.345L185.724 204.757C185.962 205.234 186.082 205.473 186.241 205.68C186.383 205.864 186.548 206.028 186.731 206.17C186.938 206.33 187.177 206.449 187.655 206.688L189.066 207.394L187.655 208.099C187.177 208.338 186.938 208.458 186.731 208.617C186.548 208.759 186.383 208.923 186.241 209.107C186.082 209.314 185.962 209.553 185.724 210.031L185.018 211.442L184.312 210.031C184.073 209.553 183.954 209.314 183.794 209.107C183.653 208.923 183.488 208.759 183.304 208.617C183.097 208.458 182.859 208.338 182.381 208.099L180.969 207.394L182.381 206.688C182.859 206.449 183.097 206.33 183.304 206.17C183.488 206.028 183.653 205.864 183.794 205.68C183.954 205.473 184.073 205.234 184.312 204.757L185.018 203.345Z" fill="#424242"/>
<path d="M192.665 193.449L193.725 196.206C193.979 196.865 194.106 197.195 194.303 197.473C194.478 197.719 194.693 197.933 194.939 198.108C195.216 198.306 195.546 198.432 196.206 198.686L198.963 199.746L196.206 200.807C195.546 201.061 195.216 201.187 194.939 201.385C194.693 201.559 194.478 201.774 194.303 202.02C194.106 202.298 193.979 202.627 193.725 203.287L192.665 206.044L191.605 203.287C191.351 202.627 191.224 202.298 191.027 202.02C190.852 201.774 190.637 201.559 190.391 201.385C190.114 201.187 189.784 201.061 189.124 200.807L186.367 199.746L189.124 198.686C189.784 198.432 190.114 198.306 190.391 198.108C190.637 197.933 190.852 197.719 191.027 197.473C191.224 197.195 191.351 196.865 191.605 196.206L192.665 193.449Z" fill="#424242"/>
<path d="M185.018 203.345L185.724 204.757C185.962 205.234 186.082 205.473 186.241 205.68C186.383 205.864 186.548 206.028 186.731 206.17C186.938 206.33 187.177 206.449 187.655 206.688L189.066 207.394L187.655 208.099C187.177 208.338 186.938 208.458 186.731 208.617C186.548 208.759 186.383 208.923 186.241 209.107C186.082 209.314 185.962 209.553 185.724 210.031L185.018 211.442L184.312 210.031C184.073 209.553 183.954 209.314 183.794 209.107C183.653 208.923 183.488 208.759 183.304 208.617C183.097 208.458 182.859 208.338 182.381 208.099L180.969 207.394L182.381 206.688C182.859 206.449 183.097 206.33 183.304 206.17C183.488 206.028 183.653 205.864 183.794 205.68C183.954 205.473 184.073 205.234 184.312 204.757L185.018 203.345Z" stroke="#424242" stroke-width="0.719728" stroke-linecap="round" stroke-linejoin="round"/>
<path d="M192.665 193.449L193.725 196.206C193.979 196.865 194.106 197.195 194.303 197.473C194.478 197.719 194.693 197.933 194.939 198.108C195.216 198.306 195.546 198.432 196.206 198.686L198.963 199.746L196.206 200.807C195.546 201.061 195.216 201.187 194.939 201.385C194.693 201.559 194.478 201.774 194.303 202.02C194.106 202.298 193.979 202.627 193.725 203.287L192.665 206.044L191.605 203.287C191.351 202.627 191.224 202.298 191.027 202.02C190.852 201.774 190.637 201.559 190.391 201.385C190.114 201.187 189.784 201.061 189.124 200.807L186.367 199.746L189.124 198.686C189.784 198.432 190.114 198.306 190.391 198.108C190.637 197.933 190.852 197.719 191.027 197.473C191.224 197.195 191.351 196.865 191.605 196.206L192.665 193.449Z" stroke="#424242" stroke-width="0.719728" stroke-linecap="round" stroke-linejoin="round"/>
<path d="M209.243 208.945V199.131H211.09V200.69H211.192C211.371 200.162 211.686 199.746 212.138 199.444C212.594 199.137 213.109 198.984 213.684 198.984C213.804 198.984 213.944 198.988 214.106 198.997C214.272 199.005 214.402 199.016 214.496 199.029V200.856C214.419 200.835 214.283 200.811 214.087 200.786C213.891 200.756 213.695 200.741 213.499 200.741C213.047 200.741 212.645 200.837 212.291 201.029C211.942 201.216 211.665 201.478 211.461 201.815C211.256 202.147 211.154 202.526 211.154 202.952V208.945H209.243ZM220.028 209.143C219.061 209.143 218.228 208.937 217.529 208.524C216.835 208.106 216.298 207.521 215.919 206.767C215.544 206.008 215.357 205.12 215.357 204.102C215.357 203.097 215.544 202.211 215.919 201.444C216.298 200.677 216.826 200.079 217.504 199.649C218.185 199.218 218.982 199.003 219.893 199.003C220.447 199.003 220.984 199.095 221.504 199.278C222.023 199.461 222.49 199.749 222.903 200.141C223.316 200.532 223.642 201.041 223.88 201.668C224.119 202.29 224.238 203.046 224.238 203.936V204.613H216.437V203.182H222.366C222.366 202.679 222.264 202.234 222.059 201.847C221.855 201.455 221.567 201.146 221.197 200.92C220.831 200.694 220.4 200.581 219.906 200.581C219.369 200.581 218.901 200.713 218.5 200.978C218.104 201.237 217.798 201.578 217.58 202C217.367 202.417 217.261 202.871 217.261 203.361V204.479C217.261 205.135 217.376 205.693 217.606 206.153C217.84 206.613 218.166 206.965 218.583 207.207C219.001 207.446 219.489 207.565 220.047 207.565C220.409 207.565 220.739 207.514 221.037 207.412C221.335 207.305 221.593 207.148 221.81 206.939C222.027 206.73 222.194 206.473 222.309 206.166L224.117 206.492C223.972 207.024 223.712 207.491 223.337 207.891C222.967 208.287 222.5 208.596 221.938 208.818C221.38 209.035 220.743 209.143 220.028 209.143ZM226.358 208.945V199.131H228.269V208.945H226.358ZM227.323 197.617C226.991 197.617 226.705 197.506 226.467 197.284C226.232 197.059 226.115 196.79 226.115 196.479C226.115 196.164 226.232 195.896 226.467 195.674C226.705 195.448 226.991 195.336 227.323 195.336C227.655 195.336 227.938 195.448 228.173 195.674C228.411 195.896 228.531 196.164 228.531 196.479C228.531 196.79 228.411 197.059 228.173 197.284C227.938 197.506 227.655 197.617 227.323 197.617ZM230.839 208.945V199.131H232.673V200.728H232.794C232.998 200.187 233.333 199.766 233.797 199.463C234.262 199.157 234.817 199.003 235.465 199.003C236.121 199.003 236.67 199.157 237.113 199.463C237.561 199.77 237.891 200.192 238.104 200.728H238.206C238.44 200.204 238.813 199.787 239.324 199.476C239.835 199.161 240.445 199.003 241.152 199.003C242.042 199.003 242.768 199.282 243.331 199.84C243.897 200.398 244.18 201.24 244.18 202.364V208.945H242.27V202.543C242.27 201.878 242.089 201.397 241.727 201.099C241.365 200.801 240.932 200.652 240.43 200.652C239.808 200.652 239.324 200.843 238.979 201.227C238.634 201.606 238.462 202.094 238.462 202.69V208.945H236.558V202.422C236.558 201.889 236.391 201.461 236.059 201.137C235.727 200.814 235.294 200.652 234.762 200.652C234.4 200.652 234.066 200.748 233.759 200.939C233.456 201.127 233.211 201.389 233.024 201.725C232.841 202.062 232.749 202.451 232.749 202.894V208.945H230.839ZM246.894 208.945V195.859H248.805V200.722H248.92C249.031 200.517 249.19 200.281 249.399 200.013C249.608 199.744 249.897 199.51 250.268 199.31C250.639 199.105 251.129 199.003 251.738 199.003C252.53 199.003 253.237 199.203 253.859 199.604C254.481 200.004 254.969 200.581 255.322 201.335C255.68 202.089 255.859 202.997 255.859 204.057C255.859 205.118 255.682 206.027 255.329 206.786C254.975 207.54 254.489 208.121 253.872 208.53C253.254 208.935 252.549 209.137 251.757 209.137C251.16 209.137 250.673 209.037 250.294 208.837C249.919 208.637 249.625 208.402 249.412 208.134C249.199 207.866 249.035 207.627 248.92 207.418H248.76V208.945H246.894ZM248.766 204.038C248.766 204.728 248.867 205.333 249.067 205.853C249.267 206.373 249.557 206.779 249.936 207.073C250.315 207.363 250.779 207.508 251.329 207.508C251.9 207.508 252.377 207.357 252.76 207.054C253.143 206.747 253.433 206.332 253.629 205.808C253.829 205.284 253.929 204.694 253.929 204.038C253.929 203.391 253.831 202.809 253.635 202.294C253.444 201.778 253.154 201.372 252.766 201.073C252.383 200.775 251.904 200.626 251.329 200.626C250.775 200.626 250.306 200.769 249.923 201.054C249.544 201.34 249.256 201.738 249.06 202.249C248.864 202.76 248.766 203.357 248.766 204.038ZM264.221 204.875V199.131H266.138V208.945H264.26V207.246H264.158C263.932 207.77 263.57 208.206 263.071 208.556C262.577 208.901 261.962 209.073 261.225 209.073C260.594 209.073 260.036 208.935 259.551 208.658C259.069 208.377 258.69 207.961 258.413 207.412C258.141 206.862 258.004 206.183 258.004 205.374V199.131H259.915V205.144C259.915 205.812 260.1 206.345 260.471 206.741C260.841 207.137 261.323 207.335 261.915 207.335C262.273 207.335 262.628 207.246 262.982 207.067C263.34 206.888 263.636 206.617 263.87 206.255C264.109 205.893 264.226 205.433 264.221 204.875ZM268.705 208.945V199.131H270.552V200.69H270.654C270.833 200.162 271.148 199.746 271.6 199.444C272.056 199.137 272.571 198.984 273.146 198.984C273.265 198.984 273.406 198.988 273.568 198.997C273.734 199.005 273.864 199.016 273.958 199.029V200.856C273.881 200.835 273.745 200.811 273.549 200.786C273.353 200.756 273.157 200.741 272.961 200.741C272.509 200.741 272.107 200.837 271.753 201.029C271.404 201.216 271.127 201.478 270.923 201.815C270.718 202.147 270.616 202.526 270.616 202.952V208.945H268.705ZM282.965 201.527L281.234 201.834C281.161 201.612 281.046 201.401 280.889 201.201C280.735 201.001 280.527 200.837 280.263 200.709C279.998 200.581 279.668 200.517 279.272 200.517C278.731 200.517 278.28 200.639 277.918 200.882C277.556 201.12 277.374 201.429 277.374 201.808C277.374 202.136 277.496 202.4 277.739 202.601C277.981 202.801 278.373 202.965 278.914 203.093L280.473 203.45C281.377 203.659 282.05 203.981 282.493 204.415C282.936 204.85 283.157 205.414 283.157 206.108C283.157 206.696 282.987 207.22 282.646 207.68C282.309 208.136 281.839 208.494 281.234 208.754C280.633 209.014 279.937 209.143 279.144 209.143C278.045 209.143 277.149 208.909 276.454 208.441C275.76 207.968 275.334 207.297 275.176 206.428L277.023 206.147C277.138 206.628 277.374 206.992 277.732 207.239C278.09 207.482 278.557 207.604 279.132 207.604C279.758 207.604 280.258 207.474 280.633 207.214C281.008 206.95 281.195 206.628 281.195 206.249C281.195 205.942 281.08 205.685 280.85 205.476C280.625 205.267 280.277 205.11 279.809 205.003L278.148 204.639C277.232 204.43 276.554 204.098 276.116 203.642C275.681 203.186 275.464 202.609 275.464 201.91C275.464 201.331 275.626 200.824 275.95 200.39C276.273 199.955 276.721 199.617 277.291 199.374C277.862 199.127 278.516 199.003 279.253 199.003C280.314 199.003 281.149 199.233 281.758 199.693C282.367 200.149 282.769 200.76 282.965 201.527ZM289.488 209.143C288.521 209.143 287.688 208.937 286.989 208.524C286.295 208.106 285.758 207.521 285.379 206.767C285.004 206.008 284.817 205.12 284.817 204.102C284.817 203.097 285.004 202.211 285.379 201.444C285.758 200.677 286.286 200.079 286.964 199.649C287.645 199.218 288.442 199.003 289.353 199.003C289.907 199.003 290.444 199.095 290.964 199.278C291.483 199.461 291.95 199.749 292.363 200.141C292.776 200.532 293.102 201.041 293.341 201.668C293.579 202.29 293.698 203.046 293.698 203.936V204.613H285.897V203.182H291.826C291.826 202.679 291.724 202.234 291.52 201.847C291.315 201.455 291.028 201.146 290.657 200.92C290.291 200.694 289.86 200.581 289.366 200.581C288.829 200.581 288.361 200.713 287.96 200.978C287.564 201.237 287.258 201.578 287.04 202C286.827 202.417 286.721 202.871 286.721 203.361V204.479C286.721 205.135 286.836 205.693 287.066 206.153C287.3 206.613 287.626 206.965 288.044 207.207C288.461 207.446 288.949 207.565 289.507 207.565C289.869 207.565 290.199 207.514 290.497 207.412C290.795 207.305 291.053 207.148 291.27 206.939C291.488 206.73 291.654 206.473 291.769 206.166L293.577 206.492C293.432 207.024 293.172 207.491 292.797 207.891C292.427 208.287 291.96 208.596 291.398 208.818C290.84 209.035 290.203 209.143 289.488 209.143ZM305.161 199.131V200.664H299.8V199.131H305.161ZM301.238 196.78H303.149V206.064C303.149 206.434 303.204 206.713 303.315 206.901C303.426 207.084 303.568 207.21 303.743 207.278C303.922 207.342 304.116 207.374 304.324 207.374C304.478 207.374 304.612 207.363 304.727 207.342C304.842 207.32 304.931 207.303 304.995 207.291L305.34 208.869C305.23 208.911 305.072 208.954 304.867 208.997C304.663 209.043 304.407 209.069 304.101 209.073C303.598 209.082 303.129 208.992 302.695 208.805C302.26 208.617 301.909 208.328 301.641 207.936C301.372 207.544 301.238 207.052 301.238 206.46V196.78ZM310.131 209.163C309.509 209.163 308.947 209.048 308.444 208.818C307.941 208.583 307.543 208.245 307.249 207.802C306.96 207.359 306.815 206.816 306.815 206.172C306.815 205.619 306.921 205.163 307.134 204.805C307.347 204.447 307.635 204.164 307.997 203.955C308.359 203.746 308.764 203.589 309.211 203.482C309.658 203.376 310.114 203.295 310.578 203.239C311.166 203.171 311.643 203.116 312.009 203.073C312.376 203.026 312.642 202.952 312.808 202.85C312.974 202.747 313.057 202.581 313.057 202.351V202.307C313.057 201.749 312.9 201.316 312.585 201.009C312.274 200.703 311.809 200.549 311.192 200.549C310.548 200.549 310.041 200.692 309.671 200.978C309.305 201.259 309.051 201.572 308.91 201.917L307.115 201.508C307.328 200.912 307.639 200.43 308.048 200.064C308.461 199.693 308.936 199.425 309.473 199.259C310.009 199.088 310.574 199.003 311.166 199.003C311.558 199.003 311.973 199.05 312.412 199.144C312.855 199.233 313.268 199.399 313.652 199.642C314.039 199.885 314.357 200.232 314.604 200.684C314.851 201.131 314.974 201.712 314.974 202.428V208.945H313.108V207.604H313.032C312.908 207.851 312.723 208.093 312.476 208.332C312.229 208.571 311.911 208.769 311.524 208.926C311.136 209.084 310.672 209.163 310.131 209.163ZM310.546 207.629C311.074 207.629 311.526 207.525 311.901 207.316C312.28 207.107 312.567 206.835 312.763 206.498C312.964 206.157 313.064 205.793 313.064 205.406V204.14C312.996 204.209 312.864 204.272 312.668 204.332C312.476 204.387 312.257 204.436 312.009 204.479C311.762 204.517 311.522 204.554 311.287 204.588C311.053 204.618 310.857 204.643 310.7 204.664C310.329 204.711 309.99 204.79 309.684 204.901C309.381 205.012 309.138 205.171 308.955 205.38C308.776 205.584 308.687 205.857 308.687 206.198C308.687 206.671 308.861 207.029 309.211 207.271C309.56 207.51 310.005 207.629 310.546 207.629ZM324.873 201.527L323.142 201.834C323.069 201.612 322.954 201.401 322.797 201.201C322.643 201.001 322.435 200.837 322.171 200.709C321.906 200.581 321.576 200.517 321.18 200.517C320.639 200.517 320.188 200.639 319.826 200.882C319.463 201.12 319.282 201.429 319.282 201.808C319.282 202.136 319.404 202.4 319.647 202.601C319.889 202.801 320.281 202.965 320.822 203.093L322.381 203.45C323.284 203.659 323.958 203.981 324.401 204.415C324.844 204.85 325.065 205.414 325.065 206.108C325.065 206.696 324.895 207.22 324.554 207.68C324.217 208.136 323.747 208.494 323.142 208.754C322.541 209.014 321.845 209.143 321.052 209.143C319.953 209.143 319.057 208.909 318.362 208.441C317.668 207.968 317.242 207.297 317.084 206.428L318.931 206.147C319.046 206.628 319.282 206.992 319.64 207.239C319.998 207.482 320.465 207.604 321.04 207.604C321.666 207.604 322.166 207.474 322.541 207.214C322.916 206.95 323.103 206.628 323.103 206.249C323.103 205.942 322.988 205.685 322.758 205.476C322.533 205.267 322.185 205.11 321.717 205.003L320.056 204.639C319.14 204.43 318.462 204.098 318.024 203.642C317.589 203.186 317.372 202.609 317.372 201.91C317.372 201.331 317.534 200.824 317.858 200.39C318.181 199.955 318.629 199.617 319.199 199.374C319.77 199.127 320.424 199.003 321.161 199.003C322.222 199.003 323.057 199.233 323.666 199.693C324.275 200.149 324.677 200.76 324.873 201.527ZM328.923 205.616L328.91 203.284H329.242L333.153 199.131H335.44L330.98 203.859H330.68L328.923 205.616ZM327.166 208.945V195.859H329.076V208.945H327.166ZM333.364 208.945L329.849 204.281L331.166 202.946L335.709 208.945H333.364Z" fill="#424242"/>
<rect x="51.279" y="237.427" width="426.438" height="56.5946" rx="6.29728" stroke="#F59E0B" stroke-opacity="0.5" stroke-width="1.8" stroke-linejoin="round"/>
<path d="M73.5522 272.724V258.329H82.5769V260.199H75.7241V264.585H82.106V266.447H75.7241V270.854H82.6613V272.724H73.5522ZM85.3093 272.724V261.928H87.3265V263.685H87.4601C87.685 263.09 88.0528 262.626 88.5635 262.294C89.0743 261.956 89.6858 261.787 90.398 261.787C91.1196 261.787 91.7241 261.956 92.2114 262.294C92.7034 262.631 93.0665 263.095 93.3008 263.685H93.4133C93.671 263.109 94.081 262.65 94.6433 262.308C95.2056 261.961 95.8756 261.787 96.6535 261.787C97.6328 261.787 98.4317 262.094 99.0502 262.708C99.6734 263.322 99.985 264.247 99.985 265.485V272.724H97.8835V265.681C97.8835 264.95 97.6843 264.421 97.286 264.093C96.8877 263.765 96.4121 263.601 95.8592 263.601C95.1751 263.601 94.6433 263.812 94.2637 264.233C93.8842 264.65 93.6944 265.187 93.6944 265.843V272.724H91.5999V265.548C91.5999 264.962 91.4172 264.491 91.0517 264.135C90.6862 263.779 90.2106 263.601 89.6249 263.601C89.2266 263.601 88.8587 263.706 88.5214 263.917C88.1887 264.123 87.9193 264.411 87.7131 264.782C87.5116 265.152 87.4109 265.581 87.4109 266.068V272.724H85.3093ZM102.97 272.724V258.329H105.072V263.678H105.198C105.32 263.453 105.496 263.193 105.726 262.898C105.955 262.603 106.274 262.345 106.681 262.125C107.089 261.9 107.628 261.787 108.298 261.787C109.17 261.787 109.947 262.008 110.632 262.448C111.316 262.889 111.852 263.524 112.241 264.353C112.635 265.182 112.832 266.18 112.832 267.347C112.832 268.514 112.637 269.514 112.248 270.348C111.859 271.178 111.325 271.817 110.646 272.267C109.966 272.712 109.191 272.935 108.319 272.935C107.663 272.935 107.127 272.825 106.71 272.604C106.297 272.384 105.974 272.127 105.74 271.831C105.505 271.536 105.325 271.274 105.198 271.044H105.023V272.724H102.97ZM105.03 267.326C105.03 268.085 105.14 268.75 105.36 269.322C105.58 269.894 105.899 270.341 106.316 270.665C106.733 270.983 107.244 271.143 107.848 271.143C108.476 271.143 109.001 270.976 109.423 270.644C109.844 270.306 110.163 269.849 110.379 269.273C110.599 268.697 110.709 268.048 110.709 267.326C110.709 266.614 110.601 265.974 110.386 265.407C110.175 264.84 109.856 264.393 109.43 264.065C109.008 263.737 108.481 263.573 107.848 263.573C107.239 263.573 106.724 263.73 106.302 264.044C105.885 264.358 105.569 264.796 105.353 265.358C105.138 265.92 105.03 266.576 105.03 267.326ZM119.844 272.942C118.781 272.942 117.865 272.715 117.096 272.26C116.332 271.801 115.742 271.157 115.325 270.327C114.913 269.493 114.706 268.516 114.706 267.396C114.706 266.29 114.913 265.316 115.325 264.472C115.742 263.629 116.323 262.971 117.068 262.497C117.818 262.024 118.694 261.787 119.697 261.787C120.306 261.787 120.896 261.888 121.468 262.09C122.04 262.291 122.553 262.607 123.007 263.039C123.462 263.47 123.82 264.03 124.083 264.718C124.345 265.403 124.476 266.234 124.476 267.214V267.959H115.894V266.384H122.417C122.417 265.831 122.304 265.342 122.079 264.915C121.854 264.484 121.538 264.144 121.131 263.896C120.728 263.648 120.254 263.524 119.711 263.524C119.12 263.524 118.605 263.669 118.164 263.959C117.729 264.245 117.391 264.62 117.152 265.084C116.918 265.543 116.801 266.042 116.801 266.581V267.811C116.801 268.533 116.927 269.146 117.18 269.652C117.438 270.159 117.797 270.545 118.256 270.812C118.715 271.075 119.252 271.206 119.865 271.206C120.264 271.206 120.627 271.15 120.955 271.037C121.283 270.92 121.566 270.747 121.805 270.517C122.044 270.287 122.227 270.004 122.354 269.667L124.343 270.025C124.183 270.611 123.897 271.124 123.485 271.564C123.077 272 122.564 272.34 121.946 272.583C121.332 272.822 120.631 272.942 119.844 272.942ZM130.849 272.935C129.978 272.935 129.2 272.712 128.516 272.267C127.836 271.817 127.302 271.178 126.913 270.348C126.529 269.514 126.337 268.514 126.337 267.347C126.337 266.18 126.531 265.182 126.92 264.353C127.314 263.524 127.853 262.889 128.537 262.448C129.221 262.008 129.997 261.787 130.863 261.787C131.533 261.787 132.072 261.9 132.48 262.125C132.892 262.345 133.211 262.603 133.436 262.898C133.665 263.193 133.843 263.453 133.97 263.678H134.097V258.329H136.198V272.724H134.146V271.044H133.97C133.843 271.274 133.661 271.536 133.422 271.831C133.187 272.127 132.864 272.384 132.452 272.604C132.039 272.825 131.505 272.935 130.849 272.935ZM131.313 271.143C131.918 271.143 132.428 270.983 132.845 270.665C133.267 270.341 133.586 269.894 133.801 269.322C134.022 268.75 134.132 268.085 134.132 267.326C134.132 266.576 134.024 265.92 133.808 265.358C133.593 264.796 133.277 264.358 132.859 264.044C132.442 263.73 131.927 263.573 131.313 263.573C130.681 263.573 130.153 263.737 129.732 264.065C129.31 264.393 128.991 264.84 128.776 265.407C128.565 265.974 128.46 266.614 128.46 267.326C128.46 268.048 128.567 268.697 128.783 269.273C128.998 269.849 129.317 270.306 129.739 270.644C130.165 270.976 130.69 271.143 131.313 271.143Z" fill="#F59E0B"/>
<rect x="51.279" y="299.42" width="426.438" height="56.5946" rx="6.29728" stroke="#F59E0B" stroke-opacity="0.5" stroke-width="1.8"/>
<path d="M81.4032 324.104C81.3282 323.439 81.0189 322.923 80.4754 322.558C79.9318 322.188 79.2477 322.002 78.423 322.002C77.8326 322.002 77.3219 322.096 76.8908 322.284C76.4597 322.466 76.1247 322.719 75.8857 323.043C75.6514 323.361 75.5343 323.724 75.5343 324.132C75.5343 324.474 75.6139 324.769 75.7733 325.018C75.9373 325.266 76.1505 325.475 76.4129 325.643C76.68 325.807 76.9658 325.945 77.2704 326.058C77.5749 326.166 77.8678 326.255 78.1489 326.325L79.5546 326.691C80.0138 326.803 80.4848 326.955 80.9674 327.147C81.45 327.339 81.8975 327.593 82.3099 327.906C82.7222 328.22 83.0549 328.609 83.3079 329.073C83.5656 329.537 83.6945 330.092 83.6945 330.739C83.6945 331.554 83.4836 332.278 83.0619 332.911C82.6449 333.543 82.0381 334.042 81.2415 334.408C80.4496 334.773 79.4914 334.956 78.3668 334.956C77.2891 334.956 76.3566 334.785 75.5694 334.443C74.7822 334.101 74.1661 333.616 73.7209 332.988C73.2758 332.356 73.0298 331.606 72.9829 330.739H75.1618C75.2039 331.259 75.3726 331.693 75.6678 332.039C75.9677 332.381 76.3496 332.637 76.8135 332.805C77.2821 332.969 77.7952 333.051 78.3528 333.051C78.9666 333.051 79.5125 332.955 79.9904 332.763C80.473 332.566 80.8526 332.295 81.1291 331.948C81.4055 331.596 81.5437 331.186 81.5437 330.718C81.5437 330.292 81.4219 329.942 81.1783 329.671C80.9393 329.399 80.6136 329.174 80.2013 328.996C79.7936 328.818 79.3321 328.661 78.8166 328.525L77.1157 328.061C75.963 327.747 75.0493 327.286 74.3746 326.676C73.7045 326.067 73.3695 325.261 73.3695 324.259C73.3695 323.429 73.5944 322.705 74.0442 322.087C74.4941 321.468 75.1032 320.988 75.8717 320.646C76.6401 320.299 77.507 320.126 78.4722 320.126C79.4469 320.126 80.3067 320.297 81.0517 320.639C81.8015 320.981 82.3919 321.452 82.8229 322.052C83.254 322.647 83.4789 323.331 83.4977 324.104H81.4032ZM90.774 334.935C89.7104 334.935 88.7943 334.708 88.0259 334.253C87.2621 333.794 86.6717 333.15 86.2547 332.32C85.8423 331.486 85.6361 330.509 85.6361 329.389C85.6361 328.284 85.8423 327.309 86.2547 326.466C86.6717 325.622 87.2527 324.964 87.9977 324.491C88.7475 324.017 89.6237 323.781 90.6264 323.781C91.2356 323.781 91.826 323.881 92.3976 324.083C92.9693 324.284 93.4824 324.601 93.9369 325.032C94.3914 325.463 94.7499 326.023 95.0123 326.712C95.2747 327.396 95.4059 328.227 95.4059 329.207V329.952H86.824V328.377H93.3465C93.3465 327.824 93.234 327.335 93.0091 326.908C92.7842 326.477 92.4679 326.138 92.0603 325.889C91.6573 325.641 91.184 325.517 90.6405 325.517C90.0501 325.517 89.5347 325.662 89.0942 325.953C88.6584 326.238 88.3211 326.613 88.0821 327.077C87.8478 327.536 87.7307 328.035 87.7307 328.574V329.804C87.7307 330.526 87.8572 331.14 88.1102 331.646C88.3679 332.152 88.7264 332.538 89.1856 332.805C89.6448 333.068 90.1813 333.199 90.7951 333.199C91.1934 333.199 91.5566 333.143 91.8846 333.03C92.2126 332.913 92.496 332.74 92.735 332.51C92.974 332.281 93.1567 331.997 93.2832 331.66L95.2723 332.018C95.113 332.604 94.8272 333.117 94.4148 333.557C94.0072 333.993 93.4941 334.333 92.8756 334.577C92.2618 334.816 91.5612 334.935 90.774 334.935ZM100.879 334.956C100.195 334.956 99.5768 334.83 99.0238 334.577C98.4709 334.319 98.0328 333.946 97.7095 333.459C97.3909 332.972 97.2316 332.374 97.2316 331.667C97.2316 331.058 97.3487 330.556 97.583 330.163C97.8173 329.769 98.1336 329.457 98.5318 329.228C98.9301 328.998 99.3753 328.825 99.8673 328.708C100.359 328.591 100.861 328.502 101.371 328.441C102.018 328.366 102.543 328.305 102.946 328.258C103.349 328.206 103.642 328.124 103.824 328.012C104.007 327.899 104.098 327.717 104.098 327.464V327.414C104.098 326.801 103.925 326.325 103.578 325.988C103.236 325.65 102.726 325.482 102.046 325.482C101.339 325.482 100.781 325.639 100.373 325.953C99.9704 326.262 99.6916 326.606 99.5369 326.986L97.5619 326.536C97.7962 325.88 98.1382 325.35 98.5881 324.947C99.0426 324.54 99.565 324.245 100.155 324.062C100.746 323.874 101.367 323.781 102.018 323.781C102.449 323.781 102.906 323.832 103.389 323.935C103.876 324.034 104.33 324.216 104.752 324.484C105.179 324.751 105.528 325.133 105.799 325.629C106.071 326.121 106.207 326.761 106.207 327.548V334.717H104.155V333.241H104.07C103.934 333.513 103.731 333.78 103.459 334.042C103.187 334.305 102.838 334.523 102.412 334.696C101.985 334.869 101.474 334.956 100.879 334.956ZM101.336 333.269C101.917 333.269 102.414 333.154 102.826 332.925C103.243 332.695 103.56 332.395 103.775 332.025C103.995 331.65 104.106 331.25 104.106 330.823V329.432C104.031 329.507 103.885 329.577 103.67 329.643C103.459 329.703 103.218 329.757 102.946 329.804C102.674 329.846 102.409 329.886 102.152 329.924C101.894 329.956 101.678 329.985 101.505 330.008C101.097 330.06 100.725 330.146 100.387 330.268C100.055 330.39 99.7876 330.566 99.5861 330.795C99.3893 331.02 99.2909 331.32 99.2909 331.695C99.2909 332.215 99.483 332.609 99.8673 332.876C100.252 333.138 100.741 333.269 101.336 333.269ZM109.006 334.717V323.921H111.037V325.636H111.15C111.347 325.055 111.693 324.598 112.19 324.266C112.692 323.928 113.259 323.76 113.891 323.76C114.022 323.76 114.177 323.764 114.355 323.774C114.538 323.783 114.681 323.795 114.784 323.809V325.819C114.699 325.796 114.549 325.77 114.334 325.742C114.118 325.709 113.903 325.692 113.687 325.692C113.191 325.692 112.748 325.798 112.359 326.009C111.975 326.215 111.67 326.503 111.445 326.873C111.22 327.239 111.108 327.656 111.108 328.124V334.717H109.006ZM120.763 334.935C119.718 334.935 118.819 334.698 118.064 334.225C117.315 333.747 116.738 333.089 116.335 332.25C115.932 331.411 115.731 330.451 115.731 329.368C115.731 328.272 115.937 327.304 116.349 326.466C116.762 325.622 117.343 324.964 118.092 324.491C118.842 324.017 119.725 323.781 120.742 323.781C121.562 323.781 122.293 323.933 122.935 324.238C123.577 324.537 124.095 324.959 124.488 325.503C124.887 326.046 125.123 326.681 125.198 327.407H123.153C123.041 326.901 122.783 326.466 122.38 326.1C121.982 325.735 121.447 325.552 120.777 325.552C120.192 325.552 119.679 325.707 119.238 326.016C118.802 326.32 118.463 326.756 118.219 327.323C117.975 327.885 117.853 328.551 117.853 329.319C117.853 330.106 117.973 330.786 118.212 331.358C118.451 331.929 118.788 332.372 119.224 332.686C119.664 333 120.182 333.157 120.777 333.157C121.176 333.157 121.536 333.084 121.86 332.939C122.188 332.789 122.462 332.576 122.682 332.299C122.907 332.023 123.064 331.69 123.153 331.301H125.198C125.123 331.999 124.896 332.623 124.517 333.171C124.137 333.719 123.629 334.15 122.991 334.464C122.359 334.778 121.616 334.935 120.763 334.935ZM129.547 328.307V334.717H127.446V320.323H129.519V325.678H129.653C129.906 325.097 130.292 324.636 130.812 324.294C131.333 323.952 132.012 323.781 132.851 323.781C133.591 323.781 134.238 323.933 134.791 324.238C135.348 324.542 135.779 324.997 136.084 325.601C136.393 326.201 136.548 326.951 136.548 327.85V334.717H134.446V328.103C134.446 327.311 134.242 326.698 133.835 326.262C133.427 325.821 132.86 325.601 132.134 325.601C131.637 325.601 131.192 325.707 130.798 325.917C130.409 326.128 130.103 326.437 129.878 326.845C129.657 327.248 129.547 327.735 129.547 328.307Z" fill="#F59E0B"/>
<rect x="51.279" y="361.413" width="426.438" height="56.5946" rx="6.29728" stroke="#14B8A6" stroke-opacity="0.5" stroke-width="1.8"/>
<path d="M73.5522 396.71V382.316H75.7241V394.841H82.2466V396.71H73.5522ZM84.7242 396.71V382.316H86.896V394.841H93.4185V396.71H84.7242ZM95.8961 382.316H98.5318L103.114 393.505H103.283L107.866 382.316H110.502V396.71H108.435V386.294H108.302L104.056 396.689H102.341L98.0961 386.287H97.9625V396.71H95.8961V382.316ZM128.639 386.863C128.503 386.437 128.32 386.055 128.091 385.718C127.866 385.376 127.596 385.085 127.282 384.846C126.968 384.602 126.61 384.417 126.207 384.291C125.809 384.164 125.371 384.101 124.893 384.101C124.082 384.101 123.351 384.31 122.7 384.727C122.048 385.144 121.533 385.755 121.153 386.561C120.779 387.362 120.591 388.344 120.591 389.506C120.591 390.673 120.781 391.659 121.16 392.465C121.54 393.271 122.06 393.883 122.721 394.3C123.381 394.717 124.133 394.925 124.977 394.925C125.759 394.925 126.441 394.766 127.022 394.447C127.608 394.129 128.06 393.679 128.379 393.098C128.702 392.512 128.864 391.823 128.864 391.031L129.426 391.137H125.307V389.344H130.965V390.982C130.965 392.191 130.708 393.241 130.192 394.131C129.681 395.016 128.974 395.701 128.07 396.183C127.17 396.666 126.139 396.907 124.977 396.907C123.674 396.907 122.531 396.607 121.547 396.008C120.568 395.408 119.804 394.557 119.256 393.456C118.707 392.35 118.433 391.038 118.433 389.52C118.433 388.372 118.593 387.341 118.911 386.428C119.23 385.514 119.677 384.738 120.254 384.101C120.835 383.459 121.517 382.969 122.299 382.632C123.086 382.29 123.946 382.119 124.879 382.119C125.656 382.119 126.38 382.234 127.05 382.463C127.725 382.693 128.325 383.019 128.85 383.44C129.379 383.862 129.817 384.363 130.164 384.945C130.511 385.521 130.745 386.16 130.867 386.863H128.639ZM138.206 396.928C137.143 396.928 136.227 396.701 135.458 396.246C134.695 395.787 134.104 395.143 133.687 394.314C133.275 393.48 133.069 392.503 133.069 391.383C133.069 390.277 133.275 389.302 133.687 388.459C134.104 387.615 134.685 386.957 135.43 386.484C136.18 386.011 137.056 385.774 138.059 385.774C138.668 385.774 139.258 385.875 139.83 386.076C140.402 386.278 140.915 386.594 141.369 387.025C141.824 387.456 142.182 388.016 142.445 388.705C142.707 389.389 142.838 390.221 142.838 391.2V391.945H134.256V390.371H140.779C140.779 389.818 140.666 389.328 140.442 388.902C140.217 388.471 139.9 388.131 139.493 387.882C139.09 387.634 138.616 387.51 138.073 387.51C137.483 387.51 136.967 387.655 136.527 387.946C136.091 388.232 135.754 388.606 135.515 389.07C135.28 389.529 135.163 390.029 135.163 390.567V391.797C135.163 392.519 135.29 393.133 135.543 393.639C135.8 394.145 136.159 394.532 136.618 394.799C137.077 395.061 137.614 395.192 138.228 395.192C138.626 395.192 138.989 395.136 139.317 395.024C139.645 394.906 139.928 394.733 140.167 394.503C140.406 394.274 140.589 393.99 140.716 393.653L142.705 394.011C142.545 394.597 142.26 395.11 141.847 395.551C141.44 395.986 140.927 396.326 140.308 396.57C139.694 396.809 138.994 396.928 138.206 396.928ZM147.272 390.3V396.71H145.17V385.914H147.187V387.672H147.321C147.569 387.1 147.958 386.641 148.488 386.294C149.022 385.947 149.694 385.774 150.505 385.774C151.24 385.774 151.885 385.929 152.438 386.238C152.991 386.542 153.419 386.997 153.724 387.601C154.028 388.206 154.181 388.953 154.181 389.843V396.71H152.079V390.096C152.079 389.314 151.875 388.702 151.468 388.262C151.06 387.817 150.5 387.594 149.788 387.594C149.301 387.594 148.867 387.7 148.488 387.911C148.113 388.121 147.815 388.431 147.595 388.838C147.379 389.241 147.272 389.729 147.272 390.3ZM161.652 396.928C160.588 396.928 159.672 396.701 158.904 396.246C158.14 395.787 157.55 395.143 157.133 394.314C156.72 393.48 156.514 392.503 156.514 391.383C156.514 390.277 156.72 389.302 157.133 388.459C157.55 387.615 158.131 386.957 158.876 386.484C159.626 386.011 160.502 385.774 161.505 385.774C162.114 385.774 162.704 385.875 163.276 386.076C163.847 386.278 164.36 386.594 164.815 387.025C165.27 387.456 165.628 388.016 165.89 388.705C166.153 389.389 166.284 390.221 166.284 391.2V391.945H157.702V390.371H164.225C164.225 389.818 164.112 389.328 163.887 388.902C163.662 388.471 163.346 388.131 162.938 387.882C162.535 387.634 162.062 387.51 161.519 387.51C160.928 387.51 160.413 387.655 159.972 387.946C159.537 388.232 159.199 388.606 158.96 389.07C158.726 389.529 158.609 390.029 158.609 390.567V391.797C158.609 392.519 158.735 393.133 158.988 393.639C159.246 394.145 159.604 394.532 160.064 394.799C160.523 395.061 161.059 395.192 161.673 395.192C162.071 395.192 162.435 395.136 162.763 395.024C163.091 394.906 163.374 394.733 163.613 394.503C163.852 394.274 164.035 393.99 164.161 393.653L166.15 394.011C165.991 394.597 165.705 395.11 165.293 395.551C164.885 395.986 164.372 396.326 163.754 396.57C163.14 396.809 162.439 396.928 161.652 396.928ZM168.616 396.71V385.914H170.647V387.629H170.759C170.956 387.048 171.303 386.592 171.8 386.259C172.301 385.921 172.868 385.753 173.501 385.753C173.632 385.753 173.786 385.757 173.964 385.767C174.147 385.776 174.29 385.788 174.393 385.802V387.812C174.309 387.789 174.159 387.763 173.943 387.735C173.728 387.702 173.512 387.686 173.297 387.686C172.8 387.686 172.357 387.791 171.968 388.002C171.584 388.208 171.28 388.496 171.055 388.866C170.83 389.232 170.717 389.649 170.717 390.118V396.71H168.616ZM179.257 396.949C178.573 396.949 177.954 396.823 177.401 396.57C176.849 396.312 176.41 395.94 176.087 395.452C175.768 394.965 175.609 394.368 175.609 393.66C175.609 393.051 175.726 392.549 175.961 392.156C176.195 391.762 176.511 391.451 176.909 391.221C177.308 390.991 177.753 390.818 178.245 390.701C178.737 390.584 179.238 390.495 179.749 390.434C180.396 390.359 180.92 390.298 181.323 390.251C181.726 390.2 182.019 390.118 182.202 390.005C182.385 389.893 182.476 389.71 182.476 389.457V389.408C182.476 388.794 182.303 388.318 181.956 387.981C181.614 387.643 181.103 387.475 180.424 387.475C179.716 387.475 179.159 387.632 178.751 387.946C178.348 388.255 178.069 388.599 177.915 388.979L175.939 388.529C176.174 387.873 176.516 387.344 176.966 386.941C177.42 386.533 177.943 386.238 178.533 386.055C179.123 385.868 179.744 385.774 180.396 385.774C180.827 385.774 181.284 385.825 181.766 385.929C182.254 386.027 182.708 386.21 183.13 386.477C183.556 386.744 183.905 387.126 184.177 387.622C184.449 388.114 184.585 388.754 184.585 389.541V396.71H182.532V395.234H182.448C182.312 395.506 182.108 395.773 181.836 396.036C181.565 396.298 181.216 396.516 180.789 396.689C180.363 396.863 179.852 396.949 179.257 396.949ZM179.714 395.262C180.295 395.262 180.792 395.148 181.204 394.918C181.621 394.688 181.937 394.389 182.153 394.018C182.373 393.644 182.483 393.243 182.483 392.817V391.425C182.408 391.5 182.263 391.57 182.047 391.636C181.836 391.697 181.595 391.751 181.323 391.797C181.052 391.84 180.787 391.879 180.529 391.917C180.271 391.95 180.056 391.978 179.883 392.001C179.475 392.053 179.102 392.139 178.765 392.261C178.432 392.383 178.165 392.559 177.964 392.788C177.767 393.013 177.669 393.313 177.669 393.688C177.669 394.208 177.861 394.602 178.245 394.869C178.629 395.131 179.119 395.262 179.714 395.262ZM192.423 385.914V387.601H186.526V385.914H192.423ZM188.108 383.328H190.209V393.54C190.209 393.948 190.27 394.255 190.392 394.461C190.514 394.663 190.671 394.801 190.863 394.876C191.06 394.946 191.273 394.981 191.503 394.981C191.671 394.981 191.819 394.97 191.945 394.946C192.072 394.923 192.17 394.904 192.241 394.89L192.62 396.626C192.498 396.673 192.325 396.72 192.1 396.767C191.875 396.818 191.594 396.846 191.257 396.851C190.704 396.86 190.188 396.762 189.71 396.556C189.232 396.35 188.846 396.031 188.551 395.6C188.255 395.169 188.108 394.628 188.108 393.976V383.328ZM199.285 396.928C198.221 396.928 197.305 396.701 196.537 396.246C195.773 395.787 195.183 395.143 194.766 394.314C194.353 393.48 194.147 392.503 194.147 391.383C194.147 390.277 194.353 389.302 194.766 388.459C195.183 387.615 195.764 386.957 196.509 386.484C197.258 386.011 198.135 385.774 199.137 385.774C199.747 385.774 200.337 385.875 200.909 386.076C201.48 386.278 201.993 386.594 202.448 387.025C202.902 387.456 203.261 388.016 203.523 388.705C203.786 389.389 203.917 390.221 203.917 391.2V391.945H195.335V390.371H201.857C201.857 389.818 201.745 389.328 201.52 388.902C201.295 388.471 200.979 388.131 200.571 387.882C200.168 387.634 199.695 387.51 199.151 387.51C198.561 387.51 198.046 387.655 197.605 387.946C197.169 388.232 196.832 388.606 196.593 389.07C196.359 389.529 196.242 390.029 196.242 390.567V391.797C196.242 392.519 196.368 393.133 196.621 393.639C196.879 394.145 197.237 394.532 197.696 394.799C198.156 395.061 198.692 395.192 199.306 395.192C199.704 395.192 200.067 395.136 200.395 395.024C200.723 394.906 201.007 394.733 201.246 394.503C201.485 394.274 201.668 393.99 201.794 393.653L203.783 394.011C203.624 394.597 203.338 395.11 202.926 395.551C202.518 395.986 202.005 396.326 201.387 396.57C200.773 396.809 200.072 396.928 199.285 396.928Z" fill="#14B8A6"/>
<rect x="219.365" y="367.71" width="167.578" height="43.3946" rx="7.19728" fill="#9F9F9F" fill-opacity="0.22"/>
<path d="M239.608 390.307L240.313 391.719C240.552 392.196 240.672 392.435 240.831 392.642C240.973 392.826 241.137 392.991 241.321 393.132C241.528 393.292 241.767 393.411 242.245 393.65L243.656 394.356L242.245 395.062C241.767 395.3 241.528 395.42 241.321 395.579C241.137 395.721 240.973 395.886 240.831 396.069C240.672 396.276 240.552 396.515 240.313 396.993L239.608 398.404L238.902 396.993C238.663 396.515 238.544 396.276 238.384 396.069C238.243 395.886 238.078 395.721 237.894 395.579C237.687 395.42 237.448 395.3 236.971 395.062L235.559 394.356L236.971 393.65C237.448 393.411 237.687 393.292 237.894 393.132C238.078 392.991 238.243 392.826 238.384 392.642C238.544 392.435 238.663 392.196 238.902 391.719L239.608 390.307Z" fill="#424242"/>
<path d="M247.255 380.411L248.315 383.168C248.569 383.828 248.696 384.157 248.893 384.435C249.068 384.681 249.283 384.896 249.529 385.07C249.806 385.268 250.136 385.395 250.795 385.648L253.552 386.709L250.795 387.769C250.136 388.023 249.806 388.15 249.529 388.347C249.283 388.522 249.068 388.737 248.893 388.982C248.696 389.26 248.569 389.59 248.315 390.249L247.255 393.006L246.194 390.249C245.941 389.59 245.814 389.26 245.617 388.982C245.442 388.737 245.227 388.522 244.981 388.347C244.704 388.15 244.374 388.023 243.714 387.769L240.957 386.709L243.714 385.648C244.374 385.395 244.704 385.268 244.981 385.07C245.227 384.896 245.442 384.681 245.617 384.435C245.814 384.157 245.941 383.828 246.194 383.168L247.255 380.411Z" fill="#424242"/>
<path d="M239.608 390.307L240.313 391.719C240.552 392.196 240.672 392.435 240.831 392.642C240.973 392.826 241.137 392.991 241.321 393.132C241.528 393.292 241.767 393.411 242.245 393.65L243.656 394.356L242.245 395.062C241.767 395.3 241.528 395.42 241.321 395.579C241.137 395.721 240.973 395.886 240.831 396.069C240.672 396.276 240.552 396.515 240.313 396.993L239.608 398.404L238.902 396.993C238.663 396.515 238.544 396.276 238.384 396.069C238.243 395.886 238.078 395.721 237.894 395.579C237.687 395.42 237.448 395.3 236.971 395.062L235.559 394.356L236.971 393.65C237.448 393.411 237.687 393.292 237.894 393.132C238.078 392.991 238.243 392.826 238.384 392.642C238.544 392.435 238.663 392.196 238.902 391.719L239.608 390.307Z" stroke="#424242" stroke-width="0.719728" stroke-linecap="round" stroke-linejoin="round"/>
<path d="M247.255 380.411L248.315 383.168C248.569 383.828 248.696 384.157 248.893 384.435C249.068 384.681 249.283 384.896 249.529 385.07C249.806 385.268 250.136 385.395 250.795 385.648L253.552 386.709L250.795 387.769C250.136 388.023 249.806 388.15 249.529 388.347C249.283 388.522 249.068 388.737 248.893 388.982C248.696 389.26 248.569 389.59 248.315 390.249L247.255 393.006L246.194 390.249C245.941 389.59 245.814 389.26 245.617 388.982C245.442 388.737 245.227 388.522 244.981 388.347C244.704 388.15 244.374 388.023 243.714 387.769L240.957 386.709L243.714 385.648C244.374 385.395 244.704 385.268 244.981 385.07C245.227 384.896 245.442 384.681 245.617 384.435C245.814 384.157 245.941 383.828 246.194 383.168L247.255 380.411Z" stroke="#424242" stroke-width="0.719728" stroke-linecap="round" stroke-linejoin="round"/>
<path d="M265.744 390.08V395.908H263.833V382.822H265.718V387.691H265.84C266.07 387.162 266.421 386.743 266.894 386.432C267.367 386.121 267.984 385.965 268.747 385.965C269.42 385.965 270.008 386.104 270.511 386.381C271.017 386.658 271.409 387.071 271.686 387.62C271.967 388.166 272.108 388.847 272.108 389.665V395.908H270.197V389.895C270.197 389.175 270.012 388.617 269.642 388.221C269.271 387.821 268.755 387.62 268.095 387.62C267.644 387.62 267.239 387.716 266.881 387.908C266.528 388.1 266.249 388.381 266.044 388.751C265.844 389.118 265.744 389.561 265.744 390.08ZM277.514 396.125C276.892 396.125 276.329 396.01 275.827 395.78C275.324 395.546 274.926 395.207 274.632 394.764C274.342 394.321 274.197 393.778 274.197 393.135C274.197 392.581 274.304 392.125 274.517 391.767C274.73 391.409 275.017 391.126 275.379 390.917C275.741 390.709 276.146 390.551 276.593 390.445C277.041 390.338 277.497 390.257 277.961 390.202C278.549 390.134 279.026 390.078 279.392 390.036C279.758 389.989 280.025 389.914 280.191 389.812C280.357 389.71 280.44 389.544 280.44 389.314V389.269C280.44 388.711 280.282 388.278 279.967 387.972C279.656 387.665 279.192 387.512 278.574 387.512C277.931 387.512 277.424 387.654 277.053 387.94C276.687 388.221 276.434 388.534 276.293 388.879L274.498 388.47C274.711 387.874 275.022 387.392 275.431 387.026C275.844 386.655 276.319 386.387 276.855 386.221C277.392 386.051 277.957 385.965 278.549 385.965C278.941 385.965 279.356 386.012 279.795 386.106C280.238 386.195 280.651 386.362 281.034 386.604C281.422 386.847 281.739 387.194 281.986 387.646C282.233 388.093 282.357 388.675 282.357 389.39V395.908H280.491V394.566H280.414C280.291 394.813 280.106 395.056 279.859 395.294C279.611 395.533 279.294 395.731 278.906 395.888C278.519 396.046 278.055 396.125 277.514 396.125ZM277.929 394.591C278.457 394.591 278.909 394.487 279.283 394.278C279.663 394.07 279.95 393.797 280.146 393.46C280.346 393.12 280.446 392.755 280.446 392.368V391.103C280.378 391.171 280.246 391.235 280.05 391.294C279.859 391.35 279.639 391.399 279.392 391.441C279.145 391.48 278.904 391.516 278.67 391.55C278.436 391.58 278.24 391.605 278.082 391.627C277.712 391.673 277.373 391.752 277.066 391.863C276.764 391.974 276.521 392.134 276.338 392.342C276.159 392.547 276.069 392.819 276.069 393.16C276.069 393.633 276.244 393.991 276.593 394.234C276.943 394.472 277.388 394.591 277.929 394.591ZM286.812 382.822V395.908H284.902V382.822H286.812ZM291.293 382.822V395.908H289.382V382.822H291.293ZM300.08 391.837V386.093H301.997V395.908H300.118V394.208H300.016C299.79 394.732 299.428 395.169 298.93 395.518C298.436 395.863 297.82 396.035 297.083 396.035C296.453 396.035 295.895 395.897 295.409 395.62C294.928 395.339 294.549 394.924 294.272 394.374C293.999 393.825 293.863 393.145 293.863 392.336V386.093H295.774V392.106C295.774 392.775 295.959 393.307 296.329 393.703C296.7 394.099 297.181 394.297 297.773 394.297C298.131 394.297 298.487 394.208 298.841 394.029C299.198 393.85 299.494 393.58 299.729 393.218C299.967 392.856 300.084 392.395 300.08 391.837ZM308.698 396.106C307.748 396.106 306.93 395.891 306.245 395.46C305.563 395.026 305.039 394.427 304.673 393.665C304.306 392.902 304.123 392.029 304.123 391.045C304.123 390.048 304.311 389.169 304.685 388.406C305.06 387.639 305.589 387.041 306.27 386.611C306.952 386.181 307.755 385.965 308.679 385.965C309.424 385.965 310.089 386.104 310.673 386.381C311.256 386.653 311.727 387.037 312.085 387.531C312.447 388.025 312.662 388.602 312.73 389.262H310.871C310.768 388.802 310.534 388.406 310.168 388.074C309.806 387.742 309.32 387.576 308.711 387.576C308.178 387.576 307.712 387.716 307.312 387.997C306.915 388.274 306.607 388.67 306.385 389.186C306.164 389.697 306.053 390.302 306.053 391C306.053 391.716 306.161 392.334 306.379 392.853C306.596 393.373 306.903 393.776 307.299 394.061C307.699 394.346 308.17 394.489 308.711 394.489C309.073 394.489 309.401 394.423 309.695 394.291C309.993 394.155 310.242 393.961 310.442 393.71C310.647 393.458 310.79 393.156 310.871 392.802H312.73C312.662 393.437 312.455 394.004 312.11 394.502C311.765 395 311.303 395.392 310.724 395.678C310.149 395.963 309.473 396.106 308.698 396.106ZM314.773 395.908V386.093H316.684V395.908H314.773ZM315.738 384.579C315.406 384.579 315.12 384.468 314.882 384.247C314.647 384.021 314.53 383.752 314.53 383.441C314.53 383.126 314.647 382.858 314.882 382.636C315.12 382.411 315.406 382.298 315.738 382.298C316.07 382.298 316.353 382.411 316.588 382.636C316.826 382.858 316.946 383.126 316.946 383.441C316.946 383.752 316.826 384.021 316.588 384.247C316.353 384.468 316.07 384.579 315.738 384.579ZM321.164 390.08V395.908H319.254V386.093H321.088V387.691H321.209C321.435 387.171 321.788 386.753 322.27 386.438C322.755 386.123 323.367 385.965 324.104 385.965C324.772 385.965 325.358 386.106 325.861 386.387C326.363 386.664 326.753 387.077 327.03 387.627C327.307 388.176 327.445 388.856 327.445 389.665V395.908H325.535V389.895C325.535 389.184 325.35 388.628 324.979 388.227C324.608 387.823 324.099 387.62 323.452 387.62C323.009 387.62 322.615 387.716 322.27 387.908C321.929 388.1 321.658 388.381 321.458 388.751C321.262 389.118 321.164 389.561 321.164 390.08ZM332.864 396.125C332.242 396.125 331.679 396.01 331.177 395.78C330.674 395.546 330.276 395.207 329.982 394.764C329.692 394.321 329.547 393.778 329.547 393.135C329.547 392.581 329.654 392.125 329.867 391.767C330.08 391.409 330.367 391.126 330.73 390.917C331.092 390.709 331.496 390.551 331.944 390.445C332.391 390.338 332.847 390.257 333.311 390.202C333.899 390.134 334.376 390.078 334.742 390.036C335.109 389.989 335.375 389.914 335.541 389.812C335.707 389.71 335.79 389.544 335.79 389.314V389.269C335.79 388.711 335.633 388.278 335.317 387.972C335.006 387.665 334.542 387.512 333.924 387.512C333.281 387.512 332.774 387.654 332.404 387.94C332.037 388.221 331.784 388.534 331.643 388.879L329.848 388.47C330.061 387.874 330.372 387.392 330.781 387.026C331.194 386.655 331.669 386.387 332.206 386.221C332.742 386.051 333.307 385.965 333.899 385.965C334.291 385.965 334.706 386.012 335.145 386.106C335.588 386.195 336.001 386.362 336.384 386.604C336.772 386.847 337.089 387.194 337.336 387.646C337.584 388.093 337.707 388.675 337.707 389.39V395.908H335.841V394.566H335.765C335.641 394.813 335.456 395.056 335.209 395.294C334.962 395.533 334.644 395.731 334.257 395.888C333.869 396.046 333.405 396.125 332.864 396.125ZM333.279 394.591C333.807 394.591 334.259 394.487 334.634 394.278C335.013 394.07 335.3 393.797 335.496 393.46C335.696 393.12 335.797 392.755 335.797 392.368V391.103C335.728 391.171 335.596 391.235 335.4 391.294C335.209 391.35 334.989 391.399 334.742 391.441C334.495 391.48 334.255 391.516 334.02 391.55C333.786 391.58 333.59 391.605 333.432 391.627C333.062 391.673 332.723 391.752 332.416 391.863C332.114 391.974 331.871 392.134 331.688 392.342C331.509 392.547 331.42 392.819 331.42 393.16C331.42 393.633 331.594 393.991 331.944 394.234C332.293 394.472 332.738 394.591 333.279 394.591ZM344.833 386.093V387.627H339.472V386.093H344.833ZM340.91 383.742H342.82V393.026C342.82 393.397 342.876 393.676 342.986 393.863C343.097 394.046 343.24 394.172 343.415 394.24C343.593 394.304 343.787 394.336 343.996 394.336C344.149 394.336 344.284 394.325 344.399 394.304C344.514 394.283 344.603 394.266 344.667 394.253L345.012 395.831C344.901 395.874 344.744 395.916 344.539 395.959C344.335 396.006 344.079 396.031 343.772 396.035C343.27 396.044 342.801 395.955 342.367 395.767C341.932 395.58 341.581 395.29 341.312 394.898C341.044 394.506 340.91 394.014 340.91 393.422V383.742ZM346.946 395.908V386.093H348.857V395.908H346.946ZM347.911 384.579C347.579 384.579 347.294 384.468 347.055 384.247C346.821 384.021 346.704 383.752 346.704 383.441C346.704 383.126 346.821 382.858 347.055 382.636C347.294 382.411 347.579 382.298 347.911 382.298C348.244 382.298 348.527 382.411 348.761 382.636C349 382.858 349.119 383.126 349.119 383.441C349.119 383.752 349 384.021 348.761 384.247C348.527 384.468 348.244 384.579 347.911 384.579ZM355.561 396.106C354.641 396.106 353.838 395.895 353.152 395.473C352.467 395.051 351.934 394.461 351.555 393.703C351.176 392.945 350.986 392.059 350.986 391.045C350.986 390.027 351.176 389.137 351.555 388.374C351.934 387.612 352.467 387.02 353.152 386.598C353.838 386.176 354.641 385.965 355.561 385.965C356.481 385.965 357.284 386.176 357.97 386.598C358.656 387.02 359.188 387.612 359.568 388.374C359.947 389.137 360.136 390.027 360.136 391.045C360.136 392.059 359.947 392.945 359.568 393.703C359.188 394.461 358.656 395.051 357.97 395.473C357.284 395.895 356.481 396.106 355.561 396.106ZM355.568 394.502C356.164 394.502 356.658 394.344 357.05 394.029C357.442 393.714 357.732 393.294 357.919 392.77C358.111 392.246 358.207 391.669 358.207 391.039C358.207 390.413 358.111 389.838 357.919 389.314C357.732 388.785 357.442 388.362 357.05 388.042C356.658 387.723 356.164 387.563 355.568 387.563C354.967 387.563 354.469 387.723 354.072 388.042C353.681 388.362 353.389 388.785 353.197 389.314C353.01 389.838 352.916 390.413 352.916 391.039C352.916 391.669 353.01 392.246 353.197 392.77C353.389 393.294 353.681 393.714 354.072 394.029C354.469 394.344 354.967 394.502 355.568 394.502ZM364.179 390.08V395.908H362.269V386.093H364.103V387.691H364.224C364.45 387.171 364.803 386.753 365.285 386.438C365.77 386.123 366.382 385.965 367.119 385.965C367.787 385.965 368.373 386.106 368.876 386.387C369.378 386.664 369.768 387.077 370.045 387.627C370.322 388.176 370.46 388.856 370.46 389.665V395.908H368.55V389.895C368.55 389.184 368.364 388.628 367.994 388.227C367.623 387.823 367.114 387.62 366.467 387.62C366.024 387.62 365.63 387.716 365.285 387.908C364.944 388.1 364.673 388.381 364.473 388.751C364.277 389.118 364.179 389.561 364.179 390.08Z" fill="#424242"/>
<rect x="29.6887" y="446.148" width="469.622" height="70.9898" rx="9.89626" stroke="#8B5CF6" stroke-opacity="0.5" stroke-width="1.79932"/>
<path d="M51.8007 474.248H54.9916L59.265 484.679H59.4337L63.7071 474.248H66.8981V488.643H64.3959V478.753H64.2624L60.2842 488.601H58.4146L54.4364 478.732H54.3028V488.643H51.8007V474.248ZM74.4046 488.854C73.3222 488.854 72.3874 488.629 71.6002 488.179C70.8177 487.724 70.2156 487.082 69.7939 486.253C69.3721 485.419 69.1613 484.437 69.1613 483.308C69.1613 482.197 69.3721 481.223 69.7939 480.384C70.2203 479.541 70.8154 478.885 71.5791 478.416C72.3429 477.943 73.2402 477.706 74.2711 477.706C74.9364 477.706 75.5643 477.814 76.1547 478.03C76.7498 478.24 77.2746 478.568 77.7291 479.014C78.1883 479.459 78.5491 480.026 78.8115 480.714C79.0739 481.399 79.2051 482.214 79.2051 483.16V483.941H70.3561V482.226H76.7662C76.7615 481.738 76.6561 481.305 76.4499 480.925C76.2438 480.541 75.9556 480.239 75.5854 480.019C75.2199 479.798 74.7935 479.688 74.3062 479.688C73.7861 479.688 73.3292 479.815 72.9356 480.068C72.542 480.316 72.2351 480.644 72.0149 481.052C71.7994 481.455 71.6892 481.898 71.6846 482.38V483.877C71.6846 484.505 71.7994 485.044 72.029 485.494C72.2586 485.939 72.5795 486.281 72.9919 486.52C73.4042 486.754 73.8868 486.871 74.4398 486.871C74.8099 486.871 75.145 486.82 75.4449 486.717C75.7447 486.609 76.0048 486.452 76.225 486.246C76.4453 486.04 76.6116 485.784 76.7241 485.48L79.0997 485.747C78.9498 486.375 78.6639 486.923 78.2422 487.392C77.8252 487.855 77.291 488.216 76.6397 488.474C75.9884 488.727 75.2434 488.854 74.4046 488.854ZM89.8904 480.7L87.5709 480.953C87.5053 480.719 87.3905 480.499 87.2265 480.293C87.0672 480.087 86.8517 479.92 86.5799 479.794C86.3081 479.667 85.9754 479.604 85.5818 479.604C85.0524 479.604 84.6072 479.719 84.2464 479.948C83.8903 480.178 83.7146 480.475 83.7193 480.841C83.7146 481.155 83.8294 481.41 84.0637 481.607C84.3026 481.804 84.6962 481.966 85.2445 482.092L87.086 482.486C88.1074 482.706 88.8665 483.055 89.3632 483.533C89.8646 484.011 90.1176 484.636 90.1223 485.41C90.1176 486.089 89.9185 486.689 89.5249 487.209C89.136 487.724 88.5948 488.127 87.9013 488.418C87.2078 488.708 86.4112 488.854 85.5116 488.854C84.1902 488.854 83.1265 488.577 82.3206 488.024C81.5146 487.467 81.0343 486.691 80.8797 485.698L83.3608 485.459C83.4733 485.946 83.7122 486.314 84.0777 486.562C84.4432 486.811 84.9188 486.935 85.5045 486.935C86.109 486.935 86.594 486.811 86.9594 486.562C87.3296 486.314 87.5147 486.007 87.5147 485.641C87.5147 485.332 87.3952 485.077 87.1562 484.875C86.922 484.674 86.5565 484.519 86.0598 484.411L84.2183 484.025C83.1827 483.809 82.4166 483.446 81.9199 482.935C81.4233 482.42 81.1773 481.769 81.1819 480.982C81.1773 480.316 81.3577 479.74 81.7231 479.253C82.0933 478.76 82.6064 478.381 83.2624 478.114C83.9231 477.842 84.6845 477.706 85.5467 477.706C86.8118 477.706 87.8076 477.976 88.5338 478.514C89.2648 479.053 89.717 479.782 89.8904 480.7ZM100.753 480.7L98.4336 480.953C98.368 480.719 98.2532 480.499 98.0892 480.293C97.9299 480.087 97.7144 479.92 97.4426 479.794C97.1708 479.667 96.8381 479.604 96.4445 479.604C95.915 479.604 95.4699 479.719 95.1091 479.948C94.753 480.178 94.5773 480.475 94.582 480.841C94.5773 481.155 94.6921 481.41 94.9264 481.607C95.1653 481.804 95.5589 481.966 96.1072 482.092L97.9486 482.486C98.9701 482.706 99.7292 483.055 100.226 483.533C100.727 484.011 100.98 484.636 100.985 485.41C100.98 486.089 100.781 486.689 100.388 487.209C99.9987 487.724 99.4575 488.127 98.764 488.418C98.0705 488.708 97.2739 488.854 96.3742 488.854C95.0529 488.854 93.9892 488.577 93.1833 488.024C92.3773 487.467 91.897 486.691 91.7424 485.698L94.2235 485.459C94.3359 485.946 94.5749 486.314 94.9404 486.562C95.3059 486.811 95.7815 486.935 96.3672 486.935C96.9717 486.935 97.4566 486.811 97.8221 486.562C98.1923 486.314 98.3774 486.007 98.3774 485.641C98.3774 485.332 98.2579 485.077 98.0189 484.875C97.7846 484.674 97.4192 484.519 96.9225 484.411L95.081 484.025C94.0454 483.809 93.2793 483.446 92.7826 482.935C92.2859 482.42 92.0399 481.769 92.0446 480.982C92.0399 480.316 92.2203 479.74 92.5858 479.253C92.956 478.76 93.4691 478.381 94.1251 478.114C94.7858 477.842 95.5472 477.706 96.4094 477.706C97.6745 477.706 98.6702 477.976 99.3965 478.514C100.128 479.053 100.58 479.782 100.753 480.7ZM106.19 488.861C105.506 488.861 104.889 488.739 104.341 488.495C103.798 488.247 103.367 487.881 103.048 487.399C102.734 486.916 102.577 486.321 102.577 485.613C102.577 485.004 102.689 484.501 102.914 484.102C103.139 483.704 103.446 483.385 103.835 483.146C104.224 482.907 104.662 482.727 105.149 482.605C105.641 482.479 106.15 482.387 106.675 482.331C107.307 482.265 107.82 482.207 108.214 482.155C108.608 482.099 108.893 482.015 109.071 481.902C109.254 481.785 109.346 481.605 109.346 481.361V481.319C109.346 480.789 109.189 480.379 108.875 480.089C108.561 479.798 108.108 479.653 107.518 479.653C106.895 479.653 106.401 479.789 106.035 480.061C105.674 480.333 105.431 480.654 105.304 481.024L102.928 480.686C103.116 480.03 103.425 479.482 103.856 479.042C104.287 478.596 104.814 478.264 105.438 478.044C106.061 477.819 106.75 477.706 107.504 477.706C108.024 477.706 108.542 477.767 109.057 477.889C109.573 478.011 110.044 478.212 110.47 478.493C110.896 478.77 111.239 479.147 111.496 479.625C111.759 480.103 111.89 480.7 111.89 481.417V488.643H109.444V487.16H109.36C109.205 487.46 108.987 487.741 108.706 488.003C108.429 488.261 108.08 488.469 107.659 488.629C107.242 488.783 106.752 488.861 106.19 488.861ZM106.85 486.991C107.361 486.991 107.804 486.89 108.179 486.689C108.554 486.483 108.842 486.211 109.043 485.873C109.249 485.536 109.353 485.168 109.353 484.77V483.498C109.273 483.563 109.137 483.624 108.945 483.681C108.757 483.737 108.547 483.786 108.312 483.828C108.078 483.87 107.846 483.908 107.616 483.941C107.387 483.973 107.188 484.001 107.019 484.025C106.64 484.076 106.3 484.161 106 484.278C105.7 484.395 105.463 484.559 105.29 484.77C105.117 484.976 105.03 485.243 105.03 485.571C105.03 486.04 105.201 486.394 105.543 486.633C105.885 486.871 106.321 486.991 106.85 486.991ZM119.143 492.916C118.23 492.916 117.445 492.792 116.789 492.544C116.133 492.3 115.606 491.972 115.207 491.56C114.809 491.147 114.533 490.69 114.378 490.189L116.669 489.634C116.772 489.845 116.922 490.053 117.119 490.259C117.316 490.47 117.581 490.644 117.913 490.779C118.251 490.92 118.675 490.99 119.186 490.99C119.907 490.99 120.505 490.815 120.978 490.463C121.451 490.116 121.688 489.545 121.688 488.748V486.703H121.561C121.43 486.965 121.238 487.235 120.985 487.511C120.737 487.788 120.406 488.019 119.994 488.207C119.586 488.394 119.073 488.488 118.455 488.488C117.625 488.488 116.873 488.294 116.198 487.905C115.528 487.511 114.994 486.925 114.596 486.148C114.202 485.365 114.005 484.386 114.005 483.21C114.005 482.024 114.202 481.024 114.596 480.208C114.994 479.388 115.531 478.768 116.205 478.346C116.88 477.919 117.632 477.706 118.462 477.706C119.094 477.706 119.614 477.814 120.022 478.03C120.434 478.24 120.762 478.496 121.006 478.796C121.25 479.091 121.435 479.37 121.561 479.632H121.702V477.847H124.211V488.818C124.211 489.742 123.991 490.505 123.55 491.11C123.11 491.714 122.508 492.166 121.744 492.466C120.98 492.766 120.113 492.916 119.143 492.916ZM119.164 486.492C119.703 486.492 120.163 486.361 120.542 486.098C120.922 485.836 121.21 485.459 121.407 484.967C121.603 484.475 121.702 483.884 121.702 483.196C121.702 482.516 121.603 481.921 121.407 481.41C121.214 480.9 120.929 480.504 120.549 480.222C120.174 479.937 119.713 479.794 119.164 479.794C118.597 479.794 118.124 479.941 117.745 480.237C117.365 480.532 117.079 480.937 116.887 481.452C116.695 481.963 116.599 482.544 116.599 483.196C116.599 483.856 116.695 484.435 116.887 484.932C117.084 485.424 117.372 485.808 117.752 486.084C118.136 486.356 118.607 486.492 119.164 486.492ZM131.598 488.854C130.516 488.854 129.581 488.629 128.794 488.179C128.011 487.724 127.409 487.082 126.987 486.253C126.566 485.419 126.355 484.437 126.355 483.308C126.355 482.197 126.566 481.223 126.987 480.384C127.414 479.541 128.009 478.885 128.773 478.416C129.536 477.943 130.434 477.706 131.464 477.706C132.13 477.706 132.758 477.814 133.348 478.03C133.943 478.24 134.468 478.568 134.923 479.014C135.382 479.459 135.743 480.026 136.005 480.714C136.267 481.399 136.399 482.214 136.399 483.16V483.941H127.55V482.226H133.96C133.955 481.738 133.85 481.305 133.643 480.925C133.437 480.541 133.149 480.239 132.779 480.019C132.413 479.798 131.987 479.688 131.5 479.688C130.98 479.688 130.523 479.815 130.129 480.068C129.735 480.316 129.429 480.644 129.208 481.052C128.993 481.455 128.883 481.898 128.878 482.38V483.877C128.878 484.505 128.993 485.044 129.222 485.494C129.452 485.939 129.773 486.281 130.185 486.52C130.598 486.754 131.08 486.871 131.633 486.871C132.003 486.871 132.338 486.82 132.638 486.717C132.938 486.609 133.198 486.452 133.418 486.246C133.639 486.04 133.805 485.784 133.917 485.48L136.293 485.747C136.143 486.375 135.857 486.923 135.436 487.392C135.019 487.855 134.484 488.216 133.833 488.474C133.182 488.727 132.437 488.854 131.598 488.854Z" fill="#8B5CF6"/>
<defs>
<linearGradient id="paint0_linear_1_32" x1="264.5" y1="0" x2="264.5" y2="545.194" gradientUnits="userSpaceOnUse">
<stop stop-color="white"/>
</linearGradient>
</defs>
</svg>
